G04 #@! TF.FileFunction,Soldermask,Bot*
%FSLAX45Y45*%
G04 Gerber Fmt 4.5, Leading zero omitted, Abs format (unit mm)*
G04 Created by KiCad (PCBNEW 4.0.0-stable) date 12/22/2015 12:01:39 PM*
%MOMM*%
G01*
G04 APERTURE LIST*
%ADD10C,0.100000*%
%ADD11C,2.899360*%
%ADD12C,1.900000*%
%ADD13C,2.400000*%
%ADD14R,1.400000X1.650000*%
%ADD15C,1.700000*%
%ADD16R,1.700000X1.700000*%
%ADD17R,1.900000X1.400000*%
%ADD18R,2.600000X1.600000*%
%ADD19R,3.900120X3.900120*%
%ADD20R,2.127200X2.432000*%
%ADD21O,2.127200X2.432000*%
%ADD22R,2.432000X2.127200*%
%ADD23O,2.432000X2.127200*%
%ADD24R,2.127200X2.127200*%
%ADD25O,2.127200X2.127200*%
%ADD26C,1.797000*%
%ADD27C,1.924000*%
%ADD28R,1.150000X1.200000*%
%ADD29C,3.400000*%
%ADD30C,2.250000*%
%ADD31C,1.600000*%
%ADD32C,1.543000*%
%ADD33C,2.000000*%
%ADD34C,1.901140*%
%ADD35R,0.900000X1.300000*%
%ADD36R,1.300000X0.900000*%
%ADD37C,0.254000*%
G04 APERTURE END LIST*
D10*
D11*
X3645408Y-6370320D03*
X2395982Y-6620510D03*
X2895600Y-6370574D03*
X2145792Y-6370320D03*
X3395218Y-6620510D03*
X2395474Y-5370830D03*
X3395726Y-5370830D03*
D12*
X9969500Y-7048500D03*
X7969500Y-7048500D03*
D13*
X8569500Y-8008500D03*
X9379500Y-6608500D03*
X7759500Y-6608500D03*
D14*
X15848000Y-8636000D03*
X15648000Y-8636000D03*
X15187600Y-8636000D03*
X14987600Y-8636000D03*
D15*
X14725650Y-11264900D03*
D16*
X14975650Y-11264900D03*
D15*
X16436150Y-10414000D03*
D16*
X16186150Y-10414000D03*
D15*
X15716250Y-11264900D03*
D16*
X15466250Y-11264900D03*
D17*
X4013200Y-8212900D03*
X4013200Y-8462900D03*
X4013200Y-8792900D03*
X4013200Y-8962900D03*
X4013200Y-9212900D03*
X4013200Y-9462900D03*
X4013200Y-9705400D03*
X4013200Y-9875400D03*
X4013200Y-7962900D03*
X4013200Y-8627900D03*
X4013200Y-10210400D03*
D18*
X1913200Y-7460400D03*
X1793200Y-10260400D03*
D12*
X1583200Y-7690400D03*
X1583200Y-10110400D03*
D19*
X15113000Y-6208014D03*
X15113000Y-5608066D03*
X14643100Y-5908040D03*
D20*
X9956800Y-6375400D03*
D21*
X10210800Y-6375400D03*
X10464800Y-6375400D03*
X10718800Y-6375400D03*
X10972800Y-6375400D03*
D22*
X12723033Y-9142550D03*
D23*
X12723033Y-9396550D03*
X12723033Y-9650550D03*
D22*
X8077200Y-8166100D03*
D23*
X8077200Y-8420100D03*
X8077200Y-8674100D03*
D24*
X3149403Y-11172446D03*
D25*
X3149403Y-11426446D03*
X2895403Y-11172446D03*
X2895403Y-11426446D03*
X2641403Y-11172446D03*
X2641403Y-11426446D03*
X2387403Y-11172446D03*
X2387403Y-11426446D03*
D26*
X8775700Y-8572500D03*
X8775700Y-8064500D03*
X9537700Y-8572500D03*
X9537700Y-8064500D03*
X9537700Y-7289800D03*
X9537700Y-7797800D03*
X8775700Y-7289800D03*
X8775700Y-7797800D03*
D27*
X4102100Y-13081000D03*
X4102100Y-13335000D03*
X4102100Y-12827000D03*
X7683500Y-13081000D03*
X7937500Y-13081000D03*
X7429500Y-13081000D03*
D28*
X9969500Y-6844100D03*
X9969500Y-6694100D03*
D29*
X3149600Y-14579600D03*
X2336800Y-14579600D03*
D13*
X3048000Y-13970000D03*
X2438400Y-13970000D03*
D30*
X2743200Y-13995400D03*
X2743200Y-14249400D03*
D29*
X6718300Y-14579600D03*
X5905500Y-14579600D03*
D13*
X6616700Y-13970000D03*
X6007100Y-13970000D03*
D30*
X6311900Y-13995400D03*
X6311900Y-14249400D03*
D29*
X11963400Y-14579600D03*
X11150600Y-14579600D03*
D13*
X11861800Y-13970000D03*
X11252200Y-13970000D03*
D30*
X11557000Y-13995400D03*
X11557000Y-14249400D03*
D29*
X8915400Y-14579600D03*
X8102600Y-14579600D03*
D13*
X8813800Y-13970000D03*
X8204200Y-13970000D03*
D30*
X8509000Y-13995400D03*
X8509000Y-14249400D03*
D29*
X10439400Y-14579600D03*
X9626600Y-14579600D03*
D13*
X10337800Y-13970000D03*
X9728200Y-13970000D03*
D30*
X10033000Y-13995400D03*
X10033000Y-14249400D03*
D20*
X6578600Y-13550900D03*
D21*
X6324600Y-13550900D03*
X6070600Y-13550900D03*
D27*
X15586450Y-9398300D03*
X15236450Y-9398300D03*
X14886450Y-9398300D03*
X15936450Y-9398300D03*
X15586450Y-7848300D03*
X15236450Y-7848300D03*
X14886450Y-7848300D03*
X15936450Y-7848300D03*
D31*
X9956800Y-7721600D03*
D32*
X16268700Y-12065000D03*
X13963650Y-7023100D03*
X13963650Y-7372350D03*
X15601950Y-12071350D03*
X14897100Y-12084050D03*
X12807950Y-8166100D03*
X11372850Y-10287000D03*
X5403850Y-11963400D03*
X8318500Y-10756900D03*
X13169900Y-10579100D03*
X6940550Y-6324600D03*
X4425950Y-8102600D03*
D33*
X13538200Y-14655800D03*
X13792200Y-14655800D03*
X13284200Y-14655800D03*
D34*
X15621000Y-14655800D03*
X15875000Y-14655800D03*
X15367000Y-14655800D03*
D35*
X6376600Y-7213600D03*
X6526600Y-7213600D03*
X11761400Y-8483600D03*
X11911400Y-8483600D03*
D36*
X15798800Y-12142400D03*
X15798800Y-12292400D03*
D35*
X13892600Y-12115800D03*
X13742600Y-12115800D03*
D36*
X16611600Y-12292400D03*
X16611600Y-12142400D03*
D32*
X11658600Y-10541000D03*
D36*
X16027400Y-12292400D03*
X16027400Y-12142400D03*
D37*
G36*
X15608300Y-7454900D02*
X15074900Y-7454900D01*
X15074900Y-6489700D01*
X15608300Y-6489700D01*
X15608300Y-7454900D01*
X15608300Y-7454900D01*
G37*
X15608300Y-7454900D02*
X15074900Y-7454900D01*
X15074900Y-6489700D01*
X15608300Y-6489700D01*
X15608300Y-7454900D01*
M02*
