M48
;DRILL file {KiCad 4.0.0-stable} date 12/22/2015 12:01:44 PM
;FORMAT={-:-/ absolute / inch / decimal}
FMAT,2
INCH,TZ
T1C0.016
T2C0.020
T3C0.025
T4C0.030
T5C0.031
T6C0.032
T7C0.032
T8C0.035
T9C0.039
T10C0.039
T11C0.040
T12C0.055
T13C0.059
%
G90
G05
M72
T1
X0.65Y-5.15
X0.73Y-4.46
X0.7625Y-4.695
X0.88Y-4.26
X0.915Y-3.865
X0.9675Y-5.6125
X1.04Y-3.865
X1.07Y-3.06
X1.085Y-4.675
X1.1475Y-5.165
X1.15Y-4.95
X1.2Y-4.315
X1.4Y-3.6
X1.43Y-4.685
X1.505Y-3.43
X1.51Y-3.33
X1.51Y-3.51
X1.735Y-3.6894
X1.78Y-4.645
X1.81Y-3.645
X1.8217Y-2.2579
X1.84Y-4.9
X1.88Y-4.645
X1.885Y-3.19
X1.89Y-3.1
X1.89Y-3.275
X1.96Y-2.85
X2.05Y-3.975
X2.05Y-4.225
X2.0501Y-3.6924
X2.095Y-3.275
X2.12Y-2.78
X2.15Y-4.485
X2.16Y-2.815
X2.2Y-2.75
X2.2359Y-5.4314
X2.24Y-3.695
X2.27Y-2.84
X2.28Y-2.645
X2.31Y-2.935
X2.475Y-4.875
X2.48Y-2.61
X2.48Y-4.705
X2.49Y-3.815
X2.5Y-2.925
X2.5Y-4.775
X2.515Y-3.56
X2.5162Y-3.675
X2.54Y-5.435
X2.59Y-5.015
X2.6085Y-2.9295
X2.655Y-3.81
X2.68Y-3.505
X2.73Y-2.59
X2.755Y-5.835
X2.775Y-4.475
X2.8Y-2.75
X2.82Y-2.87
X2.905Y-3.23
X2.92Y-2.785
X2.92Y-2.985
X2.93Y-3.695
X2.94Y-3.985
X2.94Y-4.245
X3.02Y-2.5
X3.105Y-4.3
X3.13Y-3.695
X3.15Y-4.625
X3.18Y-5.44
X3.3Y-2.62
X3.34Y-2.66
X3.35Y-5.8
X3.38Y-5.03
X3.415Y-2.505
X3.455Y-2.545
X3.47Y-2.41
X3.495Y-4.735
X3.5084Y-4.9663
X3.5175Y-3.61
X3.53Y-5.61
X3.585Y-4.46
X3.59Y-2.3
X3.6Y-2.83
X3.6Y-4.74
X3.62Y-2.665
X3.73Y-2.72
X3.74Y-5.43
X3.75Y-5.19
X3.76Y-4.45
X3.805Y-3.665
X3.825Y-3.33
X3.855Y-3.275
X3.88Y-2.935
X3.89Y-3.61
X3.92Y-2.19
X3.925Y-2.87
X3.935Y-4.945
X3.95Y-3.49
X3.95Y-5.8
X3.96Y-5.03
X3.965Y-3.375
X4.0393Y-2.8622
X4.055Y-2.93
X4.1Y-5.6057
X4.13Y-3.785
X4.1898Y-2.7081
X4.1904Y-3.5452
X4.2025Y-3.955
X4.205Y-3.8875
X4.2075Y-2.765
X4.2784Y-2.8328
X4.28Y-4.24
X4.28Y-4.4
X4.29Y-3.24
X4.2992Y-2.6734
X4.325Y-4.075
X4.325Y-4.495
X4.33Y-3.71
X4.335Y-3.785
X4.35Y-5.45
X4.365Y-4.9675
X4.372Y-4.1749
X4.375Y-3.11
X4.3797Y-5.5771
X4.385Y-2.995
X4.42Y-5.03
X4.46Y-3.36
X4.52Y-2.89
X4.56Y-5.79
X4.565Y-3.855
X4.5669Y-2.5354
X4.57Y-3.285
X4.5838Y-2.5883
X4.5932Y-3.1893
X4.61Y-4.73
X4.6289Y-2.6727
X4.6378Y-2.5984
X4.65Y-3.195
X4.6512Y-2.7223
X4.665Y-3.39
X4.69Y-5.03
X4.705Y-3.445
X4.7084Y-2.4575
X4.74Y-2.23
X4.74Y-2.97
X4.74Y-5.58
X4.765Y-3.265
X4.78Y-2.725
X4.795Y-2.485
X4.82Y-3.85
X4.8424Y-3.08
X4.85Y-2.74
X4.9226Y-4.0332
X4.94Y-2.975
X5.01Y-2.28
X5.01Y-2.945
X5.045Y-4.955
X5.15Y-3.575
X5.165Y-4.83
X5.22Y-4.92
X5.2362Y-2.8504
X5.335Y-5.635
X5.48Y-2.23
X5.48Y-5.43
X5.54Y-3.99
X5.67Y-4.7
X5.7975Y-3.835
X5.7975Y-4.375
X5.9175Y-4.355
X5.92Y-4.7
X5.95Y-2.915
X5.98Y-2.575
X5.98Y-2.64
X5.9975Y-3.875
X6.005Y-2.86
X6.025Y-2.575
X6.025Y-2.64
X6.025Y-2.72
X6.025Y-2.79
X6.0277Y-4.415
X6.04Y-5.43
X6.0575Y-4.355
X6.07Y-2.575
X6.07Y-2.64
X6.115Y-2.575
X6.115Y-2.64
X6.1359Y-2.4441
X6.17Y-2.175
X6.1975Y-3.835
X6.41Y-4.17
X6.46Y-2.87
T2
X3.92Y-3.04
T3
X1.7425Y-3.19
X2.1275Y-4.71
X2.7325Y-2.49
X3.275Y-4.235
X4.4775Y-4.05
X4.59Y-4.15
X5.0425Y-3.215
X5.185Y-4.165
X5.4975Y-2.765
X5.4975Y-2.9025
X5.865Y-4.7575
X6.1425Y-4.7525
X6.405Y-4.75
T4
X5.8608Y-3.0899
X5.8608Y-3.7001
X5.9986Y-3.0899
X5.9986Y-3.7001
X6.1364Y-3.0899
X6.1364Y-3.7001
X6.2742Y-3.0899
X6.2742Y-3.7001
T5
X1.615Y-5.05
X1.615Y-5.15
X1.615Y-5.25
X2.925Y-5.15
X3.025Y-5.15
X3.125Y-5.15
X5.7975Y-4.435
X5.8959Y-4.435
X6.0891Y-4.435
X6.1875Y-4.435
X6.3725Y-4.1
X6.4709Y-4.1
T6
X6.05Y-5.77
X6.15Y-5.77
X6.25Y-5.77
T7
X3.455Y-2.87
X3.455Y-3.07
X3.455Y-3.175
X3.455Y-3.375
X3.755Y-2.87
X3.755Y-3.07
X3.755Y-3.175
X3.755Y-3.375
T8
X5.23Y-5.77
X5.33Y-5.77
X5.43Y-5.77
T9
X0.96Y-5.5
X1.08Y-5.51
X1.08Y-5.61
X1.2Y-5.5
X2.365Y-5.5
X2.485Y-5.51
X2.485Y-5.61
X2.605Y-5.5
X3.1376Y-2.775
X3.23Y-5.5
X3.35Y-5.51
X3.35Y-5.61
X3.47Y-5.5
X3.83Y-5.5
X3.925Y-2.775
X3.95Y-5.51
X3.95Y-5.61
X4.07Y-5.5
X4.43Y-5.5
X4.55Y-5.51
X4.55Y-5.61
X4.67Y-5.5
T11
X0.9399Y-4.3986
X0.9399Y-4.4986
X1.0399Y-4.3986
X1.0399Y-4.4986
X1.1399Y-4.3986
X1.1399Y-4.4986
X1.2399Y-4.3986
X1.2399Y-4.4986
X2.39Y-5.335
X2.49Y-5.335
X2.59Y-5.335
X3.18Y-3.215
X3.18Y-3.315
X3.18Y-3.415
X3.92Y-2.51
X4.02Y-2.51
X4.12Y-2.51
X4.22Y-2.51
X4.32Y-2.51
X5.0091Y-3.5994
X5.0091Y-3.6994
X5.0091Y-3.7994
T12
X0.8448Y-2.508
X0.9433Y-2.6065
X1.14Y-2.5081
X1.3367Y-2.6065
X1.4352Y-2.508
T13
X0.92Y-5.74
X1.24Y-5.74
X2.325Y-5.74
X2.645Y-5.74
X3.19Y-5.74
X3.51Y-5.74
X3.79Y-5.74
X4.11Y-5.74
X4.39Y-5.74
X4.71Y-5.74
T10
X5.765Y-2.2866G85X5.765Y-2.3653
G05
X5.9893Y-2.2079G85X5.9106Y-2.2079
G05
X5.9893Y-2.4441G85X5.9106Y-2.4441
G05
T0
M30
