G04 #@! TF.FileFunction,Copper,L1,Top,Signal*
%FSLAX45Y45*%
G04 Gerber Fmt 4.5, Leading zero omitted, Abs format (unit mm)*
G04 Created by KiCad (PCBNEW 4.0.0-stable) date 12/22/2015 12:01:39 PM*
%MOMM*%
G01*
G04 APERTURE LIST*
%ADD10C,0.100000*%
%ADD11C,2.499360*%
%ADD12R,1.000000X1.250000*%
%ADD13R,1.300000X0.700000*%
%ADD14R,1.500000X0.600000*%
%ADD15R,1.250000X1.000000*%
%ADD16C,1.500000*%
%ADD17C,2.000000*%
%ADD18R,2.370000X2.430000*%
%ADD19R,0.800000X0.750000*%
%ADD20R,1.600200X2.999740*%
%ADD21R,2.999740X1.600200*%
%ADD22C,1.300000*%
%ADD23R,1.300000X1.300000*%
%ADD24R,3.599180X1.600200*%
%ADD25R,2.230000X2.370000*%
%ADD26R,2.370000X2.230000*%
%ADD27R,3.500120X3.500120*%
%ADD28R,2.499360X2.301240*%
%ADD29R,0.800100X0.800100*%
%ADD30R,1.198880X1.198880*%
%ADD31R,2.301240X2.499360*%
%ADD32R,2.400000X1.500000*%
%ADD33R,1.500000X2.400000*%
%ADD34R,0.700000X1.300000*%
%ADD35R,1.727200X2.032000*%
%ADD36O,1.727200X2.032000*%
%ADD37R,2.032000X1.727200*%
%ADD38O,2.032000X1.727200*%
%ADD39R,0.400000X1.350000*%
%ADD40R,1.000000X0.800000*%
%ADD41R,1.000000X1.550000*%
%ADD42R,1.727200X1.727200*%
%ADD43O,1.727200X1.727200*%
%ADD44R,0.600000X1.550000*%
%ADD45O,1.473200X0.609600*%
%ADD46C,1.397000*%
%ADD47R,0.300000X1.500000*%
%ADD48R,1.500000X0.300000*%
%ADD49R,0.650000X1.060000*%
%ADD50R,0.450000X1.750000*%
%ADD51R,1.550000X0.600000*%
%ADD52C,1.524000*%
%ADD53R,1.060000X0.650000*%
%ADD54R,2.100580X5.600700*%
%ADD55R,0.750000X0.800000*%
%ADD56R,0.400000X0.600000*%
%ADD57C,3.000000*%
%ADD58C,1.850000*%
%ADD59R,0.900000X1.700000*%
%ADD60R,1.700000X0.900000*%
%ADD61C,1.200000*%
%ADD62R,0.500000X0.900000*%
%ADD63R,1.000000X2.500000*%
%ADD64R,0.600000X0.400000*%
%ADD65C,1.143000*%
%ADD66C,1.600000*%
%ADD67C,1.501140*%
%ADD68C,0.900000*%
%ADD69C,0.400000*%
%ADD70C,0.250000*%
%ADD71C,0.600000*%
%ADD72C,0.254000*%
G04 APERTURE END LIST*
D10*
D11*
X3645408Y-6370320D03*
X2395982Y-6620510D03*
X2895600Y-6370574D03*
X2145792Y-6370320D03*
X3395218Y-6620510D03*
X2395474Y-5370830D03*
X3395726Y-5370830D03*
D12*
X7529500Y-7239000D03*
X7329500Y-7239000D03*
D13*
X8064500Y-10153900D03*
X8064500Y-10343900D03*
D14*
X10144000Y-11582400D03*
X10144000Y-11709400D03*
X10144000Y-11836400D03*
X10144000Y-11963400D03*
X10144000Y-12090400D03*
X10144000Y-12217400D03*
X10144000Y-12344400D03*
X10684000Y-12344400D03*
X10684000Y-12217400D03*
X10684000Y-12090400D03*
X10684000Y-11963400D03*
X10684000Y-11836400D03*
X10684000Y-11709400D03*
X10684000Y-11582400D03*
D15*
X6565900Y-10148900D03*
X6565900Y-10348900D03*
D12*
X5053000Y-9258300D03*
X4853000Y-9258300D03*
X5326696Y-9251517D03*
X5526696Y-9251517D03*
X5326696Y-9505517D03*
X5526696Y-9505517D03*
D13*
X5715000Y-12160500D03*
X5715000Y-12350500D03*
X5207000Y-11551238D03*
X5207000Y-11741238D03*
X6921500Y-12859000D03*
X6921500Y-13049000D03*
D16*
X9969500Y-7048500D03*
X7969500Y-7048500D03*
D17*
X8569500Y-8008500D03*
X9379500Y-6608500D03*
X7759500Y-6608500D03*
D15*
X9831099Y-9343241D03*
X9831099Y-9543241D03*
X9831099Y-10051241D03*
X9831099Y-9851241D03*
D12*
X11212500Y-8909050D03*
X11012500Y-8909050D03*
X11212500Y-9112250D03*
X11012500Y-9112250D03*
X11622100Y-7620000D03*
X11822100Y-7620000D03*
D15*
X12382500Y-6564300D03*
X12382500Y-6364300D03*
X10452100Y-7078650D03*
X10452100Y-6878650D03*
X13233400Y-5932500D03*
X13233400Y-6132500D03*
D18*
X3474300Y-8064500D03*
X2850300Y-8064500D03*
D15*
X6552278Y-6690762D03*
X6552278Y-6490762D03*
X6755478Y-6690762D03*
X6755478Y-6490762D03*
X5664200Y-7554900D03*
X5664200Y-7354900D03*
X5461000Y-7554900D03*
X5461000Y-7354900D03*
D19*
X6046400Y-8064500D03*
X6196400Y-8064500D03*
D12*
X6046800Y-8267700D03*
X6246800Y-8267700D03*
D19*
X6021000Y-6718300D03*
X6171000Y-6718300D03*
D20*
X6604000Y-8987536D03*
X6604000Y-9427464D03*
D21*
X16412464Y-5524500D03*
X15972536Y-5524500D03*
X15972536Y-6908800D03*
X16412464Y-6908800D03*
D12*
X13468721Y-9355519D03*
X13268721Y-9355519D03*
X11413849Y-9544841D03*
X11613849Y-9544841D03*
D15*
X4673600Y-13396900D03*
X4673600Y-13196900D03*
D12*
X7456500Y-13398500D03*
X7656500Y-13398500D03*
D15*
X4673600Y-12752400D03*
X4673600Y-12952400D03*
D12*
X7710500Y-12700000D03*
X7910500Y-12700000D03*
X14689150Y-10820400D03*
X14889150Y-10820400D03*
D15*
X12898821Y-8645919D03*
X12898821Y-8845919D03*
D12*
X11413849Y-8909841D03*
X11613849Y-8909841D03*
D22*
X14725650Y-11264900D03*
D23*
X14975650Y-11264900D03*
D24*
X4081018Y-12217400D03*
X4631182Y-12217400D03*
X8276082Y-11341100D03*
X7725918Y-11341100D03*
D19*
X15816650Y-10820400D03*
X15666650Y-10820400D03*
X15222150Y-10820400D03*
X15372150Y-10820400D03*
D24*
X4081018Y-11366500D03*
X4631182Y-11366500D03*
X8276082Y-12192000D03*
X7725918Y-12192000D03*
D22*
X16436150Y-10414000D03*
D23*
X16186150Y-10414000D03*
D22*
X15716250Y-11264900D03*
D23*
X15466250Y-11264900D03*
D12*
X5242795Y-7099300D03*
X5042795Y-7099300D03*
X7316800Y-6515100D03*
X7516800Y-6515100D03*
D15*
X4888795Y-7554846D03*
X4888795Y-7354846D03*
X7112000Y-6704000D03*
X7112000Y-6504000D03*
D12*
X5204695Y-7772346D03*
X5004695Y-7772346D03*
D25*
X5664200Y-8311500D03*
X5664200Y-7817500D03*
D12*
X2614403Y-10791446D03*
X2414403Y-10791446D03*
X2614403Y-10537446D03*
X2414403Y-10537446D03*
D15*
X6121400Y-9028100D03*
X6121400Y-8828100D03*
D12*
X7237400Y-9232900D03*
X7037400Y-9232900D03*
D15*
X5335040Y-10354376D03*
X5335040Y-10554376D03*
X5081040Y-10354376D03*
X5081040Y-10554376D03*
X3505200Y-11517300D03*
X3505200Y-11317300D03*
X2578100Y-12380900D03*
X2578100Y-12180900D03*
X8382000Y-10148900D03*
X8382000Y-10348900D03*
X6121400Y-10475900D03*
X6121400Y-10275900D03*
X4343400Y-10275900D03*
X4343400Y-10475900D03*
D12*
X3303600Y-12026900D03*
X3503600Y-12026900D03*
D26*
X2547000Y-11874500D03*
X3041000Y-11874500D03*
D12*
X2296903Y-12036046D03*
X2096903Y-12036046D03*
X3303600Y-11772900D03*
X3503600Y-11772900D03*
D15*
X7342384Y-10407175D03*
X7342384Y-10607175D03*
D12*
X2296903Y-11782046D03*
X2096903Y-11782046D03*
D15*
X7596384Y-10407175D03*
X7596384Y-10607175D03*
D12*
X7581728Y-9512638D03*
X7781728Y-9512638D03*
X7581728Y-9258638D03*
X7781728Y-9258638D03*
X6694500Y-11239500D03*
X6894500Y-11239500D03*
X7202500Y-11239500D03*
X7402500Y-11239500D03*
X5678500Y-11239500D03*
X5878500Y-11239500D03*
X5170500Y-11239500D03*
X5370500Y-11239500D03*
D15*
X1638300Y-12688900D03*
X1638300Y-12888900D03*
X2768600Y-12752400D03*
X2768600Y-12952400D03*
D26*
X3650600Y-13487400D03*
X3156600Y-13487400D03*
X2507403Y-13496546D03*
X2013403Y-13496546D03*
D15*
X7048500Y-11546238D03*
X7048500Y-11746238D03*
X5524500Y-11546238D03*
X5524500Y-11746238D03*
X7175500Y-12673000D03*
X7175500Y-12473000D03*
D12*
X6422828Y-11722100D03*
X6222828Y-11722100D03*
D15*
X5461000Y-12736500D03*
X5461000Y-12536500D03*
D12*
X6422828Y-11455738D03*
X6222828Y-11455738D03*
X6222828Y-12738100D03*
X6422828Y-12738100D03*
X6222828Y-12992100D03*
X6422828Y-12992100D03*
D15*
X6667500Y-12917500D03*
X6667500Y-13117500D03*
X5969000Y-12917500D03*
X5969000Y-13117500D03*
D25*
X9779000Y-13088000D03*
X9779000Y-13582000D03*
X8255000Y-13088000D03*
X8255000Y-13582000D03*
X11049000Y-13088000D03*
X11049000Y-13582000D03*
X11811000Y-13088000D03*
X11811000Y-13582000D03*
D15*
X9017000Y-11834800D03*
X9017000Y-11634800D03*
X9017000Y-12219000D03*
X9017000Y-12419000D03*
X11811000Y-12192000D03*
X11811000Y-12392000D03*
X11811000Y-11784000D03*
X11811000Y-11584000D03*
X9779000Y-11809400D03*
X9779000Y-11609400D03*
X9779000Y-12219000D03*
X9779000Y-12419000D03*
X11049000Y-12219000D03*
X11049000Y-12419000D03*
X11049000Y-11809400D03*
X11049000Y-11609400D03*
D12*
X10676322Y-11288709D03*
X10476322Y-11288709D03*
X10476322Y-11060109D03*
X10676322Y-11060109D03*
D15*
X9973346Y-11097943D03*
X9973346Y-11297943D03*
D12*
X14943150Y-13792200D03*
X15143150Y-13792200D03*
X13552500Y-13792200D03*
X13752500Y-13792200D03*
D27*
X15113000Y-6208014D03*
X15113000Y-5608066D03*
X14643100Y-5908040D03*
D28*
X14083284Y-6362700D03*
X13653516Y-6362700D03*
D29*
X2170176Y-7740400D03*
X2170176Y-7550400D03*
X1970278Y-7645400D03*
D30*
X4384802Y-5334000D03*
X4174998Y-5334000D03*
D31*
X15741650Y-10565384D03*
X15741650Y-10135616D03*
X14725650Y-10135616D03*
X14725650Y-10565384D03*
X15233650Y-10565384D03*
X15233650Y-10135616D03*
D10*
G36*
X13170326Y-10167350D02*
X13113750Y-10223926D01*
X13057175Y-10167350D01*
X13113750Y-10110775D01*
X13170326Y-10167350D01*
X13170326Y-10167350D01*
G37*
G36*
X13035976Y-10033000D02*
X12979400Y-10089576D01*
X12922824Y-10033000D01*
X12979400Y-9976424D01*
X13035976Y-10033000D01*
X13035976Y-10033000D01*
G37*
G36*
X12961801Y-10241524D02*
X12905226Y-10298100D01*
X12848650Y-10241524D01*
X12905226Y-10184949D01*
X12961801Y-10241524D01*
X12961801Y-10241524D01*
G37*
D30*
X3762502Y-15036800D03*
X3552698Y-15036800D03*
X7216902Y-15046198D03*
X7007098Y-15046198D03*
X9375902Y-15036800D03*
X9166098Y-15036800D03*
X10899902Y-15036800D03*
X10690098Y-15036800D03*
X12420600Y-15036800D03*
X12210796Y-15036800D03*
D29*
X12097000Y-13181076D03*
X12287000Y-13181076D03*
X12192000Y-12981178D03*
X8668000Y-13181076D03*
X8858000Y-13181076D03*
X8763000Y-12981178D03*
X10192000Y-13181076D03*
X10382000Y-13181076D03*
X10287000Y-12981178D03*
X11335000Y-13181076D03*
X11525000Y-13181076D03*
X11430000Y-12981178D03*
D13*
X12979400Y-6127500D03*
X12979400Y-5937500D03*
X12255500Y-5937500D03*
X12255500Y-6127500D03*
D32*
X13373100Y-7002100D03*
X13373100Y-7552100D03*
D33*
X4694600Y-13931900D03*
X4144600Y-13931900D03*
X7768000Y-13906500D03*
X7218000Y-13906500D03*
X8174400Y-5727700D03*
X7624400Y-5727700D03*
D13*
X6121400Y-9531100D03*
X6121400Y-9341100D03*
X2997200Y-12375900D03*
X2997200Y-12185900D03*
D34*
X3562100Y-13931900D03*
X3372100Y-13931900D03*
D13*
X1879600Y-13836900D03*
X1879600Y-14026900D03*
D35*
X9956800Y-6375400D03*
D36*
X10210800Y-6375400D03*
X10464800Y-6375400D03*
X10718800Y-6375400D03*
X10972800Y-6375400D03*
D37*
X12723033Y-9142550D03*
D38*
X12723033Y-9396550D03*
X12723033Y-9650550D03*
D37*
X8077200Y-8166100D03*
D38*
X8077200Y-8420100D03*
X8077200Y-8674100D03*
D39*
X12855490Y-5490254D03*
X12790490Y-5490254D03*
X12725490Y-5490254D03*
X12660490Y-5490254D03*
X12595490Y-5490254D03*
D40*
X12975490Y-5490254D03*
X12475490Y-5490254D03*
D41*
X13075490Y-5220254D03*
X12375490Y-5220254D03*
D42*
X3149403Y-11172446D03*
D43*
X3149403Y-11426446D03*
X2895403Y-11172446D03*
X2895403Y-11426446D03*
X2641403Y-11172446D03*
X2641403Y-11426446D03*
X2387403Y-11172446D03*
X2387403Y-11426446D03*
D29*
X4299200Y-5865876D03*
X4489200Y-5865876D03*
X4394200Y-5665978D03*
D44*
X16002000Y-6493000D03*
X16129000Y-6493000D03*
X16256000Y-6493000D03*
X16383000Y-6493000D03*
X16383000Y-5953000D03*
X16256000Y-5953000D03*
X16129000Y-5953000D03*
X16002000Y-5953000D03*
D45*
X15049500Y-6858000D03*
X15049500Y-6985000D03*
X15049500Y-7112000D03*
X15049500Y-7239000D03*
X15608300Y-7239000D03*
X15608300Y-7112000D03*
X15608300Y-6985000D03*
X15608300Y-6858000D03*
D29*
X3562600Y-14569622D03*
X3752600Y-14569622D03*
X3657600Y-14369724D03*
D13*
X9150350Y-8553200D03*
X9150350Y-8363200D03*
D34*
X8998200Y-7550150D03*
X9188200Y-7550150D03*
D13*
X12331700Y-9068050D03*
X12331700Y-9258050D03*
X12331700Y-9607300D03*
X12331700Y-9417300D03*
D34*
X8153900Y-7886700D03*
X8343900Y-7886700D03*
D13*
X8426450Y-8572250D03*
X8426450Y-8382250D03*
X12827000Y-6369300D03*
X12827000Y-6559300D03*
X12623800Y-6369300D03*
X12623800Y-6559300D03*
X13258800Y-6369300D03*
X13258800Y-6559300D03*
X13055600Y-6559300D03*
X13055600Y-6369300D03*
X12458700Y-5937500D03*
X12458700Y-6127500D03*
D34*
X3549400Y-8458200D03*
X3359400Y-8458200D03*
X3549400Y-8712200D03*
X3359400Y-8712200D03*
X3549400Y-8953500D03*
X3359400Y-8953500D03*
X12134600Y-7823200D03*
X11944600Y-7823200D03*
D13*
X2133600Y-7194800D03*
X2133600Y-7384800D03*
D34*
X6001000Y-6515100D03*
X6191000Y-6515100D03*
D13*
X3263900Y-7258300D03*
X3263900Y-7448300D03*
X4076700Y-5873500D03*
X4076700Y-5683500D03*
D10*
G36*
X4972911Y-5541387D02*
X4880987Y-5633311D01*
X4831489Y-5583813D01*
X4923413Y-5491889D01*
X4972911Y-5541387D01*
X4972911Y-5541387D01*
G37*
G36*
X4838561Y-5407037D02*
X4746637Y-5498961D01*
X4697139Y-5449463D01*
X4789063Y-5357539D01*
X4838561Y-5407037D01*
X4838561Y-5407037D01*
G37*
D13*
X14782800Y-7003800D03*
X14782800Y-6813800D03*
X14782800Y-7334000D03*
X14782800Y-7144000D03*
D34*
X16490700Y-10972800D03*
X16300700Y-10972800D03*
X16173200Y-10972800D03*
X15983200Y-10972800D03*
X3752403Y-14782800D03*
X3562403Y-14782800D03*
D13*
X7035800Y-8782300D03*
X7035800Y-8972300D03*
X5613400Y-8946900D03*
X5613400Y-8756900D03*
X7747000Y-8782300D03*
X7747000Y-8972300D03*
X4851400Y-8946900D03*
X4851400Y-8756900D03*
X8382000Y-9772900D03*
X8382000Y-9962900D03*
X6883400Y-9962900D03*
X6883400Y-9772900D03*
X6121400Y-10064500D03*
X6121400Y-9874500D03*
X4316228Y-9862138D03*
X4316228Y-10052138D03*
X6578600Y-9962900D03*
X6578600Y-9772900D03*
X4570228Y-9862138D03*
X4570228Y-10052138D03*
X5840228Y-9862138D03*
X5840228Y-10052138D03*
X8064500Y-9772900D03*
X8064500Y-9962900D03*
X6883400Y-10153900D03*
X6883400Y-10343900D03*
X5816600Y-10280900D03*
X5816600Y-10470900D03*
X4660900Y-10280900D03*
X4660900Y-10470900D03*
X7366000Y-11551238D03*
X7366000Y-11741238D03*
X7175500Y-12097000D03*
X7175500Y-12287000D03*
X5461000Y-12160500D03*
X5461000Y-12350500D03*
X6731000Y-11551238D03*
X6731000Y-11741238D03*
X6921500Y-12097000D03*
X6921500Y-12287000D03*
X5842000Y-11551238D03*
X5842000Y-11741238D03*
D34*
X3308600Y-12280900D03*
X3498600Y-12280900D03*
X2101903Y-12290046D03*
X2291903Y-12290046D03*
D13*
X6921500Y-12668000D03*
X6921500Y-12478000D03*
X5715000Y-12541500D03*
X5715000Y-12731500D03*
X5715000Y-12922500D03*
X5715000Y-13112500D03*
X6921500Y-13557000D03*
X6921500Y-13367000D03*
X5715000Y-13557000D03*
X5715000Y-13367000D03*
D34*
X7004300Y-14617700D03*
X7194300Y-14617700D03*
D13*
X1917700Y-14338550D03*
X1917700Y-14528550D03*
X6927850Y-14052800D03*
X6927850Y-14242800D03*
X9271000Y-14725400D03*
X9271000Y-14535400D03*
X10795000Y-14725400D03*
X10795000Y-14535400D03*
X12344400Y-14725400D03*
X12344400Y-14535400D03*
X9194800Y-13189200D03*
X9194800Y-13379200D03*
X10591800Y-13360400D03*
X10591800Y-13170400D03*
X12446000Y-13614400D03*
X12446000Y-13424400D03*
X10287000Y-13494000D03*
X10287000Y-13684000D03*
X8763000Y-13494000D03*
X8763000Y-13684000D03*
X11430000Y-13494000D03*
X11430000Y-13684000D03*
X12192000Y-13392400D03*
X12192000Y-13582400D03*
X9525000Y-11639800D03*
X9525000Y-11829800D03*
X9525000Y-12414000D03*
X9525000Y-12224000D03*
X11303000Y-12414000D03*
X11303000Y-12224000D03*
X11303000Y-11804400D03*
X11303000Y-11614400D03*
X9271000Y-11639800D03*
X9271000Y-11829800D03*
X9271000Y-12414000D03*
X9271000Y-12224000D03*
X11557000Y-12414000D03*
X11557000Y-12224000D03*
X11557000Y-11614400D03*
X11557000Y-11804400D03*
X10201946Y-11286343D03*
X10201946Y-11096343D03*
X9744746Y-11292943D03*
X9744746Y-11102943D03*
D46*
X8775700Y-8572500D03*
X8775700Y-8064500D03*
X9537700Y-8572500D03*
X9537700Y-8064500D03*
X9537700Y-7289800D03*
X9537700Y-7797800D03*
X8775700Y-7289800D03*
X8775700Y-7797800D03*
D47*
X10402249Y-8584491D03*
X10452249Y-8584491D03*
X10502249Y-8584491D03*
X10552249Y-8584491D03*
X10602249Y-8584491D03*
X10652249Y-8584491D03*
X10702249Y-8584491D03*
X10752249Y-8584491D03*
X10802249Y-8584491D03*
X10852249Y-8584491D03*
X10902249Y-8584491D03*
X10952249Y-8584491D03*
X11002249Y-8584491D03*
X11052249Y-8584491D03*
X11102249Y-8584491D03*
X11152249Y-8584491D03*
D48*
X11347249Y-8389491D03*
X11347249Y-8339491D03*
X11347249Y-8289491D03*
X11347249Y-8239491D03*
X11347249Y-8189491D03*
X11347249Y-8139491D03*
X11347249Y-8089491D03*
X11347249Y-8039491D03*
X11347249Y-7989491D03*
X11347249Y-7939491D03*
X11347249Y-7889491D03*
X11347249Y-7839491D03*
X11347249Y-7789491D03*
X11347249Y-7739491D03*
X11347249Y-7689491D03*
X11347249Y-7639491D03*
D47*
X11152249Y-7444491D03*
X11102249Y-7444491D03*
X11052249Y-7444491D03*
X11002249Y-7444491D03*
X10952249Y-7444491D03*
X10902249Y-7444491D03*
X10852249Y-7444491D03*
X10802249Y-7444491D03*
X10752249Y-7444491D03*
X10702249Y-7444491D03*
X10652249Y-7444491D03*
X10602249Y-7444491D03*
X10552249Y-7444491D03*
X10502249Y-7444491D03*
X10452249Y-7444491D03*
X10402249Y-7444491D03*
D48*
X10207249Y-7639491D03*
X10207249Y-7689491D03*
X10207249Y-7739491D03*
X10207249Y-7789491D03*
X10207249Y-7839491D03*
X10207249Y-7889491D03*
X10207249Y-7939491D03*
X10207249Y-7989491D03*
X10207249Y-8039491D03*
X10207249Y-8089491D03*
X10207249Y-8139491D03*
X10207249Y-8189491D03*
X10207249Y-8239491D03*
X10207249Y-8289491D03*
X10207249Y-8339491D03*
X10207249Y-8389491D03*
D49*
X12820400Y-5922500D03*
X12725400Y-5922500D03*
X12630400Y-5922500D03*
X12630400Y-6142500D03*
X12820400Y-6142500D03*
X12725400Y-6142500D03*
D50*
X6810600Y-6967900D03*
X6745600Y-6967900D03*
X6680600Y-6967900D03*
X6615600Y-6967900D03*
X6550600Y-6967900D03*
X6485600Y-6967900D03*
X6420600Y-6967900D03*
X6355600Y-6967900D03*
X6290600Y-6967900D03*
X6225600Y-6967900D03*
X6160600Y-6967900D03*
X6095600Y-6967900D03*
X6030600Y-6967900D03*
X5965600Y-6967900D03*
X5965600Y-7687900D03*
X6030600Y-7687900D03*
X6095600Y-7687900D03*
X6160600Y-7687900D03*
X6225600Y-7687900D03*
X6290600Y-7687900D03*
X6355600Y-7687900D03*
X6420600Y-7687900D03*
X6485600Y-7687900D03*
X6550600Y-7687900D03*
X6615600Y-7687900D03*
X6680600Y-7687900D03*
X6745600Y-7687900D03*
X6810600Y-7687900D03*
D51*
X2447800Y-7251700D03*
X2447800Y-7378700D03*
X2447800Y-7505700D03*
X2447800Y-7632700D03*
X2987800Y-7632700D03*
X2987800Y-7505700D03*
X2987800Y-7378700D03*
X2987800Y-7251700D03*
D52*
X4102100Y-13081000D03*
X4102100Y-13335000D03*
X4102100Y-12827000D03*
X7683500Y-13081000D03*
X7937500Y-13081000D03*
X7429500Y-13081000D03*
D44*
X13241721Y-9054019D03*
X13368721Y-9054019D03*
X13495721Y-9054019D03*
X13622721Y-9054019D03*
X13622721Y-8514019D03*
X13495721Y-8514019D03*
X13368721Y-8514019D03*
X13241721Y-8514019D03*
D49*
X11418849Y-9337341D03*
X11513849Y-9337341D03*
X11608849Y-9337341D03*
X11608849Y-9117341D03*
X11418849Y-9117341D03*
D53*
X7539500Y-6914900D03*
X7539500Y-6819900D03*
X7539500Y-6724900D03*
X7319500Y-6724900D03*
X7319500Y-6914900D03*
D49*
X5263195Y-7344846D03*
X5168195Y-7344846D03*
X5073195Y-7344846D03*
X5073195Y-7564846D03*
X5263195Y-7564846D03*
D51*
X7761228Y-10147638D03*
X7761228Y-10020638D03*
X7761228Y-9893638D03*
X7761228Y-9766638D03*
X7221228Y-9766638D03*
X7221228Y-9893638D03*
X7221228Y-10020638D03*
X7221228Y-10147638D03*
X5475228Y-10147638D03*
X5475228Y-10020638D03*
X5475228Y-9893638D03*
X5475228Y-9766638D03*
X4935228Y-9766638D03*
X4935228Y-9893638D03*
X4935228Y-10020638D03*
X4935228Y-10147638D03*
X3673403Y-12988546D03*
X3673403Y-12861546D03*
X3673403Y-12734546D03*
X3673403Y-12607546D03*
X3133403Y-12607546D03*
X3133403Y-12734546D03*
X3133403Y-12861546D03*
X3133403Y-12988546D03*
X2466903Y-12988546D03*
X2466903Y-12861546D03*
X2466903Y-12734546D03*
X2466903Y-12607546D03*
X1926903Y-12607546D03*
X1926903Y-12734546D03*
X1926903Y-12861546D03*
X1926903Y-12988546D03*
X6592828Y-12408238D03*
X6592828Y-12281238D03*
X6592828Y-12154238D03*
X6592828Y-12027238D03*
X6052828Y-12027238D03*
X6052828Y-12154238D03*
X6052828Y-12281238D03*
X6052828Y-12408238D03*
D54*
X10186699Y-10182127D03*
X10186699Y-9212355D03*
D55*
X10274300Y-7085400D03*
X10274300Y-6935400D03*
D19*
X11736000Y-8293100D03*
X11886000Y-8293100D03*
X11615350Y-7442200D03*
X11765350Y-7442200D03*
D55*
X9918700Y-8488750D03*
X9918700Y-8338750D03*
D19*
X3023800Y-8470900D03*
X3173800Y-8470900D03*
D56*
X11722650Y-7893050D03*
X11632650Y-7893050D03*
D57*
X3149600Y-14579600D03*
X2336800Y-14579600D03*
D17*
X3048000Y-13970000D03*
X2438400Y-13970000D03*
D58*
X2743200Y-13995400D03*
X2743200Y-14249400D03*
D57*
X6718300Y-14579600D03*
X5905500Y-14579600D03*
D17*
X6616700Y-13970000D03*
X6007100Y-13970000D03*
D58*
X6311900Y-13995400D03*
X6311900Y-14249400D03*
D57*
X11963400Y-14579600D03*
X11150600Y-14579600D03*
D17*
X11861800Y-13970000D03*
X11252200Y-13970000D03*
D58*
X11557000Y-13995400D03*
X11557000Y-14249400D03*
D57*
X8915400Y-14579600D03*
X8102600Y-14579600D03*
D17*
X8813800Y-13970000D03*
X8204200Y-13970000D03*
D58*
X8509000Y-13995400D03*
X8509000Y-14249400D03*
D57*
X10439400Y-14579600D03*
X9626600Y-14579600D03*
D17*
X10337800Y-13970000D03*
X9728200Y-13970000D03*
D58*
X10033000Y-13995400D03*
X10033000Y-14249400D03*
D35*
X6578600Y-13550900D03*
D36*
X6324600Y-13550900D03*
X6070600Y-13550900D03*
D59*
X7282400Y-9486900D03*
X6992400Y-9486900D03*
X5072600Y-9486900D03*
X4782600Y-9486900D03*
D60*
X2641403Y-10074946D03*
X2641403Y-10364946D03*
X2323903Y-10074946D03*
X2323903Y-10364946D03*
D29*
X12249400Y-14349476D03*
X12439400Y-14349476D03*
X12344400Y-14149578D03*
X9201400Y-14298676D03*
X9391400Y-14298676D03*
X9296400Y-14098778D03*
X10700000Y-14324076D03*
X10890000Y-14324076D03*
X10795000Y-14124178D03*
D34*
X12249400Y-13919200D03*
X12439400Y-13919200D03*
X9176000Y-13589000D03*
X9366000Y-13589000D03*
X10547600Y-13589000D03*
X10737600Y-13589000D03*
D52*
X15586450Y-9398300D03*
X15236450Y-9398300D03*
X14886450Y-9398300D03*
X15936450Y-9398300D03*
X15586450Y-7848300D03*
X15236450Y-7848300D03*
X14886450Y-7848300D03*
X15936450Y-7848300D03*
D61*
X9956800Y-7721600D03*
D62*
X10960100Y-6972300D03*
X10810100Y-6972300D03*
D63*
X15598250Y-7486650D03*
X16088250Y-7486650D03*
D29*
X9169650Y-9193276D03*
X9359650Y-9193276D03*
X9264650Y-8993378D03*
D13*
X1625600Y-14351500D03*
X1625600Y-14541500D03*
D34*
X9525250Y-9067800D03*
X9715250Y-9067800D03*
D64*
X11100000Y-6930000D03*
X11100000Y-6840000D03*
X11490000Y-6925000D03*
X11490000Y-6835000D03*
X11360000Y-6925000D03*
X11360000Y-6835000D03*
X11230000Y-6930000D03*
X11230000Y-6840000D03*
D65*
X16268700Y-12065000D03*
X13963650Y-7023100D03*
X13963650Y-7372350D03*
X15601950Y-12071350D03*
X14897100Y-12084050D03*
X12807950Y-8166100D03*
X11372850Y-10287000D03*
X5403850Y-11963400D03*
X8318500Y-10756900D03*
X13169900Y-10579100D03*
X6940550Y-6324600D03*
X4425950Y-8102600D03*
D66*
X13538200Y-14655800D03*
X13792200Y-14655800D03*
X13284200Y-14655800D03*
D67*
X15621000Y-14655800D03*
X15875000Y-14655800D03*
X15367000Y-14655800D03*
D65*
X11658600Y-10541000D03*
D68*
X10299700Y-7442200D03*
X7112000Y-6985000D03*
X7162800Y-7289800D03*
X6934200Y-6578600D03*
X6625640Y-7441002D03*
X11780000Y-6600000D03*
X11600000Y-6440000D03*
X2235200Y-10820400D03*
X8483600Y-6756400D03*
X9144000Y-7188200D03*
X9194800Y-6769100D03*
X8775700Y-6464300D03*
X8674100Y-6362700D03*
X8382000Y-6654800D03*
X4627101Y-5735025D03*
X11112500Y-7899400D03*
X7670800Y-6350000D03*
X13081000Y-9080500D03*
X2717800Y-7772400D03*
X3632200Y-11899900D03*
X9791700Y-8318500D03*
X1651000Y-13081000D03*
X2914650Y-13119100D03*
X2755900Y-11874500D03*
X1936750Y-11925300D03*
X12179300Y-6311900D03*
X12039600Y-7543800D03*
X12725400Y-5791200D03*
X11010900Y-9613900D03*
X10490200Y-9613900D03*
X12814300Y-12585700D03*
X13119100Y-12268200D03*
X10871200Y-10769600D03*
X13258800Y-12496800D03*
X5588000Y-6985000D03*
X5765800Y-7213600D03*
X4978400Y-7239000D03*
X5384800Y-7061200D03*
X6299200Y-6629400D03*
X13919200Y-13792200D03*
X15341600Y-13792200D03*
X10896600Y-8229600D03*
X11328400Y-8534400D03*
X6388100Y-9042400D03*
X6391026Y-9334500D03*
X6743700Y-9677400D03*
X11595100Y-9791700D03*
X10998200Y-9423400D03*
X5321300Y-8318500D03*
X4800600Y-8318500D03*
X4800600Y-7874000D03*
X4775200Y-11798300D03*
X4521200Y-11798300D03*
X7886700Y-10922000D03*
X8585200Y-12776200D03*
X3048000Y-10960100D03*
X8509000Y-14732000D03*
X10033000Y-14732000D03*
X11582400Y-14706600D03*
X9144000Y-12039600D03*
X9550400Y-11303000D03*
X10871200Y-11176000D03*
X11709400Y-12014200D03*
X10058400Y-12776200D03*
X11226800Y-12776200D03*
X11912600Y-12776200D03*
X5867400Y-7454900D03*
X6350000Y-7429500D03*
X5461000Y-11391900D03*
X7048500Y-11366500D03*
X6578600Y-12738100D03*
X6299200Y-11950700D03*
X7467600Y-10782300D03*
X7950200Y-9385300D03*
X5207000Y-10731500D03*
X5689600Y-9385300D03*
X3835400Y-8915400D03*
X10259774Y-7269927D03*
X12299702Y-7823200D03*
X11607800Y-8343900D03*
X9956800Y-5562600D03*
X10071100Y-8572500D03*
X12103100Y-8293100D03*
X6997700Y-14820900D03*
X4787900Y-8102600D03*
X4597400Y-9258300D03*
X5791200Y-6718300D03*
X6807200Y-8902700D03*
X15252700Y-7264400D03*
X15303500Y-7086600D03*
X15303500Y-6908800D03*
X15532100Y-6540500D03*
X15417800Y-6540500D03*
X15303500Y-6540500D03*
X15189200Y-6540500D03*
X15113000Y-7404100D03*
X15532100Y-6705600D03*
X15189200Y-6705600D03*
X15303500Y-6705600D03*
X14071600Y-10134600D03*
X15417800Y-6705600D03*
X16408400Y-7289800D03*
X15671800Y-5524500D03*
X15386050Y-11061700D03*
X15030450Y-11061700D03*
X6286500Y-12382500D03*
X4673600Y-12446000D03*
X6324600Y-9690100D03*
X5207000Y-10096500D03*
X7467600Y-10121900D03*
X6350000Y-12128500D03*
X8001000Y-11747500D03*
X5207137Y-9378676D03*
X7442200Y-9385300D03*
X14725650Y-11112500D03*
X16281400Y-10591800D03*
X11959360Y-6242070D03*
X15310450Y-11214100D03*
X7416800Y-7073900D03*
X5486400Y-7150100D03*
X6451600Y-13804900D03*
X5679215Y-13795883D03*
X9499600Y-13792200D03*
X8077200Y-13817600D03*
X11124498Y-14165796D03*
X11049000Y-13843000D03*
X9105900Y-11328400D03*
X11849100Y-8610600D03*
X9994900Y-12560300D03*
X11950700Y-8750300D03*
X11087100Y-12617450D03*
X10985500Y-11417300D03*
X10985500Y-10350500D03*
X10674350Y-10045700D03*
X13550900Y-14312900D03*
X11104807Y-10604348D03*
X10680700Y-9874250D03*
X3835400Y-8458200D03*
X9855200Y-7454900D03*
X3822700Y-8712200D03*
X9969500Y-7289800D03*
X3556000Y-9144000D03*
X9474200Y-6908800D03*
X2921000Y-12573000D03*
X1854200Y-11328400D03*
X12039600Y-5664200D03*
X13919200Y-5664200D03*
X15585186Y-6208014D03*
X15741650Y-9740900D03*
X14725650Y-9740900D03*
X15233650Y-9842500D03*
X12503295Y-10244203D03*
X15036800Y-11938000D03*
X14401800Y-11938000D03*
X12242800Y-9779000D03*
X10643599Y-9004703D03*
X13300000Y-7240000D03*
X10867113Y-7195274D03*
X11757502Y-6788575D03*
X10687103Y-7023100D03*
X11642895Y-6574203D03*
X10642100Y-6878658D03*
X11813924Y-6914637D03*
X10919984Y-6790347D03*
X2641600Y-9817100D03*
X12319000Y-6959600D03*
X12725400Y-7480300D03*
X11811000Y-8115300D03*
X2324100Y-9817100D03*
X12141200Y-6921500D03*
X12547600Y-7556500D03*
X11666714Y-8100918D03*
X9715500Y-8458200D03*
X9664700Y-9309100D03*
X8966200Y-14249400D03*
X9880600Y-9169400D03*
X8877300Y-12026900D03*
X10414000Y-14238498D03*
X8911259Y-12614449D03*
X9525000Y-13182600D03*
X10033000Y-8864600D03*
X12039600Y-14173200D03*
X7378700Y-8204200D03*
X7416800Y-7581900D03*
X8813800Y-6121400D03*
X9118600Y-5842000D03*
X11480800Y-7340600D03*
X11137900Y-7607300D03*
X2457450Y-14255750D03*
X4406900Y-9371098D03*
X8934450Y-9169400D03*
D69*
X3124200Y-9461500D02*
X4692200Y-9461500D01*
D70*
X10337800Y-8229600D02*
X10337800Y-7480300D01*
X10337800Y-7480300D02*
X10299700Y-7442200D01*
X10402249Y-8294049D02*
X10337800Y-8229600D01*
X10402249Y-8584491D02*
X10402249Y-8294049D01*
D69*
X7162800Y-7289800D02*
X7162800Y-7035800D01*
X7162800Y-7035800D02*
X7112000Y-6985000D01*
X7329500Y-7239000D02*
X7213600Y-7239000D01*
X7213600Y-7239000D02*
X7162800Y-7289800D01*
X6934200Y-6490762D02*
X7098762Y-6490762D01*
X6755478Y-6490762D02*
X6934200Y-6490762D01*
X6934200Y-6490762D02*
X6934200Y-6578600D01*
X6625640Y-7504642D02*
X6625640Y-7441002D01*
X6624582Y-7505700D02*
X6625640Y-7504642D01*
X6616700Y-7505700D02*
X6624582Y-7505700D01*
X7329500Y-7239000D02*
X7289800Y-7239000D01*
X7516800Y-6515100D02*
X7516800Y-6504000D01*
X7516800Y-6504000D02*
X7670800Y-6350000D01*
X11987560Y-6440000D02*
X11770000Y-6440000D01*
X11770000Y-6440000D02*
X11600000Y-6440000D01*
X11770000Y-6440000D02*
X11770000Y-6590000D01*
X11770000Y-6590000D02*
X11780000Y-6600000D01*
X12179300Y-6311900D02*
X12115660Y-6311900D01*
X12115660Y-6311900D02*
X11987560Y-6440000D01*
D70*
X6616700Y-7505700D02*
X6781800Y-7505700D01*
X6451600Y-7505700D02*
X6616700Y-7505700D01*
D69*
X2414403Y-10791446D02*
X2264154Y-10791446D01*
X2264154Y-10791446D02*
X2235200Y-10820400D01*
X3175000Y-8205300D02*
X3175000Y-8064500D01*
X3175000Y-8064500D02*
X3175000Y-7889900D01*
X3474300Y-8064500D02*
X3315800Y-8064500D01*
X3315800Y-8064500D02*
X3175000Y-8064500D01*
X3175000Y-7889900D02*
X2987800Y-7702700D01*
X2987800Y-7702700D02*
X2987800Y-7632700D01*
X3173800Y-8470900D02*
X3173800Y-8206500D01*
X3173800Y-8206500D02*
X3175000Y-8205300D01*
X8775700Y-6464300D02*
X8483600Y-6756400D01*
X9194800Y-6769100D02*
X9194800Y-7137400D01*
X9194800Y-7137400D02*
X9144000Y-7188200D01*
X8674100Y-6362700D02*
X8775700Y-6464300D01*
X8382000Y-6654800D02*
X8674100Y-6362700D01*
X7969500Y-7048500D02*
X8363200Y-6654800D01*
X8363200Y-6654800D02*
X8382000Y-6654800D01*
X10452100Y-6878650D02*
X10452100Y-6845300D01*
X10452100Y-6845300D02*
X10464800Y-6832600D01*
X10464800Y-6375400D02*
X10464800Y-6865950D01*
X10464800Y-6865950D02*
X10452100Y-6878650D01*
X10274300Y-6935400D02*
X10395350Y-6935400D01*
X10395350Y-6935400D02*
X10452100Y-6878650D01*
X10452100Y-6388100D02*
X10464800Y-6375400D01*
D70*
X11747500Y-8496300D02*
X11886000Y-8357800D01*
X11886000Y-8357800D02*
X11886000Y-8293100D01*
X11604058Y-8496300D02*
X11747500Y-8496300D01*
X11347249Y-8339491D02*
X11447249Y-8339491D01*
X11447249Y-8339491D02*
X11604058Y-8496300D01*
D69*
X4540046Y-5735025D02*
X4627101Y-5735025D01*
X4489200Y-5865876D02*
X4489200Y-5785871D01*
X4489200Y-5785871D02*
X4540046Y-5735025D01*
D70*
X11226800Y-8013700D02*
X11112500Y-7899400D01*
X11226800Y-8319042D02*
X11226800Y-8013700D01*
X11347249Y-8339491D02*
X11247249Y-8339491D01*
X11247249Y-8339491D02*
X11226800Y-8319042D01*
D69*
X13241721Y-9054019D02*
X13107481Y-9054019D01*
X13107481Y-9054019D02*
X13081000Y-9080500D01*
X13241721Y-9054019D02*
X13241721Y-9006519D01*
X13241721Y-9006519D02*
X13081121Y-8845919D01*
X13081121Y-8845919D02*
X12898821Y-8845919D01*
X13241721Y-9054019D02*
X13241721Y-9328519D01*
X13241721Y-9328519D02*
X13268721Y-9355519D01*
X2987800Y-7632700D02*
X2857500Y-7632700D01*
X2857500Y-7632700D02*
X2717800Y-7772400D01*
X3503600Y-11899900D02*
X3503600Y-11772900D01*
X3503600Y-12026900D02*
X3503600Y-11899900D01*
X3503600Y-11899900D02*
X3632200Y-11899900D01*
X9150350Y-8553200D02*
X9150350Y-8750300D01*
X9150350Y-8750300D02*
X9150350Y-9031088D01*
X8282300Y-8677700D02*
X8354900Y-8750300D01*
X8140700Y-8677700D02*
X8282300Y-8677700D01*
X8354900Y-8750300D02*
X9150350Y-8750300D01*
X9150350Y-9031088D02*
X9312538Y-9193276D01*
X9312538Y-9193276D02*
X9359650Y-9193276D01*
D70*
X9811950Y-8338750D02*
X9791700Y-8318500D01*
X9918700Y-8338750D02*
X9811950Y-8338750D01*
D69*
X1638300Y-12888900D02*
X1638300Y-13068300D01*
X1638300Y-13068300D02*
X1651000Y-13081000D01*
X2768600Y-12952400D02*
X2768600Y-12973050D01*
X2768600Y-12973050D02*
X2914650Y-13119100D01*
X9359650Y-9193276D02*
X9359650Y-9273281D01*
X9728599Y-9543241D02*
X9831099Y-9543241D01*
X9359650Y-9273281D02*
X9629610Y-9543241D01*
X9629610Y-9543241D02*
X9728599Y-9543241D01*
X2547000Y-11874500D02*
X2755900Y-11874500D01*
X2096903Y-11925300D02*
X2096903Y-12036046D01*
X2096903Y-11782046D02*
X2096903Y-11925300D01*
X2096903Y-11925300D02*
X1936750Y-11925300D01*
X12255500Y-6237300D02*
X12253900Y-6237300D01*
X12253900Y-6237300D02*
X12179300Y-6311900D01*
D70*
X11961400Y-7620000D02*
X11963400Y-7620000D01*
X11963400Y-7620000D02*
X12039600Y-7543800D01*
X11822100Y-7620000D02*
X11961400Y-7620000D01*
X11961400Y-7620000D02*
X12134600Y-7793200D01*
X12134600Y-7793200D02*
X12134600Y-7823200D01*
D69*
X12725400Y-5922500D02*
X12725400Y-5985000D01*
X13130900Y-6042500D02*
X13220900Y-6132500D01*
X12725400Y-5985000D02*
X12782900Y-6042500D01*
X12782900Y-6042500D02*
X13130900Y-6042500D01*
X13220900Y-6132500D02*
X13233400Y-6132500D01*
X12255500Y-6127500D02*
X12255500Y-6237300D01*
X12255500Y-6237300D02*
X12382500Y-6364300D01*
X12725400Y-5922500D02*
X12725400Y-5791200D01*
X13258800Y-6369300D02*
X13258800Y-6157900D01*
X13258800Y-6157900D02*
X13233400Y-6132500D01*
D70*
X9831099Y-9543241D02*
X9831099Y-9851241D01*
X11765350Y-7442200D02*
X11765350Y-7563250D01*
X11765350Y-7563250D02*
X11822100Y-7620000D01*
X10207249Y-8339491D02*
X9919441Y-8339491D01*
X9919441Y-8339491D02*
X9918700Y-8338750D01*
D69*
X3149600Y-14579600D02*
X3149600Y-14935200D01*
X3149600Y-14935200D02*
X3251200Y-15036800D01*
X3251200Y-15036800D02*
X3552698Y-15036800D01*
X7098762Y-6490762D02*
X7112000Y-6504000D01*
X6552278Y-6490762D02*
X6755478Y-6490762D01*
D70*
X6781800Y-7505700D02*
X6810600Y-7534500D01*
X6810600Y-7534500D02*
X6810600Y-7575400D01*
X6810600Y-7575400D02*
X6810600Y-7687900D01*
X6420600Y-7536700D02*
X6451600Y-7505700D01*
X6420600Y-7687900D02*
X6420600Y-7536700D01*
D69*
X7493000Y-6388100D02*
X7516800Y-6411900D01*
X7516800Y-6411900D02*
X7516800Y-6515100D01*
X7137900Y-6388100D02*
X7493000Y-6388100D01*
X7112000Y-6504000D02*
X7112000Y-6414000D01*
X7112000Y-6414000D02*
X7137900Y-6388100D01*
X7426800Y-6530500D02*
X7442200Y-6515100D01*
X7442200Y-6515100D02*
X7516800Y-6515100D01*
X7539500Y-6819900D02*
X7446500Y-6819900D01*
X7446500Y-6819900D02*
X7426800Y-6800200D01*
X7426800Y-6800200D02*
X7426800Y-6530500D01*
X7540600Y-6491300D02*
X7516800Y-6515100D01*
X1926903Y-12861546D02*
X1589454Y-12861546D01*
X2768600Y-12952400D02*
X2871100Y-12952400D01*
X2871100Y-12952400D02*
X2961954Y-12861546D01*
X2961954Y-12861546D02*
X3015903Y-12861546D01*
X3015903Y-12861546D02*
X3133403Y-12861546D01*
X2614403Y-10537446D02*
X2614403Y-10591446D01*
X2614403Y-10591446D02*
X2414403Y-10791446D01*
D70*
X10186699Y-9037349D02*
X10186699Y-9212355D01*
X10491734Y-8907320D02*
X10316728Y-8907320D01*
X10602249Y-8796805D02*
X10491734Y-8907320D01*
X10602249Y-8584491D02*
X10602249Y-8796805D01*
X10316728Y-8907320D02*
X10186699Y-9037349D01*
X9831099Y-9343241D02*
X10055813Y-9343241D01*
X10055813Y-9343241D02*
X10186699Y-9212355D01*
X10652249Y-8584491D02*
X10652249Y-8861700D01*
X10369949Y-9144000D02*
X10369949Y-9693842D01*
X10652249Y-8861700D02*
X10369949Y-9144000D01*
X10369949Y-9693842D02*
X10186699Y-9877092D01*
X10186699Y-9877092D02*
X10186699Y-10182127D01*
X9831099Y-10051241D02*
X10055813Y-10051241D01*
X10055813Y-10051241D02*
X10186699Y-10182127D01*
D69*
X13792200Y-14986000D02*
X12827000Y-14986000D01*
X12827000Y-14986000D02*
X12496800Y-14655800D01*
X12496800Y-14655800D02*
X12471400Y-14630400D01*
X13792200Y-14986000D02*
X15544800Y-14986000D01*
X13792200Y-14655800D02*
X13792200Y-14986000D01*
X15544800Y-14986000D02*
X15875000Y-14655800D01*
X11214100Y-9613900D02*
X11214100Y-10287000D01*
X11214100Y-10287000D02*
X11214100Y-10363200D01*
X11372850Y-10287000D02*
X11292028Y-10287000D01*
X11292028Y-10287000D02*
X11214100Y-10287000D01*
X11214100Y-9216350D02*
X11214100Y-9613900D01*
X11010900Y-9613900D02*
X11214100Y-9613900D01*
X10477500Y-9626600D02*
X10490200Y-9613900D01*
X10477500Y-10452100D02*
X10477500Y-9626600D01*
X10201946Y-11096343D02*
X10440088Y-11096343D01*
X10440088Y-11096343D02*
X10476322Y-11060109D01*
X10414000Y-11455400D02*
X10476322Y-11393078D01*
X10476322Y-11393078D02*
X10476322Y-11288709D01*
X10414000Y-11811000D02*
X10414000Y-11455400D01*
X10316600Y-11908400D02*
X10414000Y-11811000D01*
X10314000Y-11908400D02*
X10316600Y-11908400D01*
X10477500Y-10956431D02*
X10477500Y-10452100D01*
X10476322Y-11060109D02*
X10476322Y-10957609D01*
X10476322Y-10957609D02*
X10477500Y-10956431D01*
D70*
X11212500Y-8909050D02*
X11413058Y-8909050D01*
X11413058Y-8909050D02*
X11413849Y-8909841D01*
D69*
X11214100Y-10363200D02*
X13119100Y-12268200D01*
X11212500Y-9112250D02*
X11212500Y-9214750D01*
X11212500Y-9214750D02*
X11214100Y-9216350D01*
X11212500Y-8909050D02*
X11212500Y-9112250D01*
D70*
X11002249Y-8584491D02*
X11002249Y-8698799D01*
X11212500Y-8896550D02*
X11212500Y-8909050D01*
X11002249Y-8698799D02*
X11125000Y-8821550D01*
X11125000Y-8821550D02*
X11137500Y-8821550D01*
X11137500Y-8821550D02*
X11212500Y-8896550D01*
D69*
X12439400Y-13919200D02*
X12439400Y-13889200D01*
X12439400Y-13889200D02*
X12551000Y-13777600D01*
X12476000Y-13424400D02*
X12446000Y-13424400D01*
X12551000Y-13777600D02*
X12551000Y-13499400D01*
X12551000Y-13499400D02*
X12476000Y-13424400D01*
X12446000Y-13260071D02*
X12407900Y-13221971D01*
X12407900Y-13221971D02*
X12367005Y-13181076D01*
X12814300Y-12585700D02*
X12814300Y-12815571D01*
X12814300Y-12815571D02*
X12407900Y-13221971D01*
X8858000Y-13181076D02*
X8991600Y-13181076D01*
X8991600Y-13181076D02*
X9186676Y-13181076D01*
X8922700Y-13569000D02*
X8991600Y-13500100D01*
X8991600Y-13500100D02*
X8991600Y-13181076D01*
X6957850Y-14052800D02*
X6971550Y-14066500D01*
X8587995Y-13490995D02*
X8666000Y-13569000D01*
X8398500Y-12929500D02*
X8587995Y-13118995D01*
X8666000Y-13569000D02*
X8922700Y-13569000D01*
X6927850Y-14052800D02*
X6957850Y-14052800D01*
X6971550Y-14066500D02*
X7325000Y-14066500D01*
X8587995Y-13118995D02*
X8587995Y-13490995D01*
X8103500Y-13288000D02*
X8103500Y-12937500D01*
X7325000Y-14066500D02*
X8103500Y-13288000D01*
X8103500Y-12937500D02*
X8111500Y-12929500D01*
X8111500Y-12929500D02*
X8398500Y-12929500D01*
X11418849Y-9117341D02*
X11418849Y-8914841D01*
D70*
X11418849Y-8914841D02*
X11413849Y-8909841D01*
D69*
X12446000Y-13424400D02*
X12446000Y-13260071D01*
X12367005Y-13181076D02*
X12287000Y-13181076D01*
X12031999Y-13482999D02*
X12031999Y-13612399D01*
X12031999Y-13612399D02*
X12087000Y-13667400D01*
X12416000Y-13424400D02*
X12446000Y-13424400D01*
X12087000Y-13667400D02*
X12297000Y-13667400D01*
X12297000Y-13667400D02*
X12331000Y-13633400D01*
X12331000Y-13633400D02*
X12331000Y-13509400D01*
X12331000Y-13509400D02*
X12416000Y-13424400D01*
X9366000Y-13589000D02*
X9366000Y-13252200D01*
X9366000Y-13252200D02*
X9303000Y-13189200D01*
X9303000Y-13189200D02*
X9194800Y-13189200D01*
X9186676Y-13181076D02*
X9194800Y-13189200D01*
X10591800Y-13170400D02*
X10392676Y-13170400D01*
X10392676Y-13170400D02*
X10382000Y-13181076D01*
X10737600Y-13589000D02*
X10737600Y-13201400D01*
X10737600Y-13201400D02*
X10706600Y-13170400D01*
X10706600Y-13170400D02*
X10591800Y-13170400D01*
X11684000Y-14478000D02*
X11455400Y-14478000D01*
X11455400Y-14478000D02*
X11303000Y-14325600D01*
X11811000Y-14351000D02*
X11684000Y-14478000D01*
X12065000Y-14351000D02*
X11811000Y-14351000D01*
X12229400Y-14515400D02*
X12065000Y-14351000D01*
X12242800Y-14630400D02*
X12229400Y-14617000D01*
X12229400Y-14617000D02*
X12229400Y-14515400D01*
X10980005Y-14180405D02*
X10980005Y-14325600D01*
X10980005Y-14325600D02*
X10980005Y-14454195D01*
X12344400Y-14149578D02*
X12424405Y-14149578D01*
X12547600Y-14554200D02*
X12471400Y-14630400D01*
X12424405Y-14149578D02*
X12547600Y-14272773D01*
X12547600Y-14272773D02*
X12547600Y-14554200D01*
X12471400Y-14630400D02*
X12242800Y-14630400D01*
X11303000Y-14325600D02*
X10980005Y-14325600D01*
X10795000Y-14124178D02*
X10875005Y-14124178D01*
X10875005Y-14124178D02*
X10876783Y-14122400D01*
X10906600Y-14620400D02*
X10690000Y-14620400D01*
X10639400Y-14449400D02*
X10541000Y-14351000D01*
X10876783Y-14122400D02*
X10922000Y-14122400D01*
X10639400Y-14569800D02*
X10639400Y-14449400D01*
X10922000Y-14122400D02*
X10980005Y-14180405D01*
X10541000Y-14351000D02*
X10261600Y-14351000D01*
X10980005Y-14454195D02*
X10922000Y-14512200D01*
X10922000Y-14512200D02*
X10922000Y-14605000D01*
X10690000Y-14620400D02*
X10639400Y-14569800D01*
X9501378Y-14098778D02*
X9296400Y-14098778D01*
X10922000Y-14605000D02*
X10906600Y-14620400D01*
X10261600Y-14351000D02*
X10160000Y-14452600D01*
X10160000Y-14452600D02*
X9855200Y-14452600D01*
X9855200Y-14452600D02*
X9501378Y-14098778D01*
X9366000Y-13722600D02*
X9296400Y-13792200D01*
X9296400Y-13792200D02*
X9296400Y-14098778D01*
X9366000Y-13589000D02*
X9366000Y-13722600D01*
X10737600Y-13589000D02*
X10737600Y-14066778D01*
X10737600Y-14066778D02*
X10795000Y-14124178D01*
X12344400Y-14149578D02*
X12344400Y-14014200D01*
X12344400Y-14014200D02*
X12439400Y-13919200D01*
X11525000Y-13261081D02*
X11677419Y-13413500D01*
X11525000Y-13181076D02*
X11525000Y-13261081D01*
X11677419Y-13413500D02*
X11962500Y-13413500D01*
X11962500Y-13413500D02*
X12031999Y-13482999D01*
X10473956Y-11286343D02*
X10476322Y-11288709D01*
X10476322Y-11288709D02*
X10476322Y-11060109D01*
X10144000Y-11963400D02*
X10259000Y-11963400D01*
X10259000Y-11963400D02*
X10314000Y-11908400D01*
X10871200Y-10896600D02*
X10871200Y-10769600D01*
D71*
X13258800Y-12141200D02*
X13258800Y-12496800D01*
X11715750Y-10598150D02*
X13258800Y-12141200D01*
X11658600Y-10541000D02*
X11715750Y-10598150D01*
D69*
X5588000Y-6985000D02*
X5524360Y-6985000D01*
X5524360Y-6985000D02*
X5522561Y-6986800D01*
X5522561Y-6986800D02*
X5488428Y-6986800D01*
X5765800Y-7213600D02*
X5765800Y-7162800D01*
X5765800Y-7162800D02*
X5588000Y-6985000D01*
X5664200Y-7213600D02*
X5664200Y-7162572D01*
X5664200Y-7354900D02*
X5664200Y-7213600D01*
X5664200Y-7213600D02*
X5765800Y-7213600D01*
X5168195Y-7344846D02*
X5168195Y-7224700D01*
X5168195Y-7224700D02*
X5042795Y-7099300D01*
X4888795Y-7239000D02*
X4888795Y-7125146D01*
X4888795Y-7354846D02*
X4888795Y-7239000D01*
X4888795Y-7239000D02*
X4978400Y-7239000D01*
X5435600Y-6986800D02*
X5052795Y-6986800D01*
X5488428Y-6986800D02*
X5435600Y-6986800D01*
X5435600Y-6986800D02*
X5435600Y-7010400D01*
X5435600Y-7010400D02*
X5384800Y-7061200D01*
X6191000Y-6629400D02*
X6191000Y-6698300D01*
X6191000Y-6515100D02*
X6191000Y-6629400D01*
X6191000Y-6629400D02*
X6299200Y-6629400D01*
X13752500Y-13792200D02*
X13919200Y-13792200D01*
X15143150Y-13792200D02*
X15341600Y-13792200D01*
X4876295Y-7354846D02*
X4888795Y-7354846D01*
X4780799Y-7450342D02*
X4876295Y-7354846D01*
X4780799Y-7752750D02*
X4780799Y-7450342D01*
X4800395Y-7772346D02*
X4780799Y-7752750D01*
X6121400Y-8509000D02*
X6146800Y-8509000D01*
X6146800Y-8509000D02*
X6246800Y-8409000D01*
X5854700Y-8509000D02*
X6121400Y-8509000D01*
X4685400Y-8203300D02*
X4738100Y-8256000D01*
X4800600Y-7874000D02*
X4685400Y-7989200D01*
X4685400Y-7989200D02*
X4685400Y-8203300D01*
X4738100Y-8256000D02*
X4800600Y-8318500D01*
D70*
X10952249Y-8584491D02*
X10952249Y-8285249D01*
X10952249Y-8285249D02*
X10896600Y-8229600D01*
X11049000Y-8382000D02*
X11176000Y-8382000D01*
X11176000Y-8382000D02*
X11328400Y-8534400D01*
X10952249Y-8478751D02*
X11049000Y-8382000D01*
X10952249Y-8584491D02*
X10952249Y-8478751D01*
D69*
X10871200Y-11176000D02*
X10871200Y-10896600D01*
D70*
X11061700Y-8432800D02*
X11137900Y-8356600D01*
X11003940Y-8432800D02*
X11061700Y-8432800D01*
X10952249Y-8584491D02*
X10952249Y-8484491D01*
X10952249Y-8484491D02*
X11003940Y-8432800D01*
D69*
X6391026Y-9334500D02*
X6391026Y-9045326D01*
X6391026Y-9045326D02*
X6388100Y-9042400D01*
X6604000Y-9427464D02*
X6483990Y-9427464D01*
X6483990Y-9427464D02*
X6391026Y-9334500D01*
X6604000Y-9427464D02*
X6604000Y-9537700D01*
X6604000Y-9537700D02*
X6743700Y-9677400D01*
X10998200Y-9423400D02*
X10998200Y-9126550D01*
X10998200Y-9126550D02*
X11012500Y-9112250D01*
X11012500Y-8909050D02*
X11012500Y-9112250D01*
D70*
X10952249Y-8742449D02*
X11012500Y-8802700D01*
X11012500Y-8802700D02*
X11012500Y-8909050D01*
X10952249Y-8584491D02*
X10952249Y-8742449D01*
D69*
X11595100Y-9791700D02*
X11595100Y-9563590D01*
X11595100Y-9563590D02*
X11613849Y-9544841D01*
X8647700Y-12838700D02*
X8585200Y-12776200D01*
X8668000Y-13181076D02*
X8668000Y-12859000D01*
X8668000Y-12859000D02*
X8647700Y-12838700D01*
X5321300Y-8318500D02*
X5232912Y-8318500D01*
X5232912Y-8318500D02*
X4800600Y-8318500D01*
X5664200Y-8311500D02*
X5328300Y-8311500D01*
X5328300Y-8311500D02*
X5321300Y-8318500D01*
X4800395Y-7772346D02*
X4800395Y-7873795D01*
X4800395Y-7873795D02*
X4800600Y-7874000D01*
X6225600Y-7175500D02*
X6225600Y-7429500D01*
X4631182Y-11798300D02*
X4775200Y-11798300D01*
X4631182Y-11798300D02*
X4631182Y-12217400D01*
X4631182Y-11486510D02*
X4631182Y-11798300D01*
X4631182Y-11798300D02*
X4521200Y-11798300D01*
X7725918Y-11341100D02*
X7725918Y-11082782D01*
X7725918Y-11082782D02*
X7886700Y-10922000D01*
X7007098Y-15046198D02*
X6907154Y-15046198D01*
X6907154Y-15046198D02*
X6718300Y-14857344D01*
X6718300Y-14857344D02*
X6718300Y-14579600D01*
D70*
X11613849Y-8909841D02*
X11613849Y-8922341D01*
X11613849Y-8922341D02*
X11688849Y-8997341D01*
X11613849Y-9532341D02*
X11613849Y-9544841D01*
X11688849Y-8997341D02*
X11688849Y-9457341D01*
X11688849Y-9457341D02*
X11613849Y-9532341D01*
X11513849Y-9337341D02*
X11513849Y-9519841D01*
X11513849Y-9519841D02*
X11538849Y-9544841D01*
X11538849Y-9544841D02*
X11613849Y-9544841D01*
X4838700Y-10896600D02*
X3111500Y-10896600D01*
D69*
X7581900Y-12928600D02*
X7429500Y-13081000D01*
X7609800Y-12903200D02*
X7607300Y-12903200D01*
X7607300Y-12903200D02*
X7581900Y-12928600D01*
X7710500Y-12700000D02*
X7710500Y-12802500D01*
X7710500Y-12802500D02*
X7609800Y-12903200D01*
X6121400Y-8828100D02*
X6121400Y-8509000D01*
X6246800Y-8409000D02*
X6246800Y-8267700D01*
X5664200Y-8311500D02*
X5664200Y-8318500D01*
X5664200Y-8318500D02*
X5854700Y-8509000D01*
X6162040Y-13728700D02*
X5943600Y-13728700D01*
D70*
X3048000Y-10960100D02*
X3111500Y-10896600D01*
X5918200Y-13728700D02*
X5943600Y-13728700D01*
X5638800Y-13906500D02*
X5740400Y-13906500D01*
X4940300Y-10998200D02*
X4940300Y-13208000D01*
X4838700Y-10896600D02*
X4940300Y-10998200D01*
X4940300Y-13208000D02*
X5638800Y-13906500D01*
X5740400Y-13906500D02*
X5918200Y-13728700D01*
D69*
X6324600Y-13566140D02*
X6162040Y-13728700D01*
X6324600Y-13550900D02*
X6324600Y-13566140D01*
X9066154Y-15036800D02*
X8813800Y-15036800D01*
X8813800Y-15036800D02*
X8509000Y-14732000D01*
X9166098Y-15036800D02*
X9066154Y-15036800D01*
X10690098Y-15036800D02*
X10337800Y-15036800D01*
X10337800Y-15036800D02*
X10033000Y-14732000D01*
X12110852Y-15036800D02*
X11912600Y-15036800D01*
X11912600Y-15036800D02*
X11582400Y-14706600D01*
X12210796Y-15036800D02*
X12110852Y-15036800D01*
X9017000Y-12039600D02*
X9017000Y-12219000D01*
X9017000Y-11834800D02*
X9017000Y-12039600D01*
X9017000Y-12039600D02*
X9144000Y-12039600D01*
X9744746Y-11292943D02*
X9560457Y-11292943D01*
X9560457Y-11292943D02*
X9550400Y-11303000D01*
X10676322Y-11176000D02*
X10676322Y-11060109D01*
X10676322Y-11288709D02*
X10676322Y-11176000D01*
X10676322Y-11176000D02*
X10871200Y-11176000D01*
X11811000Y-12014200D02*
X11811000Y-12192000D01*
X11811000Y-11784000D02*
X11811000Y-12014200D01*
X11811000Y-12014200D02*
X11709400Y-12014200D01*
X10109200Y-13081000D02*
X10109200Y-12827000D01*
X10109200Y-12827000D02*
X10058400Y-12776200D01*
X10192000Y-13163800D02*
X10109200Y-13081000D01*
X10192000Y-13181076D02*
X10192000Y-13163800D01*
X11252200Y-12801600D02*
X11226800Y-12776200D01*
X11252200Y-13106400D02*
X11252200Y-12801600D01*
X11326876Y-13181076D02*
X11252200Y-13106400D01*
X11335000Y-13181076D02*
X11326876Y-13181076D01*
X12014200Y-13106400D02*
X12014200Y-12877800D01*
X12014200Y-12877800D02*
X11912600Y-12776200D01*
X12088876Y-13181076D02*
X12014200Y-13106400D01*
X12097000Y-13181076D02*
X12088876Y-13181076D01*
X12088876Y-13181076D02*
X12065000Y-13157200D01*
X9744746Y-11292943D02*
X9968346Y-11292943D01*
X9968346Y-11292943D02*
X9973346Y-11297943D01*
X10515200Y-11557400D02*
X10676322Y-11396278D01*
X10676322Y-11396278D02*
X10676322Y-11288709D01*
X10514000Y-11557400D02*
X10515200Y-11557400D01*
X10514000Y-11557400D02*
X10514000Y-11908400D01*
X10676322Y-11288709D02*
X10676322Y-11301209D01*
X10684000Y-11963400D02*
X10569000Y-11963400D01*
X10569000Y-11963400D02*
X10514000Y-11908400D01*
D70*
X6225600Y-6967900D02*
X6225600Y-6772900D01*
X6225600Y-6772900D02*
X6171000Y-6718300D01*
D69*
X6191000Y-6698300D02*
X6171000Y-6718300D01*
X5664200Y-7354900D02*
X5767400Y-7354900D01*
X5767400Y-7354900D02*
X5867400Y-7454900D01*
D70*
X6225600Y-6967900D02*
X6225600Y-7175500D01*
X6225600Y-7429500D02*
X6225600Y-7687900D01*
D69*
X6225600Y-7429500D02*
X6350000Y-7429500D01*
X5664200Y-7162572D02*
X5488428Y-6986800D01*
X5052795Y-6986800D02*
X5042795Y-6996800D01*
X5042795Y-6996800D02*
X5042795Y-7099300D01*
D70*
X5664200Y-7354900D02*
X5461000Y-7354900D01*
X6246800Y-8267700D02*
X6246800Y-8114900D01*
X6246800Y-8114900D02*
X6196400Y-8064500D01*
D69*
X5004695Y-7772346D02*
X4800395Y-7772346D01*
X4888795Y-7125146D02*
X4952795Y-7061146D01*
X4952795Y-7061146D02*
X5042795Y-7061146D01*
X7710500Y-12700000D02*
X7710500Y-12207418D01*
X7710500Y-12207418D02*
X7725918Y-12192000D01*
X7456500Y-13054000D02*
X7429500Y-13081000D01*
X7456500Y-13398500D02*
X7456500Y-13108000D01*
X7456500Y-13108000D02*
X7429500Y-13081000D01*
X4631182Y-11366500D02*
X4631182Y-11486510D01*
X4673600Y-13081000D02*
X4673600Y-13196900D01*
X4673600Y-13081000D02*
X4673600Y-12952400D01*
X4102100Y-13081000D02*
X4673600Y-13081000D01*
X7725918Y-11341100D02*
X7725918Y-11461110D01*
X7725918Y-11461110D02*
X7725918Y-12192000D01*
X5524500Y-11391900D02*
X5524500Y-11252200D01*
X5524500Y-11417300D02*
X5524500Y-11391900D01*
X5524500Y-11391900D02*
X5461000Y-11391900D01*
X7048500Y-11546238D02*
X7048500Y-11366500D01*
X7048500Y-11252200D02*
X7048500Y-11366500D01*
X5992800Y-13117500D02*
X6146800Y-13271500D01*
X6146800Y-13271500D02*
X6324600Y-13271500D01*
X5969000Y-13117500D02*
X5992800Y-13117500D01*
X6422828Y-12738100D02*
X6578600Y-12738100D01*
X6222828Y-11722100D02*
X6222828Y-11874328D01*
X6222828Y-11874328D02*
X6299200Y-11950700D01*
X6422828Y-12992100D02*
X6422828Y-13119100D01*
X6422828Y-13119100D02*
X6422828Y-13173272D01*
X6667500Y-13117500D02*
X6424428Y-13117500D01*
X6424428Y-13117500D02*
X6422828Y-13119100D01*
X6422828Y-13173272D02*
X6324600Y-13271500D01*
X6324600Y-13271500D02*
X6324600Y-13550900D01*
X6667500Y-13117500D02*
X6672000Y-13117500D01*
X6672000Y-13117500D02*
X6921500Y-13367000D01*
X5715000Y-13367000D02*
X5719500Y-13367000D01*
X5719500Y-13367000D02*
X5969000Y-13117500D01*
X5524500Y-11546238D02*
X5524500Y-11417300D01*
X6094390Y-11417300D02*
X5524500Y-11417300D01*
X6222828Y-11455738D02*
X6132828Y-11455738D01*
X6132828Y-11455738D02*
X6094390Y-11417300D01*
X7467600Y-10607175D02*
X7596384Y-10607175D01*
X7342384Y-10607175D02*
X7467600Y-10607175D01*
X7467600Y-10607175D02*
X7467600Y-10782300D01*
X7781728Y-9385300D02*
X7781728Y-9512638D01*
X7781728Y-9258638D02*
X7781728Y-9385300D01*
X7781728Y-9385300D02*
X7950200Y-9385300D01*
X5207000Y-10554376D02*
X5335040Y-10554376D01*
X5081040Y-10554376D02*
X5207000Y-10554376D01*
X5207000Y-10554376D02*
X5207000Y-10731500D01*
X5526696Y-9385300D02*
X5526696Y-9505517D01*
X5526696Y-9251517D02*
X5526696Y-9385300D01*
X5526696Y-9385300D02*
X5689600Y-9385300D01*
X7048500Y-11239500D02*
X7202500Y-11239500D01*
X6894500Y-11239500D02*
X7048500Y-11239500D01*
X7048500Y-11239500D02*
X7061200Y-11239500D01*
X5370500Y-11239500D02*
X5537200Y-11239500D01*
X5537200Y-11239500D02*
X5678500Y-11239500D01*
X5524500Y-11252200D02*
X5537200Y-11239500D01*
X5207000Y-11551238D02*
X5519500Y-11551238D01*
X5519500Y-11551238D02*
X5524500Y-11546238D01*
X7048500Y-11252200D02*
X7061200Y-11239500D01*
X7048500Y-11546238D02*
X7361000Y-11546238D01*
X7361000Y-11546238D02*
X7366000Y-11551238D01*
X6422828Y-12738100D02*
X6422828Y-12992100D01*
X6222828Y-11455738D02*
X6222828Y-11722100D01*
X12898821Y-8555919D02*
X12648702Y-8305800D01*
X12648702Y-8305800D02*
X12636002Y-8293100D01*
X12807950Y-8166100D02*
X12668250Y-8305800D01*
X12668250Y-8305800D02*
X12648702Y-8305800D01*
X9188200Y-7550150D02*
X9188200Y-7520150D01*
X9188200Y-7520150D02*
X9097550Y-7429500D01*
X9097550Y-7429500D02*
X8940800Y-7429500D01*
X8940800Y-7429500D02*
X8629650Y-7740650D01*
X8629650Y-7740650D02*
X8629650Y-7842250D01*
X8629650Y-7842250D02*
X8775700Y-7988300D01*
X8775700Y-7988300D02*
X8775700Y-8064500D01*
X12299702Y-7734812D02*
X12299702Y-7823200D01*
X12068999Y-7344599D02*
X12299702Y-7575302D01*
X11715451Y-7344599D02*
X12068999Y-7344599D01*
X12299702Y-7575302D02*
X12299702Y-7734812D01*
X11615350Y-7442200D02*
X11617850Y-7442200D01*
X11617850Y-7442200D02*
X11715451Y-7344599D01*
X10337161Y-6491161D02*
X10337161Y-6668139D01*
D70*
X10337161Y-6255161D02*
X10337161Y-6491161D01*
D69*
X10274300Y-7085400D02*
X10196800Y-7085400D01*
X10196800Y-7085400D02*
X10172700Y-7061300D01*
X10172700Y-7061300D02*
X10172700Y-6832600D01*
X10172700Y-6832600D02*
X10337161Y-6668139D01*
X10102960Y-6214000D02*
X9956800Y-6360160D01*
X10337161Y-6255161D02*
X10296000Y-6214000D01*
X10296000Y-6214000D02*
X10102960Y-6214000D01*
X9956800Y-6360160D02*
X9956800Y-6375400D01*
X2603500Y-8229600D02*
X2933700Y-8559800D01*
X2933700Y-8559800D02*
X3086100Y-8712200D01*
X3023800Y-8482400D02*
X2946400Y-8559800D01*
X2946400Y-8559800D02*
X2933700Y-8559800D01*
X3023800Y-8470900D02*
X3023800Y-8482400D01*
X2603500Y-7645400D02*
X2603500Y-8064500D01*
X2850300Y-8064500D02*
X2691800Y-8064500D01*
X2603500Y-8064500D02*
X2603500Y-8229600D01*
X2691800Y-8064500D02*
X2603500Y-8064500D01*
X2987800Y-7251700D02*
X2940300Y-7251700D01*
X3086100Y-8712200D02*
X3263900Y-8712200D01*
X2940300Y-7251700D02*
X2781300Y-7410700D01*
X2781300Y-7467600D02*
X2603500Y-7645400D01*
X2781300Y-7410700D02*
X2781300Y-7467600D01*
X3263900Y-8712200D02*
X3359400Y-8712200D01*
X3359400Y-8712200D02*
X3359400Y-8826500D01*
X3835400Y-8915400D02*
X3746500Y-8826500D01*
X3359400Y-8826500D02*
X3359400Y-8953500D01*
X3746500Y-8826500D02*
X3359400Y-8826500D01*
X3359400Y-8712200D02*
X3359400Y-8458200D01*
X10274300Y-7085400D02*
X10274300Y-7255400D01*
X10274300Y-7255400D02*
X10259774Y-7269927D01*
X12428700Y-6127500D02*
X12458700Y-6127500D01*
X12346400Y-6045200D02*
X12428700Y-6127500D01*
X12184984Y-6045200D02*
X12346400Y-6045200D01*
X11702384Y-5562600D02*
X12184984Y-6045200D01*
X9956800Y-5562600D02*
X11702384Y-5562600D01*
D70*
X11736000Y-8293100D02*
X11658600Y-8293100D01*
X11658600Y-8293100D02*
X11607800Y-8343900D01*
X11347249Y-8289491D02*
X11553391Y-8289491D01*
X11553391Y-8289491D02*
X11607800Y-8343900D01*
D69*
X13368721Y-9054019D02*
X13368721Y-9643679D01*
X13368721Y-9643679D02*
X12979400Y-10033000D01*
X4902200Y-5562600D02*
X4849167Y-5615633D01*
X4849167Y-5615633D02*
X4849167Y-5657919D01*
X4227195Y-5945881D02*
X4181700Y-5900386D01*
X4181700Y-5806500D02*
X4173700Y-5798500D01*
X3937000Y-6615200D02*
X3293900Y-7258300D01*
X4849167Y-5657919D02*
X4561205Y-5945881D01*
X4561205Y-5945881D02*
X4227195Y-5945881D01*
X4181700Y-5900386D02*
X4181700Y-5806500D01*
X4173700Y-5798500D02*
X3979700Y-5798500D01*
X3937000Y-5841200D02*
X3937000Y-6615200D01*
X3979700Y-5798500D02*
X3937000Y-5841200D01*
X3293900Y-7258300D02*
X3263900Y-7258300D01*
X9956800Y-5562600D02*
X9906000Y-5562600D01*
X9906000Y-5562600D02*
X9880600Y-5588000D01*
X9880600Y-5588000D02*
X8458200Y-5588000D01*
X8458200Y-5588000D02*
X8229600Y-5359400D01*
X8229600Y-5359400D02*
X5105400Y-5359400D01*
X5105400Y-5359400D02*
X4902200Y-5562600D01*
D70*
X10007990Y-8488750D02*
X9982200Y-8488750D01*
X9982200Y-8488750D02*
X9918700Y-8488750D01*
D69*
X9987350Y-8488750D02*
X9982200Y-8488750D01*
X10071100Y-8572500D02*
X9987350Y-8488750D01*
X12636002Y-8293100D02*
X12103100Y-8293100D01*
X12898821Y-8645919D02*
X12898821Y-8555919D01*
X13495721Y-8631519D02*
X13495721Y-8788400D01*
X13495721Y-8788400D02*
X13495721Y-9054019D01*
X13368721Y-8775700D02*
X13483021Y-8775700D01*
X13483021Y-8775700D02*
X13495721Y-8788400D01*
X13368721Y-8514019D02*
X13368721Y-8775700D01*
X13368721Y-8775700D02*
X13368721Y-9054019D01*
X13131102Y-8775700D02*
X13368721Y-8775700D01*
X12898821Y-8645919D02*
X13001321Y-8645919D01*
X13001321Y-8645919D02*
X13131102Y-8775700D01*
X13368721Y-8514019D02*
X13495721Y-8514019D01*
X13368721Y-9054019D02*
X13495721Y-9054019D01*
X13495721Y-8514019D02*
X13495721Y-8631519D01*
X2987800Y-7251700D02*
X3257300Y-7251700D01*
X3257300Y-7251700D02*
X3263900Y-7258300D01*
X8775700Y-8064500D02*
X9537700Y-8064500D01*
D70*
X9918700Y-8488750D02*
X9856200Y-8488750D01*
X9856200Y-8488750D02*
X9525250Y-8819700D01*
X9525250Y-8819700D02*
X9525250Y-9067800D01*
D69*
X12488700Y-6127500D02*
X12458700Y-6127500D01*
X12688045Y-6032500D02*
X12583700Y-6032500D01*
X12725400Y-6069854D02*
X12688045Y-6032500D01*
X12583700Y-6032500D02*
X12488700Y-6127500D01*
X12725400Y-6142500D02*
X12725400Y-6069854D01*
X12382500Y-6564300D02*
X12395000Y-6564300D01*
X12395000Y-6564300D02*
X12485000Y-6474300D01*
X12485000Y-6474300D02*
X12485000Y-6228800D01*
X12485000Y-6228800D02*
X12458700Y-6202500D01*
X12458700Y-6202500D02*
X12458700Y-6127500D01*
X12370000Y-6564300D02*
X12382500Y-6564300D01*
D70*
X11487150Y-7499350D02*
X11544300Y-7442200D01*
X11544300Y-7442200D02*
X11615350Y-7442200D01*
X11487150Y-7599590D02*
X11487150Y-7499350D01*
X11347249Y-7639491D02*
X11447249Y-7639491D01*
X11447249Y-7639491D02*
X11487150Y-7599590D01*
X10402249Y-7444491D02*
X10402249Y-7213349D01*
X10402249Y-7213349D02*
X10339300Y-7150400D01*
X10336800Y-7150400D02*
X10274300Y-7087900D01*
X10339300Y-7150400D02*
X10336800Y-7150400D01*
X10274300Y-7087900D02*
X10274300Y-7085400D01*
X10207249Y-8389491D02*
X10107249Y-8389491D01*
X10107249Y-8389491D02*
X10007990Y-8488750D01*
X11347249Y-7689491D02*
X11552609Y-7689491D01*
X11552609Y-7689491D02*
X11622100Y-7620000D01*
X10452249Y-7444491D02*
X10452249Y-7078799D01*
X10452249Y-7078799D02*
X10452100Y-7078650D01*
X12979400Y-5861300D02*
X12979400Y-5937500D01*
X12979400Y-5861300D02*
X12979400Y-5727700D01*
X12979400Y-5727700D02*
X12855490Y-5603790D01*
X12855490Y-5603790D02*
X12855490Y-5490254D01*
X13233400Y-5932500D02*
X12984400Y-5932500D01*
X12984400Y-5932500D02*
X12979400Y-5937500D01*
D69*
X6940550Y-6324600D02*
X6464300Y-6324600D01*
X6464300Y-6324600D02*
X6413500Y-6375400D01*
X6413500Y-6375400D02*
X6413500Y-6654800D01*
X6413500Y-6654800D02*
X6449462Y-6690762D01*
X6449462Y-6690762D02*
X6552278Y-6690762D01*
X6755478Y-6690762D02*
X7098762Y-6690762D01*
X7098762Y-6690762D02*
X7112000Y-6704000D01*
D70*
X6810600Y-6967900D02*
X6810600Y-6745884D01*
X6810600Y-6745884D02*
X6755478Y-6690762D01*
X6810600Y-6967900D02*
X6810600Y-7032900D01*
D69*
X6755478Y-6690762D02*
X6552278Y-6690762D01*
X7112000Y-6704000D02*
X7112000Y-6707400D01*
X7112000Y-6707400D02*
X7319500Y-6914900D01*
X6997700Y-14820900D02*
X6997700Y-14624300D01*
X6997700Y-14624300D02*
X7004300Y-14617700D01*
X5204695Y-7772346D02*
X5204695Y-7874846D01*
X5204695Y-7874846D02*
X4976941Y-8102600D01*
X4976941Y-8102600D02*
X4787900Y-8102600D01*
X5664200Y-7817500D02*
X5664200Y-7554900D01*
X5911300Y-7687900D02*
X5778300Y-7554900D01*
X5778300Y-7554900D02*
X5664200Y-7554900D01*
X5461000Y-7554900D02*
X5664200Y-7554900D01*
X5263195Y-7564846D02*
X5451054Y-7564846D01*
X5451054Y-7564846D02*
X5461000Y-7554900D01*
D70*
X5918100Y-7687900D02*
X5965600Y-7687900D01*
X5911300Y-7687900D02*
X5918100Y-7687900D01*
D69*
X5263195Y-7564846D02*
X5263195Y-7713846D01*
X5263195Y-7713846D02*
X5204695Y-7772346D01*
D70*
X6046400Y-8064500D02*
X6046400Y-8267300D01*
X6046400Y-8267300D02*
X6046800Y-8267700D01*
X6030600Y-7687900D02*
X6030600Y-8048700D01*
X6030600Y-8048700D02*
X6046400Y-8064500D01*
D69*
X6832600Y-9436100D02*
X6883400Y-9486900D01*
X6883400Y-9486900D02*
X6992400Y-9486900D01*
X6832600Y-9093200D02*
X6832600Y-9436100D01*
X6726936Y-8987536D02*
X6832600Y-9093200D01*
X6722364Y-8987536D02*
X6726936Y-8987536D01*
D70*
X4597400Y-9258300D02*
X4782600Y-9443500D01*
X4782600Y-9443500D02*
X4782600Y-9486900D01*
X6021000Y-6718300D02*
X6021000Y-6958300D01*
X6021000Y-6958300D02*
X6030600Y-6967900D01*
X5791200Y-6718300D02*
X6021000Y-6718300D01*
X6604000Y-8987536D02*
X6722364Y-8987536D01*
X6722364Y-8987536D02*
X6807200Y-8902700D01*
D71*
X15303500Y-7086600D02*
X15303500Y-7213600D01*
X15303500Y-7213600D02*
X15252700Y-7264400D01*
X15303500Y-6908800D02*
X15303500Y-7086600D01*
X15303500Y-6705600D02*
X15303500Y-6908800D01*
X15417800Y-6705600D02*
X15417800Y-6540500D01*
X15189200Y-6705600D02*
X15189200Y-6540500D01*
X15417800Y-6705600D02*
X15532100Y-6705600D01*
X15417800Y-6705600D02*
X15303500Y-6705600D01*
D69*
X15983200Y-10972800D02*
X15659100Y-10972800D01*
X15666650Y-10965250D02*
X15659100Y-10972800D01*
X15659100Y-10972800D02*
X15373350Y-10972800D01*
X15666650Y-10820400D02*
X15666650Y-10965250D01*
X15373350Y-10972800D02*
X15372150Y-10971600D01*
X13113750Y-10167350D02*
X14038850Y-10167350D01*
X14038850Y-10167350D02*
X14071600Y-10134600D01*
D71*
X15252700Y-6985000D02*
X15252700Y-7073900D01*
X15252700Y-6883400D02*
X15252700Y-6985000D01*
X15252700Y-6985000D02*
X15252700Y-6870700D01*
X15252700Y-6870700D02*
X15417800Y-6705600D01*
X16412464Y-6908800D02*
X16412464Y-7285736D01*
D69*
X16412464Y-7285736D02*
X16408400Y-7289800D01*
X14935200Y-7112000D02*
X14903200Y-7144000D01*
X14903200Y-7144000D02*
X14782800Y-7144000D01*
X15049500Y-7112000D02*
X14935200Y-7112000D01*
D71*
X15252700Y-7073900D02*
X15214600Y-7112000D01*
X15214600Y-7112000D02*
X15049500Y-7112000D01*
X15227300Y-6858000D02*
X15252700Y-6883400D01*
X15049500Y-6858000D02*
X15227300Y-6858000D01*
D69*
X15049500Y-6858000D02*
X14827000Y-6858000D01*
X14827000Y-6858000D02*
X14782800Y-6813800D01*
D71*
X16383000Y-6493000D02*
X16383000Y-6879336D01*
D69*
X16383000Y-6879336D02*
X16412464Y-6908800D01*
D71*
X15972536Y-5524500D02*
X15671800Y-5524500D01*
D69*
X15386050Y-10985500D02*
X15386050Y-11061700D01*
X15030450Y-10985500D02*
X15030450Y-11061700D01*
X15386050Y-10985500D02*
X15372150Y-10971600D01*
X15372150Y-10971600D02*
X15372150Y-10820400D01*
X15664150Y-10820400D02*
X15666650Y-10820400D01*
X14889150Y-10844200D02*
X15030450Y-10985500D01*
X14889150Y-10820400D02*
X14889150Y-10844200D01*
D71*
X16088250Y-7486650D02*
X16088250Y-7024514D01*
X16088250Y-7024514D02*
X15972536Y-6908800D01*
X16002000Y-6493000D02*
X16002000Y-6879336D01*
D70*
X16002000Y-6879336D02*
X15972536Y-6908800D01*
X16256000Y-6493000D02*
X16129000Y-6493000D01*
X16002000Y-6493000D02*
X16129000Y-6493000D01*
D69*
X11413849Y-9647341D02*
X11413849Y-9544841D01*
X11413849Y-9889849D02*
X11413849Y-9647341D01*
X13003383Y-10141701D02*
X11665701Y-10141701D01*
X13468721Y-9355519D02*
X13468721Y-9676364D01*
X13468721Y-9676364D02*
X13003383Y-10141701D01*
X11665701Y-10141701D02*
X11413849Y-9889849D01*
X13622721Y-9054019D02*
X13622721Y-9291519D01*
X13622721Y-9291519D02*
X13558721Y-9355519D01*
X13558721Y-9355519D02*
X13468721Y-9355519D01*
X13373100Y-7552100D02*
X13373100Y-7667100D01*
X13373100Y-7667100D02*
X13692721Y-7986721D01*
X13692721Y-7986721D02*
X13692721Y-9054019D01*
X13692721Y-9054019D02*
X13622721Y-9054019D01*
D70*
X11436350Y-9232900D02*
X11418849Y-9250401D01*
X11418849Y-9250401D02*
X11418849Y-9337341D01*
X11582408Y-9232900D02*
X11436350Y-9232900D01*
X11608849Y-9337341D02*
X11608849Y-9259341D01*
X11608849Y-9259341D02*
X11582408Y-9232900D01*
X11413849Y-9544841D02*
X11413849Y-9342341D01*
X11413849Y-9342341D02*
X11418849Y-9337341D01*
X4144600Y-13931900D02*
X4144600Y-13377500D01*
X4144600Y-13377500D02*
X4102100Y-13335000D01*
X4673600Y-13396900D02*
X4164000Y-13396900D01*
X4164000Y-13396900D02*
X4102100Y-13335000D01*
X7218000Y-13906500D02*
X7318000Y-13906500D01*
X7318000Y-13906500D02*
X7656500Y-13568000D01*
X7656500Y-13568000D02*
X7656500Y-13486000D01*
X7656500Y-13486000D02*
X7656500Y-13398500D01*
X7683500Y-13081000D02*
X7683500Y-13371500D01*
X7683500Y-13371500D02*
X7656500Y-13398500D01*
X6324600Y-9690100D02*
X6165600Y-9531100D01*
X6165600Y-9531100D02*
X6121400Y-9531100D01*
D69*
X6222828Y-12530738D02*
X6201590Y-12509500D01*
X6201590Y-12509500D02*
X6100328Y-12408238D01*
X6286500Y-12382500D02*
X6201590Y-12467410D01*
X6201590Y-12467410D02*
X6201590Y-12509500D01*
X4673600Y-12752400D02*
X4673600Y-12446000D01*
X4081018Y-12217400D02*
X4081018Y-11366500D01*
X4102100Y-12827000D02*
X4102100Y-12238482D01*
X4102100Y-12238482D02*
X4081018Y-12217400D01*
X4673600Y-12752400D02*
X4176700Y-12752400D01*
X4176700Y-12752400D02*
X4102100Y-12827000D01*
X5207000Y-10354376D02*
X5335040Y-10354376D01*
X5081040Y-10354376D02*
X5207000Y-10354376D01*
X5207000Y-10354376D02*
X5207000Y-10096500D01*
X7467600Y-10407175D02*
X7342384Y-10407175D01*
X7596384Y-10407175D02*
X7467600Y-10407175D01*
X7467600Y-10407175D02*
X7467600Y-10121900D01*
X5347540Y-10354376D02*
X5335040Y-10354376D01*
X7342384Y-10407175D02*
X7342384Y-10268795D01*
X7342384Y-10268795D02*
X7221228Y-10147638D01*
X4935228Y-10147638D02*
X4935228Y-10208564D01*
X4935228Y-10208564D02*
X5081040Y-10354376D01*
X6222828Y-12738100D02*
X6222828Y-12530738D01*
X6100328Y-12408238D02*
X6052828Y-12408238D01*
X6222828Y-12992100D02*
X6222828Y-12738100D01*
X8276082Y-11341100D02*
X8276082Y-10799318D01*
X8276082Y-10799318D02*
X8318500Y-10756900D01*
X7910500Y-12700000D02*
X7910500Y-13054000D01*
X7910500Y-13054000D02*
X7937500Y-13081000D01*
X6422828Y-11904738D02*
X6477000Y-11958910D01*
X6477000Y-11958910D02*
X6545328Y-12027238D01*
X6350000Y-12128500D02*
X6477000Y-12001500D01*
X6477000Y-12001500D02*
X6477000Y-11958910D01*
X8276082Y-11747500D02*
X8276082Y-12192000D01*
X8276082Y-11461110D02*
X8276082Y-11747500D01*
X8276082Y-11747500D02*
X8001000Y-11747500D01*
X8000500Y-12700000D02*
X8001000Y-12700000D01*
X7910500Y-12700000D02*
X8000500Y-12700000D01*
X8276082Y-12312010D02*
X8276082Y-12192000D01*
X8000500Y-12700000D02*
X8276082Y-12424418D01*
X8276082Y-12424418D02*
X8276082Y-12312010D01*
X8255000Y-12213082D02*
X8276082Y-12192000D01*
X8276082Y-11341100D02*
X8276082Y-11461110D01*
X5326696Y-9385300D02*
X5326696Y-9251517D01*
X5326696Y-9505517D02*
X5326696Y-9385300D01*
X5326696Y-9385300D02*
X5213761Y-9385300D01*
X5213761Y-9385300D02*
X5207137Y-9378676D01*
X7581728Y-9385300D02*
X7581728Y-9512638D01*
X7581728Y-9258638D02*
X7581728Y-9385300D01*
X7581728Y-9385300D02*
X7442200Y-9385300D01*
X7581728Y-9512638D02*
X7581728Y-9677228D01*
X7581728Y-9677228D02*
X7671138Y-9766638D01*
X7671138Y-9766638D02*
X7761228Y-9766638D01*
X5326696Y-9505517D02*
X5326696Y-9618106D01*
X5326696Y-9618106D02*
X5475228Y-9766638D01*
X5326696Y-9239017D02*
X5326696Y-9251517D01*
X6422828Y-11722100D02*
X6422828Y-11904738D01*
X6545328Y-12027238D02*
X6592828Y-12027238D01*
X6422828Y-11455738D02*
X6422828Y-11722100D01*
X14725650Y-11112500D02*
X14725650Y-12084050D01*
X14725650Y-12084050D02*
X14725650Y-12839034D01*
X14897100Y-12084050D02*
X14816278Y-12084050D01*
X14816278Y-12084050D02*
X14725650Y-12084050D01*
X16045692Y-15136744D02*
X8378544Y-15136744D01*
X16374789Y-14503953D02*
X16374789Y-14807647D01*
X14725650Y-12839034D02*
X16326515Y-14439900D01*
X7768000Y-14066500D02*
X7768000Y-13906500D01*
X16326515Y-14455679D02*
X16374789Y-14503953D01*
X16374789Y-14807647D02*
X16045692Y-15136744D01*
X8378544Y-15136744D02*
X7768000Y-14526200D01*
X7768000Y-14526200D02*
X7768000Y-14066500D01*
X16326515Y-14439900D02*
X16326515Y-14455679D01*
X14689150Y-10820400D02*
X14689150Y-10601884D01*
X14689150Y-10601884D02*
X14725650Y-10565384D01*
X14689150Y-10820400D02*
X14689150Y-11076000D01*
X14689150Y-11076000D02*
X14725650Y-11112500D01*
X16491701Y-12065000D02*
X16268700Y-12065000D01*
X16491701Y-12065000D02*
X16491701Y-14895683D01*
X16491701Y-14895683D02*
X16140283Y-15247101D01*
X16140283Y-15247101D02*
X6124801Y-15247101D01*
X6124801Y-15247101D02*
X4809600Y-13931900D01*
X4809600Y-13931900D02*
X4694600Y-13931900D01*
X16491701Y-11124451D02*
X16491701Y-12065000D01*
X16217900Y-10693400D02*
X16490700Y-10966200D01*
X16490700Y-10966200D02*
X16490700Y-10972800D01*
X16491701Y-11124451D02*
X16490700Y-11123450D01*
X16490700Y-11123450D02*
X16490700Y-10972800D01*
X16089884Y-10565384D02*
X16217900Y-10693400D01*
X16217900Y-10693400D02*
X16217900Y-10655300D01*
X16217900Y-10655300D02*
X16281400Y-10591800D01*
X15741650Y-10565384D02*
X16089884Y-10565384D01*
X15816650Y-10820400D02*
X15816650Y-10640384D01*
X15816650Y-10640384D02*
X15741650Y-10565384D01*
X11959360Y-6153681D02*
X11959360Y-6242070D01*
X11959360Y-5971975D02*
X11959360Y-6153681D01*
X11715084Y-5727700D02*
X11959360Y-5971975D01*
X8174400Y-5727700D02*
X11715084Y-5727700D01*
X15222150Y-11125800D02*
X15310450Y-11214100D01*
X15222150Y-10820400D02*
X15222150Y-10576884D01*
X15222150Y-10576884D02*
X15233650Y-10565384D01*
X15222150Y-11125800D02*
X15222150Y-10820400D01*
X15233650Y-10808900D02*
X15222150Y-10820400D01*
X7539500Y-6914900D02*
X7539500Y-7073900D01*
X7480440Y-7073900D02*
X7539500Y-7073900D01*
X7539500Y-7073900D02*
X7539500Y-7229000D01*
X7416800Y-7073900D02*
X7480440Y-7073900D01*
X7539500Y-7229000D02*
X7529500Y-7239000D01*
X7740900Y-6914900D02*
X7658100Y-6914900D01*
X7658100Y-6914900D02*
X7539500Y-6914900D01*
X7613900Y-6724900D02*
X7658100Y-6769100D01*
X7658100Y-6769100D02*
X7658100Y-6914900D01*
X7539500Y-6724900D02*
X7613900Y-6724900D01*
X7975600Y-6680200D02*
X7740900Y-6914900D01*
X7975600Y-6261100D02*
X7975600Y-6680200D01*
X7975600Y-6261100D02*
X7624400Y-5909900D01*
X7624400Y-5909900D02*
X7624400Y-5727700D01*
D70*
X5461000Y-7200900D02*
X5461000Y-7175500D01*
X5461000Y-7175500D02*
X5486400Y-7150100D01*
X5263195Y-7200900D02*
X5263195Y-7081546D01*
X5263195Y-7344846D02*
X5263195Y-7200900D01*
X5263195Y-7200900D02*
X5461000Y-7200900D01*
X5239195Y-7447346D02*
X5097695Y-7447346D01*
X5097695Y-7447346D02*
X5073195Y-7422846D01*
X5239195Y-7447346D02*
X5263195Y-7423346D01*
X5263195Y-7344846D02*
X5263195Y-7423346D01*
X5263195Y-7081546D02*
X5242795Y-7061146D01*
X5073195Y-7422846D02*
X5073195Y-7344846D01*
X7316800Y-6515100D02*
X7316800Y-6722200D01*
X7316800Y-6722200D02*
X7319500Y-6724900D01*
X5073195Y-7564846D02*
X4898795Y-7564846D01*
X4898795Y-7564846D02*
X4888795Y-7554846D01*
X2614403Y-10791446D02*
X2689403Y-10791446D01*
X2751403Y-10434946D02*
X2681403Y-10364946D01*
X2689403Y-10791446D02*
X2751403Y-10729446D01*
X2751403Y-10729446D02*
X2751403Y-10434946D01*
X2681403Y-10364946D02*
X2641403Y-10364946D01*
X2614403Y-10791446D02*
X2614403Y-11145446D01*
X2614403Y-11145446D02*
X2641403Y-11172446D01*
X2414403Y-10537446D02*
X2414403Y-10455446D01*
X2414403Y-10455446D02*
X2323903Y-10364946D01*
X2414403Y-10537446D02*
X2339403Y-10537446D01*
X2339403Y-10537446D02*
X2323149Y-10553700D01*
X2323149Y-10553700D02*
X2184400Y-10553700D01*
X2184400Y-10553700D02*
X2082800Y-10655300D01*
X2082800Y-10655300D02*
X2082800Y-11061700D01*
X2082800Y-11061700D02*
X2193546Y-11172446D01*
X2193546Y-11172446D02*
X2387403Y-11172446D01*
X5976200Y-9029700D02*
X5977800Y-9028100D01*
X5977800Y-9028100D02*
X6121400Y-9028100D01*
X7035800Y-8782300D02*
X6318000Y-8782300D01*
X6208900Y-9028100D02*
X6121400Y-9028100D01*
X6318000Y-8782300D02*
X6273800Y-8826500D01*
X6273800Y-8826500D02*
X6273800Y-8963200D01*
X6273800Y-8963200D02*
X6208900Y-9028100D01*
X6121400Y-9341100D02*
X6121400Y-9028100D01*
X5613400Y-8756900D02*
X4851400Y-8756900D01*
X5613400Y-8756900D02*
X5703400Y-8756900D01*
X5703400Y-8756900D02*
X5976200Y-9029700D01*
X7747000Y-8782300D02*
X7035800Y-8782300D01*
X7569200Y-8877300D02*
X7861300Y-8877300D01*
X7861300Y-8877300D02*
X7867000Y-8871600D01*
X7867000Y-8729527D02*
X7770473Y-8633000D01*
X7035800Y-8972300D02*
X7474200Y-8972300D01*
X7474200Y-8972300D02*
X7569200Y-8877300D01*
X7867000Y-8871600D02*
X7867000Y-8729527D01*
X7770473Y-8633000D02*
X6940473Y-8633000D01*
X6940473Y-8633000D02*
X6270473Y-7963000D01*
X6095600Y-7706900D02*
X6095600Y-7687900D01*
X6270473Y-7963000D02*
X6150473Y-7963000D01*
X6150473Y-7963000D02*
X6095600Y-7908127D01*
X6095600Y-7908127D02*
X6095600Y-7706900D01*
X7035800Y-8972300D02*
X7035800Y-9231300D01*
X7035800Y-9231300D02*
X7037400Y-9232900D01*
X6883400Y-9962900D02*
X6973400Y-9962900D01*
X6973400Y-9962900D02*
X7042662Y-9893638D01*
X6578600Y-9962900D02*
X6883400Y-9962900D01*
X7137400Y-9613900D02*
X7042662Y-9708638D01*
X7042662Y-9708638D02*
X7042662Y-9893638D01*
X7137400Y-9345400D02*
X7137400Y-9613900D01*
X7037400Y-9232900D02*
X7037400Y-9245400D01*
X7037400Y-9245400D02*
X7137400Y-9345400D01*
X7042662Y-9893638D02*
X7118728Y-9893638D01*
X7118728Y-9893638D02*
X7221228Y-9893638D01*
X6169527Y-7917000D02*
X6141600Y-7889073D01*
X7747000Y-8972300D02*
X7837000Y-8972300D01*
X7913000Y-8896300D02*
X7913000Y-8710473D01*
X6959527Y-8587000D02*
X6289527Y-7917000D01*
X7837000Y-8972300D02*
X7913000Y-8896300D01*
X7913000Y-8710473D02*
X7789527Y-8587000D01*
X7789527Y-8587000D02*
X6959527Y-8587000D01*
X6289527Y-7917000D02*
X6169527Y-7917000D01*
X6141600Y-7889073D02*
X6141600Y-7810400D01*
X6141600Y-7810400D02*
X6150600Y-7801400D01*
X6150600Y-7801400D02*
X6150600Y-7697900D01*
X6150600Y-7697900D02*
X6160600Y-7687900D01*
X7747000Y-8972300D02*
X7747000Y-9032300D01*
X7747000Y-9032300D02*
X7665728Y-9113572D01*
X7665728Y-9113572D02*
X7665728Y-9153638D01*
X7747000Y-9664700D02*
X7866300Y-9664700D01*
X7866300Y-9664700D02*
X7974500Y-9772900D01*
X7974500Y-9772900D02*
X8064500Y-9772900D01*
X7237400Y-9232900D02*
X7312400Y-9232900D01*
X7312400Y-9232900D02*
X7391662Y-9153638D01*
X7391662Y-9153638D02*
X7665728Y-9153638D01*
X7665728Y-9153638D02*
X7689228Y-9177138D01*
X7689228Y-9177138D02*
X7689228Y-9606928D01*
X7689228Y-9606928D02*
X7747000Y-9664700D01*
X8064500Y-9772900D02*
X8382000Y-9772900D01*
X7761228Y-10020638D02*
X7808728Y-10020638D01*
X7808728Y-10020638D02*
X7974500Y-9854866D01*
X7974500Y-9854866D02*
X7974500Y-9832900D01*
X7974500Y-9832900D02*
X8034500Y-9772900D01*
X8034500Y-9772900D02*
X8064500Y-9772900D01*
X5613400Y-8946900D02*
X5523400Y-8946900D01*
X6028000Y-7213000D02*
X6160600Y-7080400D01*
X5625200Y-6907500D02*
X5930700Y-7213000D01*
X5005027Y-6907500D02*
X5625200Y-6907500D01*
X4613000Y-7299527D02*
X5005027Y-6907500D01*
X4613000Y-8760000D02*
X4613000Y-7299527D01*
X6160600Y-7080400D02*
X6160600Y-6967900D01*
X5930700Y-7213000D02*
X6028000Y-7213000D01*
X5428400Y-8851900D02*
X4704900Y-8851900D01*
X4704900Y-8851900D02*
X4613000Y-8760000D01*
X5523400Y-8946900D02*
X5428400Y-8851900D01*
X5117570Y-9127596D02*
X5613400Y-9127596D01*
X5613400Y-9127596D02*
X5635096Y-9127596D01*
X5613400Y-8946900D02*
X5613400Y-9006900D01*
X5613400Y-9006900D02*
X5613400Y-9127596D01*
X5075428Y-9169738D02*
X5054062Y-9169738D01*
X5054062Y-9169738D02*
X5053000Y-9170800D01*
X5053000Y-9170800D02*
X5053000Y-9258300D01*
X5840228Y-9862138D02*
X5889038Y-9862138D01*
X5889038Y-9862138D02*
X6091400Y-10064500D01*
X6091400Y-10064500D02*
X6121400Y-10064500D01*
X5475228Y-10020638D02*
X5587662Y-10020638D01*
X5587662Y-10020638D02*
X5746162Y-9862138D01*
X5746162Y-9862138D02*
X5840228Y-9862138D01*
X5075428Y-9169738D02*
X5117570Y-9127596D01*
X5635096Y-9127596D02*
X5840228Y-9332728D01*
X5840228Y-9332728D02*
X5840228Y-9862138D01*
X5475228Y-10020638D02*
X5522728Y-10020638D01*
X4761400Y-8946900D02*
X4851400Y-8946900D01*
X4567000Y-7280473D02*
X4567000Y-8807000D01*
X4990473Y-6857000D02*
X4567000Y-7280473D01*
X5638341Y-6857000D02*
X4990473Y-6857000D01*
X4567000Y-8807000D02*
X4706900Y-8946900D01*
X6009000Y-7167000D02*
X5948341Y-7167000D01*
X6095600Y-6967900D02*
X6095600Y-7080400D01*
X6095600Y-7080400D02*
X6009000Y-7167000D01*
X4706900Y-8946900D02*
X4761400Y-8946900D01*
X5948341Y-7167000D02*
X5638341Y-6857000D01*
X4851400Y-8946900D02*
X4851400Y-9256700D01*
X4851400Y-9256700D02*
X4853000Y-9258300D01*
X4853000Y-9259900D02*
X4902200Y-9309100D01*
X4902200Y-9309100D02*
X4902200Y-9359010D01*
X4853000Y-9258300D02*
X4853000Y-9259900D01*
X4902200Y-9359010D02*
X4902200Y-9537700D01*
X4902200Y-9537700D02*
X4902200Y-9555800D01*
X4800600Y-9664700D02*
X4902200Y-9563100D01*
X4902200Y-9563100D02*
X4902200Y-9537700D01*
X4749800Y-9664700D02*
X4800600Y-9664700D01*
X4749800Y-9664700D02*
X4718638Y-9695862D01*
X4718638Y-9695862D02*
X4718638Y-9862138D01*
X4750138Y-9893638D02*
X4724400Y-9867900D01*
X4724400Y-9867900D02*
X4718638Y-9862138D01*
X4718638Y-9862138D02*
X4570228Y-9862138D01*
X4935228Y-9893638D02*
X4750138Y-9893638D01*
X4316228Y-9862138D02*
X4406228Y-9862138D01*
X4406228Y-9862138D02*
X4570228Y-9862138D01*
X3498600Y-12190900D02*
X3498600Y-12280900D01*
X3727200Y-11962300D02*
X3498600Y-12190900D01*
X3727200Y-11814300D02*
X3727200Y-11962300D01*
X3505200Y-11517300D02*
X3505200Y-11592300D01*
X3505200Y-11592300D02*
X3727200Y-11814300D01*
X3498600Y-12480243D02*
X3498600Y-12280900D01*
X3498600Y-12480243D02*
X3625903Y-12607546D01*
X3625903Y-12607546D02*
X3673403Y-12607546D01*
X2989682Y-11307586D02*
X3022182Y-11340086D01*
X2641403Y-11426446D02*
X2760263Y-11307586D01*
X2760263Y-11307586D02*
X2989682Y-11307586D01*
X3063043Y-11340086D02*
X3149403Y-11426446D01*
X3396054Y-11426446D02*
X3505200Y-11317300D01*
X3022182Y-11340086D02*
X3063043Y-11340086D01*
X3149403Y-11426446D02*
X3396054Y-11426446D01*
X2466903Y-12607546D02*
X2514403Y-12607546D01*
X2514403Y-12607546D02*
X2578100Y-12543849D01*
X2578100Y-12543849D02*
X2578100Y-12455900D01*
X2578100Y-12455900D02*
X2578100Y-12380900D01*
X2291903Y-12290046D02*
X2291903Y-12480046D01*
X2291903Y-12480046D02*
X2419403Y-12607546D01*
X2419403Y-12607546D02*
X2466903Y-12607546D01*
X2850900Y-11920600D02*
X2850900Y-11779000D01*
X2590600Y-12180900D02*
X2850900Y-11920600D01*
X2578100Y-12180900D02*
X2590600Y-12180900D01*
X2850900Y-11779000D02*
X2743200Y-11671300D01*
X2794000Y-11620500D02*
X2743200Y-11671300D01*
X2844800Y-11620500D02*
X2794000Y-11620500D01*
X2895403Y-11569897D02*
X2844800Y-11620500D01*
X2895403Y-11426446D02*
X2895403Y-11569897D01*
X2387403Y-11569503D02*
X2387403Y-11426446D01*
X2743200Y-11671300D02*
X2692400Y-11620500D01*
X2438400Y-11620500D02*
X2387403Y-11569503D01*
X2692400Y-11620500D02*
X2438400Y-11620500D01*
X8382000Y-9962900D02*
X8382000Y-10148900D01*
X8064500Y-10153900D02*
X8187000Y-10153900D01*
X8187000Y-10153900D02*
X8294500Y-10261400D01*
X8294500Y-10261400D02*
X8294500Y-10273900D01*
X8294500Y-10273900D02*
X8369500Y-10348900D01*
X8369500Y-10348900D02*
X8382000Y-10348900D01*
X8064500Y-10153900D02*
X8064500Y-9962900D01*
X7761228Y-10147638D02*
X8058238Y-10147638D01*
X8058238Y-10147638D02*
X8064500Y-10153900D01*
X6451600Y-9931400D02*
X6451600Y-10047100D01*
X6451600Y-10047100D02*
X6553400Y-10148900D01*
X6553400Y-10148900D02*
X6565900Y-10148900D01*
X6883400Y-9772900D02*
X6883400Y-9832900D01*
X6883400Y-9832900D02*
X6820900Y-9895400D01*
X6820900Y-9895400D02*
X6487600Y-9895400D01*
X6487600Y-9895400D02*
X6451600Y-9931400D01*
X6578600Y-9772900D02*
X6488600Y-9772900D01*
X6488600Y-9772900D02*
X6406599Y-9854901D01*
X6406599Y-9854901D02*
X6406599Y-10202099D01*
X6406599Y-10202099D02*
X6553400Y-10348900D01*
X6553400Y-10348900D02*
X6565900Y-10348900D01*
X6121400Y-10475900D02*
X6208900Y-10475900D01*
X6218900Y-9942000D02*
X6151400Y-9874500D01*
X6208900Y-10475900D02*
X6218900Y-10465900D01*
X6218900Y-10465900D02*
X6218900Y-9942000D01*
X6151400Y-9874500D02*
X6121400Y-9874500D01*
X5840228Y-10052138D02*
X5840228Y-10112138D01*
X5840228Y-10112138D02*
X5842338Y-10114248D01*
X5842338Y-10114248D02*
X5842338Y-10147638D01*
X5475228Y-10147638D02*
X5816600Y-10147638D01*
X5816600Y-10147638D02*
X5842338Y-10147638D01*
X5816600Y-10280900D02*
X5816600Y-10147638D01*
X5842338Y-10147638D02*
X5970600Y-10275900D01*
X5970600Y-10275900D02*
X6121400Y-10275900D01*
X4316228Y-10052138D02*
X4316228Y-10248728D01*
X4316228Y-10248728D02*
X4343400Y-10275900D01*
X4730662Y-10052138D02*
X4724400Y-10052138D01*
X4724400Y-10052138D02*
X4570228Y-10052138D01*
X4660900Y-10280900D02*
X4660900Y-10220900D01*
X4660900Y-10220900D02*
X4724400Y-10157400D01*
X4724400Y-10157400D02*
X4724400Y-10052138D01*
X4343400Y-10475900D02*
X4355900Y-10475900D01*
X4355900Y-10475900D02*
X4550900Y-10280900D01*
X4550900Y-10280900D02*
X4660900Y-10280900D01*
X4762162Y-10020638D02*
X4730662Y-10052138D01*
X4935228Y-10020638D02*
X4762162Y-10020638D01*
X3303600Y-11772900D02*
X3303600Y-11860400D01*
X3303600Y-11860400D02*
X3303600Y-12026900D01*
X3403600Y-12139400D02*
X3303600Y-12039400D01*
X3303600Y-12039400D02*
X3303600Y-12026900D01*
X3403600Y-12139400D02*
X3403600Y-12512243D01*
X3673403Y-12734546D02*
X3625903Y-12734546D01*
X3625903Y-12734546D02*
X3403600Y-12512243D01*
X3673403Y-12861546D02*
X3673403Y-12734546D01*
D69*
X1917700Y-14338550D02*
X1812700Y-14338550D01*
X1771650Y-14382750D02*
X1689100Y-14465300D01*
X1812700Y-14338550D02*
X1771650Y-14379600D01*
X1511300Y-14599200D02*
X1536150Y-14624050D01*
X3500827Y-14649627D02*
X3634605Y-14649627D01*
X1771650Y-14379600D02*
X1771650Y-14382750D01*
X3634605Y-14649627D02*
X3657600Y-14626632D01*
X1689100Y-14465300D02*
X1529800Y-14465300D01*
X1536150Y-14624050D02*
X1994200Y-14624050D01*
X1529800Y-14465300D02*
X1511300Y-14483800D01*
X1511300Y-14483800D02*
X1511300Y-14599200D01*
X1994200Y-14624050D02*
X2228650Y-14389600D01*
X2228650Y-14389600D02*
X3240800Y-14389600D01*
X3657600Y-14626632D02*
X3657600Y-14369724D01*
X3240800Y-14389600D02*
X3500827Y-14649627D01*
X1625800Y-12688900D02*
X1638300Y-12688900D01*
X1517650Y-13863500D02*
X1517650Y-12797050D01*
X1917700Y-14263550D02*
X1517650Y-13863500D01*
X1917700Y-14338550D02*
X1917700Y-14263550D01*
X1517650Y-12797050D02*
X1625800Y-12688900D01*
X2368550Y-11652250D02*
X2042199Y-11652250D01*
X2042199Y-11652250D02*
X1638300Y-12056149D01*
X1638300Y-12056149D02*
X1638300Y-12598900D01*
X1638300Y-12598900D02*
X1638300Y-12688900D01*
X2387600Y-11671300D02*
X2368550Y-11652250D01*
X2387600Y-12174900D02*
X2387600Y-11671300D01*
X2768600Y-12309500D02*
X2750000Y-12290900D01*
X2750000Y-12290900D02*
X2503600Y-12290900D01*
X2503600Y-12290900D02*
X2387600Y-12174900D01*
X2997200Y-12185900D02*
X2892200Y-12185900D01*
X2892200Y-12185900D02*
X2768600Y-12309500D01*
X2768600Y-12309500D02*
X2768600Y-12662400D01*
X2768600Y-12662400D02*
X2768600Y-12752400D01*
X3041000Y-11874500D02*
X3041000Y-12142100D01*
X3041000Y-12142100D02*
X2997200Y-12185900D01*
X1926903Y-12734546D02*
X1607746Y-12734546D01*
X3133403Y-12734546D02*
X2786454Y-12734546D01*
X2786454Y-12734546D02*
X2768600Y-12752400D01*
D70*
X2466903Y-12861546D02*
X2466903Y-12734546D01*
X2197100Y-12148349D02*
X2197100Y-12512243D01*
X2197100Y-12512243D02*
X2419403Y-12734546D01*
X2419403Y-12734546D02*
X2466903Y-12734546D01*
X2296903Y-12036046D02*
X2296903Y-12048546D01*
X2296903Y-12048546D02*
X2197100Y-12148349D01*
X2296903Y-11782046D02*
X2296903Y-12036046D01*
X6883400Y-10693400D02*
X6694500Y-10882300D01*
X6694500Y-10882300D02*
X6694500Y-11239500D01*
X6883400Y-10343900D02*
X6883400Y-10693400D01*
X6694500Y-11239500D02*
X6694500Y-11227000D01*
X6694500Y-11239500D02*
X6694500Y-11514738D01*
X6694500Y-11514738D02*
X6731000Y-11551238D01*
X7366000Y-11741238D02*
X7366000Y-11681238D01*
X7330662Y-11645900D02*
X6756400Y-11645900D01*
X7366000Y-11681238D02*
X7330662Y-11645900D01*
X6756400Y-11645900D02*
X6731000Y-11620500D01*
X6731000Y-11620500D02*
X6731000Y-11551238D01*
X7402500Y-11239500D02*
X7402500Y-11227000D01*
X7402500Y-11227000D02*
X8064500Y-10565000D01*
X8064500Y-10565000D02*
X8064500Y-10343900D01*
X7463500Y-11839000D02*
X7205500Y-12097000D01*
X7463500Y-11628738D02*
X7463500Y-11839000D01*
X7402500Y-11411238D02*
X7473500Y-11482238D01*
X7402500Y-11239500D02*
X7402500Y-11411238D01*
X7473500Y-11618738D02*
X7463500Y-11628738D01*
X7473500Y-11482238D02*
X7473500Y-11618738D01*
X7205500Y-12097000D02*
X7175500Y-12097000D01*
X7175500Y-12097000D02*
X6921500Y-12097000D01*
X5151278Y-11010900D02*
X5283200Y-11010900D01*
X5054499Y-11107679D02*
X5151278Y-11010900D01*
X5054499Y-11856777D02*
X5054499Y-11107679D01*
X5358222Y-12160500D02*
X5054499Y-11856777D01*
X5461000Y-12160500D02*
X5358222Y-12160500D01*
X5283200Y-11010900D02*
X5715000Y-11010900D01*
X5715000Y-11010900D02*
X5737400Y-11010900D01*
X5816600Y-10470900D02*
X5816600Y-10909300D01*
X5816600Y-10909300D02*
X5715000Y-11010900D01*
X5878500Y-11152000D02*
X5878500Y-11239500D01*
X5737400Y-11010900D02*
X5878500Y-11152000D01*
X5715000Y-12160500D02*
X5461000Y-12160500D01*
X5099500Y-11620238D02*
X5125162Y-11645900D01*
X5125162Y-11645900D02*
X5207000Y-11645900D01*
X5099500Y-11398000D02*
X5099500Y-11620238D01*
X5170500Y-11327000D02*
X5099500Y-11398000D01*
X5170500Y-11239500D02*
X5170500Y-11327000D01*
X5954500Y-11334500D02*
X5961000Y-11328000D01*
X5961000Y-11328000D02*
X5961000Y-10456800D01*
X5416540Y-10461876D02*
X4759924Y-10461876D01*
X5961000Y-10456800D02*
X5907600Y-10403400D01*
X5907600Y-10403400D02*
X5475016Y-10403400D01*
X5475016Y-10403400D02*
X5416540Y-10461876D01*
X4759924Y-10461876D02*
X4750900Y-10470900D01*
X4750900Y-10470900D02*
X4660900Y-10470900D01*
X5762500Y-11134500D02*
X5188000Y-11134500D01*
X5796000Y-11168000D02*
X5762500Y-11134500D01*
X5170500Y-11152000D02*
X5170500Y-11239500D01*
X5954500Y-11334500D02*
X5802500Y-11334500D01*
X5802500Y-11334500D02*
X5796000Y-11328000D01*
X5796000Y-11328000D02*
X5796000Y-11168000D01*
X5188000Y-11134500D02*
X5170500Y-11152000D01*
X5207000Y-11645900D02*
X5816600Y-11645900D01*
X5207000Y-11645900D02*
X5207000Y-11741238D01*
X5816600Y-11645900D02*
X5842000Y-11620500D01*
X5842000Y-11620500D02*
X5842000Y-11551238D01*
X3650600Y-13487400D02*
X3650600Y-13903400D01*
X3650600Y-13903400D02*
X3622100Y-13931900D01*
X3622100Y-13931900D02*
X3562100Y-13931900D01*
X3156600Y-13487400D02*
X3156600Y-13011743D01*
X3156600Y-13011743D02*
X3133403Y-12988546D01*
X2507403Y-13496546D02*
X2363903Y-13496546D01*
X2363903Y-13496546D02*
X2023549Y-13836900D01*
X2023549Y-13836900D02*
X1879600Y-13836900D01*
X1926903Y-12988546D02*
X1926903Y-13410046D01*
X1926903Y-13410046D02*
X2013403Y-13496546D01*
X7048500Y-11746238D02*
X6736000Y-11746238D01*
X6736000Y-11746238D02*
X6731000Y-11741238D01*
X6756400Y-12103100D02*
X6756400Y-11766638D01*
X6756400Y-11766638D02*
X6731000Y-11741238D01*
X6592828Y-12154238D02*
X6705262Y-12154238D01*
X6705262Y-12154238D02*
X6756400Y-12103100D01*
X5842000Y-11741238D02*
X5529500Y-11741238D01*
X5529500Y-11741238D02*
X5524500Y-11746238D01*
X6052828Y-12027238D02*
X5950328Y-12027238D01*
X5950328Y-12027238D02*
X5842000Y-11918910D01*
X5842000Y-11918910D02*
X5842000Y-11801238D01*
X5842000Y-11801238D02*
X5842000Y-11741238D01*
X6921500Y-12668000D02*
X7170500Y-12668000D01*
X7170500Y-12668000D02*
X7175500Y-12673000D01*
X6592828Y-12281238D02*
X6915738Y-12281238D01*
X7016500Y-12192000D02*
X6921500Y-12287000D01*
X7295599Y-12352901D02*
X7295599Y-12192000D01*
X7295599Y-12192000D02*
X7016500Y-12192000D01*
X7175500Y-12473000D02*
X7295599Y-12352901D01*
X6915738Y-12281238D02*
X6921500Y-12287000D01*
X5715000Y-12541500D02*
X5685000Y-12541500D01*
X5490000Y-12736500D02*
X5461000Y-12736500D01*
X5685000Y-12541500D02*
X5490000Y-12736500D01*
X5334000Y-12255500D02*
X5334000Y-12422000D01*
X5680000Y-12255500D02*
X5334000Y-12255500D01*
X5715000Y-12350500D02*
X5715000Y-12290500D01*
X5715000Y-12290500D02*
X5680000Y-12255500D01*
X5715000Y-12350500D02*
X5745000Y-12350500D01*
X5745000Y-12350500D02*
X5941262Y-12154238D01*
X5941262Y-12154238D02*
X5950328Y-12154238D01*
X5950328Y-12154238D02*
X6052828Y-12154238D01*
X5461000Y-12536500D02*
X5448500Y-12536500D01*
X5448500Y-12536500D02*
X5334000Y-12422000D01*
X4882900Y-11031283D02*
X4882900Y-13327890D01*
X6363212Y-13804900D02*
X6451600Y-13804900D01*
X5600211Y-14045201D02*
X5735799Y-14045201D01*
X4882900Y-13327890D02*
X5600211Y-14045201D01*
X3149403Y-11172446D02*
X3260763Y-11172446D01*
X3260763Y-11172446D02*
X3472710Y-10960499D01*
X3472710Y-10960499D02*
X4812116Y-10960499D01*
X4812116Y-10960499D02*
X4882900Y-11031283D01*
X5735799Y-14045201D02*
X5976100Y-13804900D01*
X5976100Y-13804900D02*
X6363212Y-13804900D01*
X6578600Y-13550900D02*
X6578600Y-13566140D01*
X6578600Y-13566140D02*
X6451600Y-13693140D01*
X6451600Y-13693140D02*
X6451600Y-13804900D01*
X6921500Y-13049000D02*
X6799000Y-13049000D01*
X6799000Y-13049000D02*
X6755000Y-13005000D01*
X6755000Y-13005000D02*
X6755000Y-12992500D01*
X6755000Y-12992500D02*
X6680000Y-12917500D01*
X6680000Y-12917500D02*
X6667500Y-12917500D01*
X7048500Y-13460000D02*
X6951500Y-13557000D01*
X6926328Y-13551238D02*
X6578938Y-13551238D01*
X7048500Y-13236000D02*
X7048500Y-13460000D01*
X6951500Y-13557000D02*
X6921500Y-13557000D01*
X6921500Y-13049000D02*
X6921500Y-13109000D01*
X6921500Y-13109000D02*
X7048500Y-13236000D01*
X6578938Y-13551238D02*
X6578600Y-13550900D01*
X6921328Y-13546238D02*
X6926328Y-13551238D01*
X5679215Y-13795883D02*
X4995301Y-13111969D01*
X4995301Y-13111969D02*
X4995301Y-10975418D01*
X4995301Y-10975418D02*
X4861482Y-10841599D01*
X4861482Y-10841599D02*
X3011101Y-10841599D01*
X3011101Y-10841599D02*
X2895403Y-10957296D01*
X2895403Y-10957296D02*
X2895403Y-11172446D01*
X5741715Y-13733383D02*
X5679215Y-13795883D01*
X6070600Y-13550900D02*
X5924198Y-13550900D01*
X5924198Y-13550900D02*
X5741715Y-13733383D01*
X5969000Y-12917500D02*
X5981500Y-12917500D01*
X5715000Y-13112500D02*
X5745000Y-13112500D01*
X5745000Y-13112500D02*
X5940000Y-12917500D01*
X5940000Y-12917500D02*
X5969000Y-12917500D01*
X5715000Y-13557000D02*
X6064500Y-13557000D01*
X6064500Y-13557000D02*
X6070600Y-13550900D01*
X5588000Y-13525500D02*
X5619500Y-13557000D01*
X5619500Y-13557000D02*
X5625000Y-13557000D01*
X5625000Y-13557000D02*
X5715000Y-13557000D01*
X5588000Y-13299500D02*
X5588000Y-13525500D01*
X5715000Y-13112500D02*
X5715000Y-13172500D01*
X5715000Y-13172500D02*
X5588000Y-13299500D01*
X9779000Y-13088000D02*
X9779000Y-13231500D01*
X9779000Y-13231500D02*
X10231500Y-13684000D01*
X10231500Y-13684000D02*
X10287000Y-13684000D01*
X9779000Y-13582000D02*
X9779000Y-13589000D01*
X9779000Y-13589000D02*
X9575800Y-13792200D01*
X9575800Y-13792200D02*
X9499600Y-13792200D01*
X8255000Y-13266000D02*
X8673000Y-13684000D01*
X8255000Y-13088000D02*
X8255000Y-13266000D01*
X8673000Y-13684000D02*
X8763000Y-13684000D01*
X8077200Y-13817600D02*
X8255000Y-13639800D01*
X8255000Y-13639800D02*
X8255000Y-13582000D01*
X11252200Y-13434700D02*
X11252200Y-13536200D01*
X11252200Y-13536200D02*
X11400000Y-13684000D01*
X11400000Y-13684000D02*
X11430000Y-13684000D01*
X11049000Y-13088000D02*
X11049000Y-13231500D01*
X11049000Y-13231500D02*
X11252200Y-13434700D01*
X11061998Y-14103296D02*
X11124498Y-14165796D01*
X10912500Y-13953798D02*
X11061998Y-14103296D01*
X10912500Y-13725500D02*
X10912500Y-13953798D01*
X11049000Y-13582000D02*
X11049000Y-13589000D01*
X11049000Y-13589000D02*
X10912500Y-13725500D01*
X12192000Y-13582400D02*
X12162000Y-13582400D01*
X12162000Y-13582400D02*
X12094500Y-13514900D01*
X12094500Y-13514900D02*
X12094500Y-13378500D01*
X12094500Y-13378500D02*
X11811000Y-13095000D01*
X11811000Y-13095000D02*
X11811000Y-13088000D01*
X11049000Y-13843000D02*
X11099800Y-13843000D01*
X11099800Y-13843000D02*
X11150600Y-13792200D01*
X11150600Y-13792200D02*
X11607800Y-13792200D01*
X11607800Y-13792200D02*
X11811000Y-13589000D01*
X11811000Y-13589000D02*
X11811000Y-13582000D01*
X8763000Y-12916173D02*
X8763000Y-12981178D01*
X8763000Y-12561200D02*
X8763000Y-12916173D01*
X8693400Y-12491600D02*
X8763000Y-12561200D01*
X9017000Y-11634800D02*
X9004500Y-11634800D01*
X9004500Y-11634800D02*
X8693400Y-11945900D01*
X8693400Y-11945900D02*
X8693400Y-12491600D01*
X8763000Y-13494000D02*
X8763000Y-12981178D01*
X9017000Y-11634800D02*
X9029500Y-11634800D01*
X9029500Y-11634800D02*
X9224500Y-11829800D01*
X9224500Y-11829800D02*
X9271000Y-11829800D01*
X9525000Y-11829800D02*
X9435000Y-11829800D01*
X9435000Y-11829800D02*
X9271000Y-11829800D01*
X9104500Y-12419000D02*
X9017000Y-12419000D01*
X9356700Y-12671200D02*
X9104500Y-12419000D01*
X10108800Y-12671200D02*
X9356700Y-12671200D01*
X10287000Y-12849400D02*
X10108800Y-12671200D01*
X10287000Y-12981178D02*
X10287000Y-12849400D01*
X10287000Y-13494000D02*
X10287000Y-13119566D01*
X10287000Y-13119566D02*
X10287000Y-12981178D01*
X9017000Y-12419000D02*
X9046000Y-12419000D01*
X9046000Y-12419000D02*
X9241000Y-12224000D01*
X9241000Y-12224000D02*
X9271000Y-12224000D01*
X9271000Y-12224000D02*
X9525000Y-12224000D01*
X9266000Y-12219000D02*
X9271000Y-12224000D01*
X11811000Y-12471400D02*
X11430000Y-12852400D01*
X11430000Y-12852400D02*
X11430000Y-12981178D01*
X11811000Y-12392000D02*
X11811000Y-12471400D01*
X11430000Y-13494000D02*
X11430000Y-12981178D01*
X11557000Y-12224000D02*
X11630500Y-12224000D01*
X11630500Y-12224000D02*
X11798500Y-12392000D01*
X11798500Y-12392000D02*
X11811000Y-12392000D01*
X11557000Y-12224000D02*
X11303000Y-12224000D01*
X12192000Y-12981178D02*
X12192000Y-12903200D01*
X12192000Y-12903200D02*
X12192000Y-11952500D01*
X12192000Y-13392400D02*
X12192000Y-12903200D01*
X12192000Y-11952500D02*
X11823500Y-11584000D01*
X11823500Y-11584000D02*
X11811000Y-11584000D01*
X11303000Y-11614400D02*
X11333000Y-11614400D01*
X11333000Y-11614400D02*
X11523000Y-11804400D01*
X11523000Y-11804400D02*
X11557000Y-11804400D01*
X11811000Y-11584000D02*
X11798500Y-11584000D01*
X11798500Y-11584000D02*
X11578100Y-11804400D01*
X11578100Y-11804400D02*
X11557000Y-11804400D01*
X9779000Y-11809400D02*
X9766500Y-11809400D01*
X9766500Y-11809400D02*
X9596900Y-11639800D01*
X9596900Y-11639800D02*
X9525000Y-11639800D01*
X10007600Y-11709400D02*
X9907600Y-11809400D01*
X9907600Y-11809400D02*
X9779000Y-11809400D01*
X10144000Y-11709400D02*
X10007600Y-11709400D01*
X11911600Y-8548100D02*
X11849100Y-8610600D01*
X11963001Y-8496699D02*
X11911600Y-8548100D01*
X11882000Y-8020300D02*
X11963001Y-8101301D01*
X11727919Y-8005918D02*
X11742300Y-8020300D01*
X11621114Y-8005918D02*
X11727919Y-8005918D01*
X11487541Y-8139491D02*
X11621114Y-8005918D01*
X11742300Y-8020300D02*
X11882000Y-8020300D01*
X11963001Y-8101301D02*
X11963001Y-8496699D01*
X11347249Y-8139491D02*
X11487541Y-8139491D01*
X9105900Y-11328400D02*
X9311900Y-11534400D01*
X9311900Y-11534400D02*
X9316400Y-11534400D01*
X9271000Y-11639800D02*
X9271000Y-11579800D01*
X9766500Y-11609400D02*
X9779000Y-11609400D01*
X9271000Y-11579800D02*
X9316400Y-11534400D01*
X9316400Y-11534400D02*
X9691500Y-11534400D01*
X9691500Y-11534400D02*
X9766500Y-11609400D01*
X10144000Y-11582400D02*
X9806000Y-11582400D01*
X9806000Y-11582400D02*
X9779000Y-11609400D01*
X9525000Y-12414000D02*
X9571500Y-12414000D01*
X9571500Y-12414000D02*
X9766500Y-12219000D01*
X9766500Y-12219000D02*
X9779000Y-12219000D01*
X10144000Y-12217400D02*
X9780600Y-12217400D01*
X9780600Y-12217400D02*
X9779000Y-12219000D01*
X12008002Y-8604610D02*
X11950700Y-8661912D01*
X12008002Y-8082661D02*
X12008002Y-8604610D01*
X11900640Y-7975299D02*
X12008002Y-8082661D01*
X11757778Y-7960917D02*
X11772160Y-7975299D01*
X11950700Y-8661912D02*
X11950700Y-8750300D01*
X11473900Y-8089491D02*
X11602474Y-7960917D01*
X11347249Y-8089491D02*
X11473900Y-8089491D01*
X11602474Y-7960917D02*
X11757778Y-7960917D01*
X11772160Y-7975299D02*
X11900640Y-7975299D01*
X9994900Y-12560300D02*
X9853600Y-12419000D01*
X9853600Y-12419000D02*
X9779000Y-12419000D01*
X9779000Y-12419000D02*
X9779000Y-12494000D01*
X9779000Y-12494000D02*
X9750800Y-12522200D01*
X9271000Y-12496800D02*
X9271000Y-12414000D01*
X9750800Y-12522200D02*
X9296400Y-12522200D01*
X9296400Y-12522200D02*
X9271000Y-12496800D01*
X10144000Y-12344400D02*
X9853600Y-12344400D01*
X9853600Y-12344400D02*
X9779000Y-12419000D01*
X11303000Y-12414000D02*
X11256500Y-12414000D01*
X11256500Y-12414000D02*
X11061500Y-12219000D01*
X11061500Y-12219000D02*
X11049000Y-12219000D01*
X10684000Y-12217400D02*
X11047400Y-12217400D01*
X11047400Y-12217400D02*
X11049000Y-12219000D01*
X10985500Y-11328912D02*
X10985500Y-11417300D01*
X10985500Y-10744200D02*
X10985500Y-11328912D01*
X10807149Y-10565849D02*
X10985500Y-10744200D01*
X10807149Y-9109036D02*
X10807149Y-10565849D01*
X10852249Y-8684491D02*
X10852249Y-9063936D01*
X10852249Y-9063936D02*
X10807149Y-9109036D01*
X11087100Y-12617450D02*
X11149600Y-12554950D01*
X11149600Y-12554950D02*
X11149600Y-12537300D01*
X11149600Y-12537300D02*
X11164700Y-12522200D01*
X10852249Y-8584491D02*
X10852249Y-8684491D01*
X10852249Y-8684491D02*
X10852150Y-8684590D01*
X11049000Y-12419000D02*
X11061500Y-12419000D01*
X11061500Y-12419000D02*
X11164700Y-12522200D01*
X11164700Y-12522200D02*
X11508800Y-12522200D01*
X11508800Y-12522200D02*
X11557000Y-12474000D01*
X11557000Y-12474000D02*
X11557000Y-12414000D01*
X10684000Y-12344400D02*
X10974400Y-12344400D01*
X10974400Y-12344400D02*
X11049000Y-12419000D01*
X10861500Y-11709400D02*
X10684000Y-11709400D01*
X11049000Y-11809400D02*
X10961500Y-11809400D01*
X10961500Y-11809400D02*
X10861500Y-11709400D01*
X11303000Y-11804400D02*
X11054000Y-11804400D01*
X11054000Y-11804400D02*
X11049000Y-11809400D01*
X11303000Y-10966450D02*
X11303000Y-11506200D01*
X10852150Y-10515600D02*
X11303000Y-10966450D01*
X10902249Y-9077577D02*
X10852150Y-9127676D01*
X10852150Y-9127676D02*
X10852150Y-10515600D01*
X10902249Y-8584491D02*
X10902249Y-9077577D01*
X11508800Y-11506200D02*
X11303000Y-11506200D01*
X11303000Y-11506200D02*
X11077200Y-11506200D01*
X11557000Y-11614400D02*
X11557000Y-11554400D01*
X11557000Y-11554400D02*
X11508800Y-11506200D01*
X11077200Y-11506200D02*
X11049000Y-11534400D01*
X11049000Y-11534400D02*
X11049000Y-11609400D01*
X10684000Y-11582400D02*
X11022000Y-11582400D01*
X11022000Y-11582400D02*
X11049000Y-11609400D01*
X10312400Y-11798300D02*
X10274300Y-11836400D01*
X10274300Y-11836400D02*
X10144000Y-11836400D01*
X10312400Y-11456796D02*
X10312400Y-11798300D01*
X10201946Y-11286343D02*
X10201946Y-11346343D01*
X10201946Y-11346343D02*
X10312400Y-11456796D01*
X9973346Y-11097943D02*
X9985846Y-11097943D01*
X9985846Y-11097943D02*
X10174246Y-11286343D01*
X10174246Y-11286343D02*
X10201946Y-11286343D01*
X9744746Y-11102943D02*
X9968346Y-11102943D01*
X9968346Y-11102943D02*
X9973346Y-11097943D01*
X9956800Y-11887200D02*
X10007600Y-11836400D01*
X10007600Y-11836400D02*
X10144000Y-11836400D01*
X9956800Y-12003200D02*
X9956800Y-11887200D01*
X10144000Y-12090400D02*
X10044000Y-12090400D01*
X10044000Y-12090400D02*
X9956800Y-12003200D01*
X10845800Y-11861800D02*
X10820400Y-11836400D01*
X10820400Y-11836400D02*
X10684000Y-11836400D01*
X10845800Y-11973600D02*
X10845800Y-11861800D01*
X10729000Y-12090400D02*
X10845800Y-11973600D01*
X10684000Y-12090400D02*
X10729000Y-12090400D01*
X10244000Y-12090400D02*
X10414000Y-12090400D01*
X10414000Y-12090400D02*
X10684000Y-12090400D01*
X10144000Y-12090400D02*
X10244000Y-12090400D01*
X14943150Y-13792200D02*
X14943150Y-13977950D01*
X14943150Y-13977950D02*
X15621000Y-14655800D01*
X10585200Y-9956550D02*
X10611850Y-9983200D01*
X10585200Y-9203702D02*
X10585200Y-9956550D01*
X10611850Y-9983200D02*
X10674350Y-10045700D01*
X10752249Y-9036654D02*
X10585200Y-9203702D01*
X10752249Y-8584491D02*
X10752249Y-9036654D01*
X14890750Y-13792200D02*
X14943150Y-13792200D01*
X10985500Y-10350500D02*
X14427200Y-13792200D01*
X14427200Y-13792200D02*
X14890750Y-13792200D01*
X13550900Y-14312900D02*
X13550900Y-14643100D01*
X13550900Y-14643100D02*
X13538200Y-14655800D01*
X10680700Y-9785862D02*
X10680700Y-9874250D01*
X10802249Y-9050295D02*
X10680700Y-9171844D01*
X10680700Y-9171844D02*
X10680700Y-9785862D01*
X10802249Y-8584491D02*
X10802249Y-9050295D01*
X11120126Y-10604348D02*
X11104807Y-10604348D01*
X13552500Y-13036722D02*
X11120126Y-10604348D01*
X13552500Y-13792200D02*
X13552500Y-13036722D01*
X13552500Y-13792200D02*
X13552500Y-14311300D01*
X13552500Y-14311300D02*
X13550900Y-14312900D01*
X9810598Y-7811917D02*
X9810598Y-7499502D01*
X9810598Y-7499502D02*
X9855200Y-7454900D01*
X9888172Y-7889491D02*
X9810598Y-7811917D01*
X10207249Y-7889491D02*
X9888172Y-7889491D01*
X3835400Y-8458200D02*
X3549400Y-8458200D01*
X9969500Y-7378188D02*
X9969500Y-7289800D01*
X9855599Y-7599123D02*
X9969500Y-7485222D01*
X9901813Y-7839491D02*
X9855599Y-7793277D01*
X10207249Y-7839491D02*
X9901813Y-7839491D01*
X9855599Y-7793277D02*
X9855599Y-7599123D01*
X9969500Y-7485222D02*
X9969500Y-7378188D01*
X3822700Y-8712200D02*
X3549400Y-8712200D01*
X10852249Y-7444491D02*
X10852249Y-7340469D01*
X10852249Y-7340469D02*
X11029599Y-7163119D01*
X11029599Y-7163119D02*
X11029599Y-6669123D01*
X11029599Y-6669123D02*
X11099599Y-6599123D01*
X11099599Y-6599123D02*
X11099599Y-6210099D01*
X11099599Y-6210099D02*
X11036300Y-6146800D01*
X11036300Y-6146800D02*
X9855200Y-6146800D01*
X9855200Y-6146800D02*
X9563100Y-6438900D01*
X9563100Y-6438900D02*
X9563100Y-6819900D01*
X9563100Y-6819900D02*
X9474200Y-6908800D01*
X3556000Y-9144000D02*
X3556000Y-8960100D01*
X3556000Y-8960100D02*
X3549400Y-8953500D01*
D69*
X2997200Y-12496800D02*
X2997200Y-12375900D01*
X2921000Y-12573000D02*
X2997200Y-12496800D01*
X1854200Y-6146800D02*
X1854200Y-11328400D01*
X2133600Y-5867400D02*
X1854200Y-6146800D01*
X2404559Y-5867400D02*
X2133600Y-5867400D01*
X3352800Y-5867400D02*
X2404559Y-5867400D01*
X4013200Y-5207000D02*
X3352800Y-5867400D01*
X11582400Y-5207000D02*
X4013200Y-5207000D01*
X11977100Y-5601700D02*
X11582400Y-5207000D01*
X12039600Y-5664200D02*
X11977100Y-5601700D01*
X14083284Y-6362700D02*
X14083284Y-5828284D01*
X14083284Y-5828284D02*
X13919200Y-5664200D01*
X14083284Y-6362700D02*
X14083284Y-6517762D01*
X14083284Y-6517762D02*
X13598946Y-7002100D01*
X13598946Y-7002100D02*
X13533100Y-7002100D01*
X13533100Y-7002100D02*
X13373100Y-7002100D01*
D71*
X15684500Y-6108700D02*
X15840200Y-5953000D01*
X15684500Y-6108700D02*
X15585186Y-6208014D01*
X16412464Y-5524500D02*
X16412464Y-5923536D01*
D69*
X16412464Y-5923536D02*
X16383000Y-5953000D01*
D71*
X16256000Y-5953000D02*
X16383000Y-5953000D01*
X16129000Y-5953000D02*
X16256000Y-5953000D01*
X16002000Y-5953000D02*
X16129000Y-5953000D01*
X15840200Y-5953000D02*
X16002000Y-5953000D01*
D69*
X14083284Y-6362700D02*
X14958314Y-6362700D01*
X14958314Y-6362700D02*
X15113000Y-6208014D01*
X13449300Y-6464300D02*
X13449300Y-6401948D01*
X13449300Y-6401948D02*
X13488548Y-6362700D01*
X13488548Y-6362700D02*
X13653516Y-6362700D01*
X13180600Y-6464300D02*
X13449300Y-6464300D01*
X13055600Y-6369300D02*
X13085600Y-6369300D01*
X13085600Y-6369300D02*
X13180600Y-6464300D01*
X12979400Y-6127500D02*
X12979400Y-6293100D01*
X12979400Y-6293100D02*
X13055600Y-6369300D01*
D70*
X3380490Y-6620510D02*
X3395218Y-6620510D01*
X2495300Y-7505700D02*
X3380490Y-6620510D01*
X2447800Y-7505700D02*
X2495300Y-7505700D01*
X2170176Y-7740400D02*
X2170176Y-7550400D01*
X2447800Y-7505700D02*
X2214876Y-7505700D01*
X2214876Y-7505700D02*
X2170176Y-7550400D01*
X1970278Y-7645400D02*
X1970278Y-7518122D01*
X1970278Y-7518122D02*
X2103600Y-7384800D01*
X2103600Y-7384800D02*
X2133600Y-7384800D01*
X2133600Y-7384800D02*
X2441700Y-7384800D01*
X2441700Y-7384800D02*
X2447800Y-7378700D01*
D69*
X4384802Y-5334000D02*
X4673600Y-5334000D01*
X4673600Y-5334000D02*
X4767850Y-5428250D01*
X4174998Y-5334000D02*
X4174998Y-5526781D01*
X4174998Y-5526781D02*
X4314195Y-5665978D01*
X4314195Y-5665978D02*
X4394200Y-5665978D01*
D70*
X15741650Y-9740900D02*
X15741650Y-10135616D01*
X14725650Y-9740900D02*
X14725650Y-10135616D01*
X15233650Y-9842500D02*
X15233650Y-10135616D01*
X14197092Y-11938000D02*
X12998450Y-10739358D01*
X12998450Y-10739358D02*
X12698492Y-10439400D01*
X13169900Y-10579100D02*
X13009642Y-10739358D01*
X13009642Y-10739358D02*
X12998450Y-10739358D01*
X16300700Y-10972800D02*
X16173200Y-10972800D01*
X16180050Y-11226800D02*
X16173200Y-11219950D01*
X16173200Y-11219950D02*
X16173200Y-10972800D01*
X16180050Y-11226800D02*
X16180050Y-11628105D01*
X16180050Y-11628105D02*
X15870155Y-11938000D01*
X15870155Y-11938000D02*
X15036800Y-11938000D01*
X12698492Y-10439400D02*
X12565795Y-10306703D01*
X12905226Y-10241524D02*
X12869867Y-10276883D01*
X12869867Y-10276883D02*
X12861008Y-10276883D01*
X12861008Y-10276883D02*
X12698492Y-10439400D01*
X14401800Y-11938000D02*
X14197092Y-11938000D01*
X12565795Y-10306703D02*
X12503295Y-10244203D01*
X12115800Y-9240792D02*
X12115800Y-9652000D01*
X12115800Y-9652000D02*
X12242800Y-9779000D01*
X11417300Y-8763000D02*
X11638008Y-8763000D01*
X11638008Y-8763000D02*
X12115800Y-9240792D01*
X11130758Y-8763000D02*
X11417300Y-8763000D01*
X11052249Y-8584491D02*
X11052249Y-8684491D01*
X11052249Y-8684491D02*
X11130758Y-8763000D01*
X3562403Y-14782800D02*
X3562403Y-14812800D01*
X3562403Y-14812800D02*
X3762502Y-15012899D01*
X3762502Y-15012899D02*
X3762502Y-15036800D01*
X7216902Y-15046198D02*
X7216902Y-14640302D01*
X7216902Y-14640302D02*
X7194300Y-14617700D01*
X9375902Y-14938502D02*
X9271000Y-14833600D01*
X9271000Y-14833600D02*
X9271000Y-14725400D01*
X9375902Y-15036800D02*
X9375902Y-14938502D01*
X10899902Y-14913102D02*
X10795000Y-14808200D01*
X10795000Y-14808200D02*
X10795000Y-14725400D01*
X10899902Y-15036800D02*
X10899902Y-14913102D01*
X12344400Y-14808200D02*
X12420600Y-14884400D01*
X12420600Y-14884400D02*
X12420600Y-15036800D01*
X12344400Y-14725400D02*
X12344400Y-14808200D01*
X12661900Y-5638800D02*
X12598400Y-5702300D01*
X12598400Y-5702300D02*
X12534900Y-5765800D01*
X12595490Y-5490254D02*
X12595490Y-5699390D01*
X12595490Y-5699390D02*
X12598400Y-5702300D01*
X12534900Y-5765800D02*
X12457200Y-5765800D01*
X12457200Y-5765800D02*
X12285500Y-5937500D01*
X12285500Y-5937500D02*
X12255500Y-5937500D01*
X12661900Y-5584164D02*
X12661900Y-5638800D01*
X12660490Y-5490254D02*
X12660490Y-5582754D01*
X12660490Y-5582754D02*
X12661900Y-5584164D01*
X10210800Y-6390640D02*
X10210800Y-6375400D01*
X10099440Y-7491682D02*
X10099440Y-6502000D01*
X10207249Y-7599491D02*
X10099440Y-7491682D01*
X10207249Y-7639491D02*
X10207249Y-7599491D01*
X10099440Y-6502000D02*
X10210800Y-6390640D01*
X10502249Y-7444491D02*
X10502249Y-7189858D01*
X10547100Y-6562340D02*
X10718800Y-6390640D01*
X10718800Y-6390640D02*
X10718800Y-6375400D01*
X10547100Y-7145006D02*
X10547100Y-6562340D01*
X10502249Y-7189858D02*
X10547100Y-7145006D01*
X9067800Y-7647000D02*
X9065050Y-7647000D01*
X9065050Y-7647000D02*
X8998200Y-7580150D01*
X8998200Y-7580150D02*
X8998200Y-7550150D01*
X10702249Y-8946053D02*
X10643599Y-9004703D01*
X10702249Y-8584491D02*
X10702249Y-8946053D01*
X8775700Y-7797800D02*
X9067800Y-7797800D01*
X9067800Y-7797800D02*
X9537700Y-7797800D01*
X9067800Y-7647000D02*
X9067800Y-7797800D01*
X12331700Y-9068050D02*
X12648533Y-9068050D01*
X12648533Y-9068050D02*
X12723033Y-9142550D01*
X12331700Y-9607300D02*
X12361700Y-9607300D01*
X12361700Y-9607300D02*
X12572450Y-9396550D01*
X12572450Y-9396550D02*
X12723033Y-9396550D01*
X8153900Y-7886700D02*
X8153900Y-8089400D01*
X8153900Y-8089400D02*
X8077200Y-8166100D01*
X8426450Y-8572250D02*
X8304490Y-8572250D01*
X8304490Y-8572250D02*
X8155940Y-8423700D01*
X8155940Y-8423700D02*
X8140700Y-8423700D01*
X12790490Y-5490254D02*
X12790490Y-5715690D01*
X12820400Y-5902000D02*
X12820400Y-5922500D01*
X12877900Y-5803100D02*
X12877900Y-5844500D01*
X12877900Y-5844500D02*
X12820400Y-5902000D01*
X12790490Y-5715690D02*
X12877900Y-5803100D01*
X12458700Y-5937500D02*
X12615400Y-5937500D01*
X12615400Y-5937500D02*
X12630400Y-5922500D01*
X12630400Y-5902000D02*
X12630400Y-5922500D01*
X12572900Y-5844500D02*
X12630400Y-5902000D01*
X12572900Y-5803100D02*
X12572900Y-5844500D01*
X12725490Y-5490254D02*
X12725490Y-5650510D01*
X12725490Y-5650510D02*
X12572900Y-5803100D01*
X10207249Y-7739491D02*
X9974691Y-7739491D01*
X9974691Y-7739491D02*
X9956800Y-7721600D01*
X2400300Y-6958100D02*
X2395982Y-6953782D01*
X2395982Y-6953782D02*
X2395982Y-6620510D01*
X2133600Y-7194800D02*
X2163600Y-7194800D01*
X2163600Y-7194800D02*
X2400300Y-6958100D01*
X4299200Y-5816000D02*
X4299200Y-5865876D01*
X4076700Y-5683500D02*
X4166700Y-5683500D01*
X4166700Y-5683500D02*
X4299200Y-5816000D01*
X13963650Y-7159599D02*
X14537001Y-7159599D01*
X13199123Y-7159599D02*
X13963650Y-7159599D01*
X13963650Y-7159599D02*
X13963650Y-7023100D01*
X14692800Y-7003800D02*
X14782800Y-7003800D01*
X14537001Y-7159599D02*
X14692800Y-7003800D01*
X12428424Y-7930298D02*
X13199123Y-7159599D01*
X11804898Y-7930298D02*
X12428424Y-7930298D01*
X11767650Y-7893050D02*
X11804898Y-7930298D01*
X11722650Y-7893050D02*
X11767650Y-7893050D01*
X14903700Y-7003800D02*
X14922500Y-6985000D01*
X14922500Y-6985000D02*
X15049500Y-6985000D01*
X14782800Y-7003800D02*
X14903700Y-7003800D01*
X13963650Y-7233640D02*
X14523640Y-7233640D01*
X13370000Y-7233640D02*
X13963650Y-7233640D01*
X13963650Y-7233640D02*
X13963650Y-7372350D01*
X13300000Y-7240000D02*
X13363640Y-7240000D01*
X13363640Y-7240000D02*
X13370000Y-7233640D01*
X14523640Y-7233640D02*
X14624000Y-7334000D01*
X14624000Y-7334000D02*
X14782800Y-7334000D01*
X10929613Y-7132774D02*
X10867113Y-7195274D01*
X10960100Y-7102287D02*
X10929613Y-7132774D01*
X10960100Y-6972300D02*
X10960100Y-7102287D01*
X14907800Y-7239000D02*
X15049500Y-7239000D01*
X14782800Y-7334000D02*
X14812800Y-7334000D01*
X14812800Y-7334000D02*
X14907800Y-7239000D01*
X14776200Y-7340600D02*
X14782800Y-7334000D01*
D71*
X15608300Y-7239000D02*
X15495750Y-7239000D01*
X15495750Y-7239000D02*
X14886450Y-7848300D01*
D70*
X15608300Y-7112000D02*
X15608300Y-7239000D01*
D71*
X15608300Y-6985000D02*
X15651480Y-6985000D01*
X15651480Y-6985000D02*
X15936450Y-7269970D01*
X15936450Y-7269970D02*
X15936450Y-7740537D01*
D70*
X15936450Y-7740537D02*
X15936450Y-7848300D01*
X15608300Y-6858000D02*
X15608300Y-6985000D01*
X8775700Y-8572500D02*
X8985000Y-8363200D01*
X8985000Y-8363200D02*
X9150350Y-8363200D01*
X9537700Y-8572500D02*
X9328400Y-8363200D01*
X9328400Y-8363200D02*
X9150350Y-8363200D01*
X9537700Y-8368258D02*
X9727460Y-8178499D01*
X10107249Y-8189491D02*
X10207249Y-8189491D01*
X9727460Y-8178499D02*
X9868640Y-8178499D01*
X9879633Y-8189491D02*
X10107249Y-8189491D01*
X9868640Y-8178499D02*
X9879633Y-8189491D01*
X9537700Y-8572500D02*
X9537700Y-8368258D01*
X12241700Y-9258050D02*
X12331700Y-9258050D01*
X12204450Y-9258050D02*
X12241700Y-9258050D01*
X11575800Y-8629400D02*
X12204450Y-9258050D01*
X11237158Y-8629400D02*
X11575800Y-8629400D01*
X11192249Y-8584491D02*
X11237158Y-8629400D01*
X11152249Y-8584491D02*
X11192249Y-8584491D01*
X11347249Y-8389491D02*
X11407249Y-8389491D01*
X12429200Y-9349800D02*
X12361700Y-9417300D01*
X11407249Y-8389491D02*
X12208307Y-9190550D01*
X12208307Y-9190550D02*
X12422700Y-9190550D01*
X12422700Y-9190550D02*
X12429200Y-9197050D01*
X12429200Y-9197050D02*
X12429200Y-9349800D01*
X12361700Y-9417300D02*
X12331700Y-9417300D01*
X10207249Y-8089491D02*
X10107249Y-8089491D01*
X10107249Y-8089491D02*
X10106254Y-8088496D01*
X10106254Y-8088496D02*
X9690180Y-8088496D01*
X9690180Y-8088496D02*
X9599126Y-8179550D01*
X9599126Y-8179550D02*
X8420850Y-8179550D01*
X8420850Y-8179550D02*
X8343900Y-8102600D01*
X8343900Y-8102600D02*
X8343900Y-7886700D01*
X8516450Y-8382250D02*
X8426450Y-8382250D01*
X8663080Y-8235620D02*
X8516450Y-8382250D01*
X9606698Y-8235620D02*
X8663080Y-8235620D01*
X9708820Y-8133498D02*
X9606698Y-8235620D01*
X10207249Y-8139491D02*
X9893274Y-8139491D01*
X9887280Y-8133498D02*
X9708820Y-8133498D01*
X9893274Y-8139491D02*
X9887280Y-8133498D01*
X12820400Y-6142500D02*
X12820400Y-6362700D01*
X12820400Y-6362700D02*
X12827000Y-6369300D01*
X11757502Y-6788575D02*
X11815077Y-6731000D01*
X11815077Y-6731000D02*
X12719000Y-6731000D01*
X12719000Y-6731000D02*
X12826300Y-6623700D01*
X12826300Y-6623700D02*
X12826300Y-6620000D01*
X12826300Y-6620000D02*
X12827000Y-6619300D01*
X12827000Y-6619300D02*
X12827000Y-6559300D01*
X12827000Y-6559300D02*
X12797000Y-6559300D01*
X10682139Y-7028064D02*
X10687103Y-7023100D01*
X10682139Y-7146893D02*
X10682139Y-7028064D01*
X10602249Y-7444491D02*
X10602249Y-7226784D01*
X10602249Y-7226784D02*
X10682139Y-7146893D01*
X12630400Y-6142500D02*
X12630400Y-6362700D01*
X12630400Y-6362700D02*
X12623800Y-6369300D01*
X11895943Y-6660515D02*
X11897453Y-6662024D01*
X12101612Y-6673911D02*
X12103121Y-6675421D01*
X11642895Y-6574203D02*
X11746192Y-6677500D01*
X11746192Y-6677500D02*
X11840000Y-6677500D01*
X11901612Y-6673911D02*
X11903121Y-6675421D01*
X12098588Y-6663832D02*
X12099293Y-6665847D01*
X12053121Y-6660515D02*
X12054929Y-6659379D01*
X12345943Y-6675421D02*
X12347453Y-6673911D01*
X11847453Y-6673911D02*
X11848588Y-6672104D01*
X12001612Y-6673911D02*
X12003121Y-6675421D01*
X11904929Y-6676556D02*
X11906944Y-6677261D01*
X12150476Y-6663832D02*
X12151612Y-6662024D01*
X11953121Y-6660515D02*
X11954929Y-6659379D01*
X12006944Y-6677261D02*
X12009065Y-6677500D01*
X11840000Y-6677500D02*
X11842121Y-6677261D01*
X12047453Y-6673911D02*
X12048588Y-6672104D01*
X12259065Y-6658435D02*
X12290000Y-6658435D01*
X11849771Y-6665847D02*
X11850476Y-6663832D01*
X12249293Y-6670089D02*
X12249771Y-6665847D01*
X11842121Y-6677261D02*
X11844136Y-6676556D01*
X11849293Y-6670089D02*
X11849771Y-6665847D01*
X12240000Y-6677500D02*
X12242121Y-6677261D01*
X12049293Y-6670089D02*
X12049771Y-6665847D01*
X11897453Y-6662024D02*
X11898588Y-6663832D01*
X12250476Y-6663832D02*
X12251612Y-6662024D01*
X11900476Y-6672104D02*
X11901612Y-6673911D01*
X12404929Y-6676556D02*
X12406944Y-6677261D01*
X11950476Y-6663832D02*
X11951612Y-6662024D01*
X11898588Y-6663832D02*
X11899293Y-6665847D01*
X11844136Y-6676556D02*
X11845943Y-6675421D01*
X11906944Y-6677261D02*
X11909065Y-6677500D01*
X12295943Y-6660515D02*
X12297453Y-6662024D01*
X11894136Y-6659379D02*
X11895943Y-6660515D01*
X12056944Y-6658674D02*
X12059065Y-6658435D01*
X11845943Y-6675421D02*
X11847453Y-6673911D01*
X12400476Y-6672104D02*
X12401612Y-6673911D01*
X11848588Y-6672104D02*
X11849293Y-6670089D01*
X12144136Y-6676556D02*
X12145943Y-6675421D01*
X12092121Y-6658674D02*
X12094136Y-6659379D01*
X12249771Y-6665847D02*
X12250476Y-6663832D01*
X11850476Y-6663832D02*
X11851612Y-6662024D01*
X11856944Y-6658674D02*
X11859065Y-6658435D01*
X11851612Y-6662024D02*
X11853121Y-6660515D01*
X12351612Y-6662024D02*
X12353121Y-6660515D01*
X12394136Y-6659379D02*
X12395943Y-6660515D01*
X11999293Y-6665847D02*
X11999771Y-6670089D01*
X12095943Y-6660515D02*
X12097453Y-6662024D01*
X11859065Y-6658435D02*
X11890000Y-6658435D01*
X11853121Y-6660515D02*
X11854929Y-6659379D01*
X11992121Y-6658674D02*
X11994136Y-6659379D01*
X12190000Y-6658435D02*
X12192121Y-6658674D01*
X11854929Y-6659379D02*
X11856944Y-6658674D01*
X12299293Y-6665847D02*
X12299771Y-6670089D01*
X11890000Y-6658435D02*
X11892121Y-6658674D01*
X11909065Y-6677500D02*
X11940000Y-6677500D01*
X11892121Y-6658674D02*
X11894136Y-6659379D01*
X12204929Y-6676556D02*
X12206944Y-6677261D01*
X11899293Y-6665847D02*
X11899771Y-6670089D01*
X12000476Y-6672104D02*
X12001612Y-6673911D01*
X11903121Y-6675421D02*
X11904929Y-6676556D01*
X11999771Y-6670089D02*
X12000476Y-6672104D01*
X11940000Y-6677500D02*
X11942121Y-6677261D01*
X11899771Y-6670089D02*
X11900476Y-6672104D01*
X12197453Y-6662024D02*
X12198588Y-6663832D01*
X11942121Y-6677261D02*
X11944136Y-6676556D01*
X12350476Y-6663832D02*
X12351612Y-6662024D01*
X11944136Y-6676556D02*
X11945943Y-6675421D01*
X11998588Y-6663832D02*
X11999293Y-6665847D01*
X11959065Y-6658435D02*
X11990000Y-6658435D01*
X11945943Y-6675421D02*
X11947453Y-6673911D01*
X11947453Y-6673911D02*
X11948588Y-6672104D01*
X12242121Y-6677261D02*
X12244136Y-6676556D01*
X12103121Y-6675421D02*
X12104929Y-6676556D01*
X11948588Y-6672104D02*
X11949293Y-6670089D01*
X11949293Y-6670089D02*
X11949771Y-6665847D01*
X11949771Y-6665847D02*
X11950476Y-6663832D01*
X12354929Y-6659379D02*
X12356944Y-6658674D01*
X12399293Y-6665847D02*
X12399771Y-6670089D01*
X12040000Y-6677500D02*
X12042121Y-6677261D01*
X12159065Y-6658435D02*
X12190000Y-6658435D01*
X12348588Y-6672104D02*
X12349293Y-6670089D01*
X12403121Y-6675421D02*
X12404929Y-6676556D01*
X11951612Y-6662024D02*
X11953121Y-6660515D01*
X12048588Y-6672104D02*
X12049293Y-6670089D01*
X12148588Y-6672104D02*
X12149293Y-6670089D01*
X11954929Y-6659379D02*
X11956944Y-6658674D01*
X12347453Y-6673911D02*
X12348588Y-6672104D01*
X11956944Y-6658674D02*
X11959065Y-6658435D01*
X11990000Y-6658435D02*
X11992121Y-6658674D01*
X11997453Y-6662024D02*
X11998588Y-6663832D01*
X12042121Y-6677261D02*
X12044136Y-6676556D01*
X12050476Y-6663832D02*
X12051612Y-6662024D01*
X11994136Y-6659379D02*
X11995943Y-6660515D01*
X12297453Y-6662024D02*
X12298588Y-6663832D01*
X12201612Y-6673911D02*
X12203121Y-6675421D01*
X11995943Y-6660515D02*
X11997453Y-6662024D01*
X12109065Y-6677500D02*
X12140000Y-6677500D01*
X12003121Y-6675421D02*
X12004929Y-6676556D01*
X12004929Y-6676556D02*
X12006944Y-6677261D01*
X12097453Y-6662024D02*
X12098588Y-6663832D01*
X12244136Y-6676556D02*
X12245943Y-6675421D01*
X12009065Y-6677500D02*
X12040000Y-6677500D01*
X12044136Y-6676556D02*
X12045943Y-6675421D01*
X12045943Y-6675421D02*
X12047453Y-6673911D01*
X12247453Y-6673911D02*
X12248588Y-6672104D01*
X12049771Y-6665847D02*
X12050476Y-6663832D01*
X12051612Y-6662024D02*
X12053121Y-6660515D01*
X12054929Y-6659379D02*
X12056944Y-6658674D01*
X12059065Y-6658435D02*
X12090000Y-6658435D01*
X12409065Y-6677500D02*
X12565600Y-6677500D01*
X12090000Y-6658435D02*
X12092121Y-6658674D01*
X12194136Y-6659379D02*
X12195943Y-6660515D01*
X12094136Y-6659379D02*
X12095943Y-6660515D01*
X12099293Y-6665847D02*
X12099771Y-6670089D01*
X12099771Y-6670089D02*
X12100476Y-6672104D01*
X12392121Y-6658674D02*
X12394136Y-6659379D01*
X12100476Y-6672104D02*
X12101612Y-6673911D01*
X12104929Y-6676556D02*
X12106944Y-6677261D01*
X12106944Y-6677261D02*
X12109065Y-6677500D01*
X12140000Y-6677500D02*
X12142121Y-6677261D01*
X12623800Y-6619300D02*
X12623800Y-6559300D01*
X12142121Y-6677261D02*
X12144136Y-6676556D01*
X12199771Y-6670089D02*
X12200476Y-6672104D01*
X12145943Y-6675421D02*
X12147453Y-6673911D01*
X12147453Y-6673911D02*
X12148588Y-6672104D01*
X12203121Y-6675421D02*
X12204929Y-6676556D01*
X12198588Y-6663832D02*
X12199293Y-6665847D01*
X12149293Y-6670089D02*
X12149771Y-6665847D01*
X12406944Y-6677261D02*
X12409065Y-6677500D01*
X12149771Y-6665847D02*
X12150476Y-6663832D01*
X12151612Y-6662024D02*
X12153121Y-6660515D01*
X12153121Y-6660515D02*
X12154929Y-6659379D01*
X12154929Y-6659379D02*
X12156944Y-6658674D01*
X12156944Y-6658674D02*
X12159065Y-6658435D01*
X12192121Y-6658674D02*
X12194136Y-6659379D01*
X12195943Y-6660515D02*
X12197453Y-6662024D01*
X12199293Y-6665847D02*
X12199771Y-6670089D01*
X12200476Y-6672104D02*
X12201612Y-6673911D01*
X12206944Y-6677261D02*
X12209065Y-6677500D01*
X12209065Y-6677500D02*
X12240000Y-6677500D01*
X12245943Y-6675421D02*
X12247453Y-6673911D01*
X12254929Y-6659379D02*
X12256944Y-6658674D01*
X12248588Y-6672104D02*
X12249293Y-6670089D01*
X12251612Y-6662024D02*
X12253121Y-6660515D01*
X12253121Y-6660515D02*
X12254929Y-6659379D01*
X12304929Y-6676556D02*
X12306944Y-6677261D01*
X12256944Y-6658674D02*
X12259065Y-6658435D01*
X12290000Y-6658435D02*
X12292121Y-6658674D01*
X12292121Y-6658674D02*
X12294136Y-6659379D01*
X12294136Y-6659379D02*
X12295943Y-6660515D01*
X12298588Y-6663832D02*
X12299293Y-6665847D01*
X12299771Y-6670089D02*
X12300476Y-6672104D01*
X12300476Y-6672104D02*
X12301612Y-6673911D01*
X12301612Y-6673911D02*
X12303121Y-6675421D01*
X12303121Y-6675421D02*
X12304929Y-6676556D01*
X12344136Y-6676556D02*
X12345943Y-6675421D01*
X12306944Y-6677261D02*
X12309065Y-6677500D01*
X12309065Y-6677500D02*
X12340000Y-6677500D01*
X12340000Y-6677500D02*
X12342121Y-6677261D01*
X12342121Y-6677261D02*
X12344136Y-6676556D01*
X12349293Y-6670089D02*
X12349771Y-6665847D01*
X12349771Y-6665847D02*
X12350476Y-6663832D01*
X12353121Y-6660515D02*
X12354929Y-6659379D01*
X12356944Y-6658674D02*
X12359065Y-6658435D01*
X12359065Y-6658435D02*
X12390000Y-6658435D01*
X12390000Y-6658435D02*
X12392121Y-6658674D01*
X12395943Y-6660515D02*
X12397453Y-6662024D01*
X12399771Y-6670089D02*
X12400476Y-6672104D01*
X12397453Y-6662024D02*
X12398588Y-6663832D01*
X12398588Y-6663832D02*
X12399293Y-6665847D01*
X12401612Y-6673911D02*
X12403121Y-6675421D01*
X12565600Y-6677500D02*
X12623800Y-6619300D01*
X10552249Y-7444491D02*
X10552249Y-7213143D01*
X10552249Y-7213143D02*
X10592101Y-7173290D01*
X10592101Y-6928657D02*
X10642100Y-6878658D01*
X10592101Y-7173290D02*
X10592101Y-6928657D01*
X12118200Y-6781800D02*
X11985362Y-6914637D01*
X11985362Y-6914637D02*
X11813924Y-6914637D01*
X12803100Y-6781800D02*
X12118200Y-6781800D01*
X10702249Y-7254066D02*
X10772141Y-7184173D01*
X10702249Y-7444491D02*
X10702249Y-7254066D01*
X10772141Y-7184173D02*
X10772141Y-7152858D01*
X10772141Y-7152858D02*
X10883900Y-7041100D01*
X10883900Y-7041100D02*
X10883900Y-6914820D01*
X10919984Y-6878736D02*
X10919984Y-6790347D01*
X10883900Y-6914820D02*
X10919984Y-6878736D01*
X13025600Y-6559300D02*
X12803100Y-6781800D01*
X13055600Y-6559300D02*
X13025600Y-6559300D01*
X13055600Y-6559300D02*
X13258800Y-6559300D01*
X11347249Y-7839491D02*
X11447249Y-7839491D01*
X11447249Y-7839491D02*
X11456190Y-7830550D01*
X11456190Y-7830550D02*
X11968150Y-7830550D01*
X11347249Y-7889491D02*
X11629091Y-7889491D01*
X11629091Y-7889491D02*
X11632650Y-7893050D01*
X10727140Y-7131062D02*
X10834300Y-7023902D01*
X10652249Y-7444491D02*
X10652249Y-7240425D01*
X10834300Y-7023902D02*
X10834300Y-6985000D01*
X10652249Y-7240425D02*
X10727140Y-7165533D01*
X10727140Y-7165533D02*
X10727140Y-7131062D01*
X5918100Y-6855400D02*
X5787700Y-6855400D01*
X5941000Y-6515100D02*
X6001000Y-6515100D01*
X5853800Y-6515100D02*
X5941000Y-6515100D01*
X5689600Y-6679300D02*
X5853800Y-6515100D01*
X5689600Y-6757300D02*
X5689600Y-6679300D01*
X5787700Y-6855400D02*
X5689600Y-6757300D01*
X5965600Y-6902900D02*
X5918100Y-6855400D01*
X5965600Y-6967900D02*
X5965600Y-6902900D01*
X11347249Y-7739491D02*
X11247249Y-7739491D01*
X11247249Y-7739491D02*
X11239749Y-7731991D01*
X11610000Y-6950000D02*
X11610000Y-6740000D01*
X11455400Y-7105523D02*
X11455400Y-7104600D01*
X11239749Y-7731991D02*
X11239749Y-7321175D01*
X11239749Y-7321175D02*
X11455400Y-7105523D01*
X11455400Y-7104600D02*
X11610000Y-6950000D01*
X7982701Y-5885699D02*
X7982701Y-5538617D01*
X11610000Y-6740000D02*
X11470000Y-6600000D01*
X11264000Y-5879200D02*
X9196100Y-5879200D01*
X11470000Y-6600000D02*
X11470000Y-6085200D01*
X9149999Y-5925301D02*
X8022303Y-5925301D01*
X9196100Y-5879200D02*
X9149999Y-5925301D01*
X11470000Y-6085200D02*
X11264000Y-5879200D01*
X8022303Y-5925301D02*
X7982701Y-5885699D01*
X7982701Y-5538617D02*
X7897983Y-5453899D01*
X7897983Y-5453899D02*
X5226801Y-5453899D01*
X5226801Y-5453899D02*
X4406900Y-6273800D01*
X4406900Y-6273800D02*
X3353900Y-7326800D01*
X4076700Y-5873500D02*
X4076700Y-5933500D01*
X4076700Y-5933500D02*
X4406900Y-6263700D01*
X4406900Y-6263700D02*
X4406900Y-6273800D01*
X3353900Y-7388300D02*
X3293900Y-7448300D01*
X3353900Y-7326800D02*
X3353900Y-7388300D01*
X3293900Y-7448300D02*
X3263900Y-7448300D01*
X2987800Y-7505700D02*
X3206500Y-7505700D01*
X3206500Y-7505700D02*
X3263900Y-7448300D01*
D71*
X15586450Y-7848300D02*
X15586450Y-7498450D01*
D70*
X15586450Y-7498450D02*
X15598250Y-7486650D01*
X2641600Y-9817100D02*
X2641600Y-10074749D01*
X2641600Y-10074749D02*
X2641403Y-10074946D01*
X12725400Y-7480300D02*
X12725400Y-7366000D01*
X12725400Y-7366000D02*
X12319000Y-6959600D01*
X11347249Y-8239491D02*
X11653609Y-8239491D01*
X11653609Y-8239491D02*
X11670000Y-8223100D01*
X11670000Y-8223100D02*
X11703200Y-8223100D01*
X11703200Y-8223100D02*
X11811000Y-8115300D01*
X2324100Y-9817100D02*
X2324100Y-10074749D01*
X2324100Y-10074749D02*
X2323903Y-10074946D01*
X12547600Y-7556500D02*
X12547600Y-7327900D01*
X12547600Y-7327900D02*
X12141200Y-6921500D01*
X11604214Y-8163418D02*
X11666714Y-8100918D01*
X11578141Y-8189491D02*
X11604214Y-8163418D01*
X11347249Y-8189491D02*
X11578141Y-8189491D01*
X7221228Y-9766638D02*
X7268728Y-9766638D01*
X7268728Y-9766638D02*
X7282400Y-9752966D01*
X7282400Y-9752966D02*
X7282400Y-9596900D01*
X7282400Y-9596900D02*
X7282400Y-9486900D01*
X7221228Y-9766638D02*
X7323728Y-9766638D01*
X7323728Y-9766638D02*
X7450728Y-9893638D01*
X7450728Y-9893638D02*
X7658728Y-9893638D01*
X7658728Y-9893638D02*
X7761228Y-9893638D01*
X5232400Y-9766638D02*
X5080000Y-9766638D01*
X5080000Y-9766638D02*
X5037728Y-9766638D01*
X5072600Y-9486900D02*
X5072600Y-9596900D01*
X5072600Y-9596900D02*
X5080000Y-9604300D01*
X5080000Y-9604300D02*
X5080000Y-9766638D01*
X5245728Y-9766638D02*
X5232400Y-9766638D01*
X5233062Y-9766638D02*
X5232400Y-9766638D01*
X5475228Y-9893638D02*
X5372728Y-9893638D01*
X5372728Y-9893638D02*
X5245728Y-9766638D01*
X5037728Y-9766638D02*
X4935228Y-9766638D01*
X6883400Y-10153900D02*
X6973400Y-10153900D01*
X6973400Y-10153900D02*
X7106662Y-10020638D01*
X7106662Y-10020638D02*
X7221228Y-10020638D01*
X6794500Y-12762000D02*
X6794500Y-12446000D01*
X6891500Y-12859000D02*
X6794500Y-12762000D01*
X6921500Y-12859000D02*
X6891500Y-12859000D01*
X6756738Y-12408238D02*
X6794500Y-12446000D01*
X6794500Y-12446000D02*
X6826500Y-12478000D01*
X6921500Y-12478000D02*
X6951500Y-12478000D01*
X6951500Y-12478000D02*
X7142500Y-12287000D01*
X7142500Y-12287000D02*
X7175500Y-12287000D01*
X6826500Y-12478000D02*
X6921500Y-12478000D01*
X6592828Y-12408238D02*
X6756738Y-12408238D01*
X7175500Y-12287000D02*
X7145500Y-12287000D01*
X5853266Y-12433300D02*
X5842000Y-12433300D01*
X6052828Y-12281238D02*
X6005328Y-12281238D01*
X6005328Y-12281238D02*
X5853266Y-12433300D01*
X5842000Y-12634500D02*
X5842000Y-12433300D01*
X5461000Y-12350500D02*
X5461000Y-12410500D01*
X5461000Y-12410500D02*
X5483800Y-12433300D01*
X5483800Y-12433300D02*
X5842000Y-12433300D01*
X5715000Y-12731500D02*
X5715000Y-12922500D01*
X5715000Y-12731500D02*
X5745000Y-12731500D01*
X5745000Y-12731500D02*
X5842000Y-12634500D01*
X3308600Y-12280900D02*
X3308600Y-12479849D01*
X3308600Y-12479849D02*
X3180903Y-12607546D01*
X3180903Y-12607546D02*
X3133403Y-12607546D01*
X2101903Y-12290046D02*
X2101903Y-12480046D01*
X2101903Y-12480046D02*
X1974403Y-12607546D01*
X1974403Y-12607546D02*
X1926903Y-12607546D01*
X9715500Y-8458200D02*
X9653000Y-8395700D01*
X9746100Y-8223500D02*
X9850000Y-8223500D01*
X9865992Y-8239491D02*
X10107249Y-8239491D01*
X9653000Y-8316599D02*
X9746100Y-8223500D01*
X9850000Y-8223500D02*
X9865992Y-8239491D01*
X9653000Y-8395700D02*
X9653000Y-8316599D01*
X10107249Y-8239491D02*
X10207249Y-8239491D01*
X6927850Y-14242800D02*
X6889500Y-14242800D01*
X6889500Y-14242800D02*
X6716700Y-14070000D01*
X6716700Y-14070000D02*
X6616700Y-13970000D01*
X9782750Y-9191050D02*
X9664700Y-9309100D01*
X9766300Y-8826500D02*
X9766300Y-8960350D01*
X9766300Y-8960350D02*
X9782750Y-8976800D01*
X9782750Y-8976800D02*
X9782750Y-9191050D01*
X9779000Y-8813800D02*
X9766300Y-8826500D01*
X9817100Y-8775700D02*
X9779000Y-8813800D01*
X9957101Y-8724599D02*
X9868201Y-8724599D01*
X9868201Y-8724599D02*
X9817100Y-8775700D01*
X10410641Y-8724599D02*
X9957101Y-8724599D01*
X10452249Y-8682991D02*
X10410641Y-8724599D01*
X10452249Y-8584491D02*
X10452249Y-8682991D01*
X9176000Y-13589000D02*
X9176000Y-13398000D01*
X9176000Y-13398000D02*
X9194800Y-13379200D01*
X9093200Y-14125471D02*
X9090129Y-14125471D01*
X9090129Y-14125471D02*
X8966200Y-14249400D01*
X9201400Y-14298676D02*
X9201400Y-14233671D01*
X9201400Y-14233671D02*
X9093200Y-14125471D01*
X9093200Y-14125471D02*
X9093200Y-13893800D01*
X9176000Y-13811000D02*
X9093200Y-13893800D01*
X9176000Y-13589000D02*
X9176000Y-13811000D01*
X9877058Y-8965337D02*
X9877058Y-9165858D01*
X9877058Y-9165858D02*
X9880600Y-9169400D01*
X9877058Y-8876949D02*
X9877058Y-8965337D01*
X10502249Y-8584491D02*
X10502249Y-8696632D01*
X10502249Y-8696632D02*
X10429281Y-8769600D01*
X9984407Y-8769600D02*
X9877058Y-8876949D01*
X10429281Y-8769600D02*
X9984407Y-8769600D01*
X10487600Y-13589000D02*
X10547600Y-13589000D01*
X8877300Y-12115288D02*
X8922000Y-12159988D01*
X10020300Y-13398500D02*
X10210800Y-13589000D01*
X8922000Y-12490700D02*
X9258300Y-12827000D01*
X9880600Y-12827000D02*
X10020300Y-12966700D01*
X8877300Y-12026900D02*
X8877300Y-12115288D01*
X9258300Y-12827000D02*
X9880600Y-12827000D01*
X10210800Y-13589000D02*
X10487600Y-13589000D01*
X10020300Y-12966700D02*
X10020300Y-13398500D01*
X8922000Y-12159988D02*
X8922000Y-12490700D01*
X10547600Y-13589000D02*
X10547600Y-13404600D01*
X10547600Y-13404600D02*
X10591800Y-13360400D01*
X10476500Y-14175998D02*
X10414000Y-14238498D01*
X10479298Y-14173200D02*
X10476500Y-14175998D01*
X10490200Y-14173200D02*
X10479298Y-14173200D01*
X10541000Y-14122400D02*
X10490200Y-14173200D01*
X10615676Y-14324076D02*
X10490200Y-14198600D01*
X10490200Y-14198600D02*
X10490200Y-14173200D01*
X10700000Y-14324076D02*
X10615676Y-14324076D01*
X10541000Y-13685600D02*
X10541000Y-14122400D01*
X10547600Y-13589000D02*
X10547600Y-13679000D01*
X10547600Y-13679000D02*
X10541000Y-13685600D01*
X8956849Y-12614449D02*
X8911259Y-12614449D01*
X9525000Y-13182600D02*
X8956849Y-12614449D01*
X10045700Y-8851900D02*
X10033000Y-8864600D01*
X10058400Y-8851900D02*
X10045700Y-8851900D01*
X10410622Y-8851900D02*
X10058400Y-8851900D01*
X10552249Y-8584491D02*
X10552249Y-8710274D01*
X10552249Y-8710274D02*
X10410622Y-8851900D01*
X12446000Y-13614400D02*
X12446000Y-13722600D01*
X12446000Y-13722600D02*
X12339400Y-13829200D01*
X12339400Y-13829200D02*
X12309400Y-13829200D01*
X12249400Y-13889200D02*
X12249400Y-13919200D01*
X12309400Y-13829200D02*
X12249400Y-13889200D01*
X12249400Y-13949200D02*
X12141200Y-14057400D01*
X12160519Y-14076719D02*
X12141200Y-14057400D01*
X12141200Y-14057400D02*
X12039600Y-14159000D01*
X12160519Y-14325600D02*
X12160519Y-14076719D01*
X12249400Y-14349476D02*
X12184395Y-14349476D01*
X12184395Y-14349476D02*
X12160519Y-14325600D01*
X12249400Y-13919200D02*
X12249400Y-13949200D01*
X12039600Y-14159000D02*
X12039600Y-14173200D01*
X11397892Y-6687892D02*
X11490000Y-6780000D01*
X11490000Y-6780000D02*
X11490000Y-6835000D01*
X11397892Y-6114692D02*
X11397892Y-6687892D01*
X6745600Y-6967900D02*
X6745600Y-7080400D01*
X7093103Y-7432105D02*
X7094598Y-7438654D01*
X7063505Y-7486785D02*
X7060590Y-7492838D01*
X7128426Y-7505653D02*
X7133678Y-7501464D01*
X7072946Y-7528148D02*
X7078998Y-7531062D01*
X6745600Y-7080400D02*
X7086000Y-7420800D01*
X7086000Y-7420800D02*
X7090188Y-7426052D01*
X7090188Y-7426052D02*
X7093103Y-7432105D01*
X7059095Y-7499387D02*
X7059095Y-7506105D01*
X7094598Y-7438654D02*
X7094598Y-7445372D01*
X7104868Y-7528148D02*
X7110120Y-7523959D01*
X7094598Y-7445372D02*
X7093103Y-7451921D01*
X7093103Y-7451921D02*
X7090188Y-7457974D01*
X7090188Y-7457974D02*
X7086000Y-7463226D01*
X7152998Y-7497055D02*
X7159548Y-7498549D01*
X7139731Y-7498549D02*
X7146280Y-7497055D01*
X7086000Y-7463226D02*
X7067693Y-7481533D01*
X11225147Y-5941947D02*
X11397892Y-6114692D01*
X7067693Y-7481533D02*
X7063505Y-7486785D01*
X7098815Y-7531062D02*
X7104868Y-7528148D01*
X7060590Y-7492838D02*
X7059095Y-7499387D01*
X7059095Y-7506105D02*
X7060590Y-7512654D01*
X7060590Y-7512654D02*
X7063505Y-7518707D01*
X7063505Y-7518707D02*
X7067693Y-7523959D01*
X7067693Y-7523959D02*
X7072946Y-7528148D01*
X7078998Y-7531062D02*
X7085548Y-7532557D01*
X7085548Y-7532557D02*
X7092266Y-7532557D01*
X7092266Y-7532557D02*
X7098815Y-7531062D01*
X7133678Y-7501464D02*
X7139731Y-7498549D01*
X7110120Y-7523959D02*
X7128426Y-7505653D01*
X7146280Y-7497055D02*
X7152998Y-7497055D01*
X7170853Y-7505653D02*
X7374100Y-7708900D01*
X7159548Y-7498549D02*
X7165600Y-7501464D01*
X7165600Y-7501464D02*
X7170853Y-7505653D01*
X7374100Y-7708900D02*
X7759277Y-7708900D01*
X7759277Y-7708900D02*
X9526230Y-5941947D01*
X9526230Y-5941947D02*
X11225147Y-5941947D01*
X11360000Y-6790000D02*
X11360000Y-6835000D01*
X11352891Y-6164659D02*
X11352891Y-6782891D01*
X11175180Y-5986948D02*
X11352891Y-6164659D01*
X9544870Y-5986948D02*
X11175180Y-5986948D01*
X7759418Y-7772400D02*
X9544870Y-5986948D01*
X6680600Y-7226700D02*
X7226300Y-7772400D01*
X7226300Y-7772400D02*
X7759418Y-7772400D01*
X11352891Y-6782891D02*
X11360000Y-6790000D01*
X6680600Y-6967900D02*
X6680600Y-7226700D01*
X7416800Y-7581900D02*
X7461800Y-7536900D01*
X7461800Y-7536900D02*
X7474500Y-7536900D01*
X7474500Y-7536900D02*
X7696200Y-7315200D01*
X7696200Y-7315200D02*
X7696200Y-7099300D01*
X8686800Y-6248400D02*
X8813800Y-6121400D01*
X7696200Y-7099300D02*
X8547100Y-6248400D01*
X8547100Y-6248400D02*
X8686800Y-6248400D01*
X11519088Y-6007288D02*
X11308800Y-5797000D01*
X9163600Y-5797000D02*
X9118600Y-5842000D01*
X11519088Y-6560000D02*
X11519088Y-6007288D01*
X11480800Y-7340600D02*
X11480800Y-7276960D01*
X11308800Y-5797000D02*
X9163600Y-5797000D01*
X11480800Y-7276960D02*
X11506200Y-7251560D01*
X11506200Y-7251560D02*
X11508440Y-7251560D01*
X11508440Y-7251560D02*
X11680000Y-7080000D01*
X11680000Y-7080000D02*
X11680000Y-6720912D01*
X11680000Y-6720912D02*
X11519088Y-6560000D01*
X7378700Y-8204200D02*
X7264400Y-8089900D01*
X7264400Y-8089900D02*
X6775100Y-8089900D01*
X6775100Y-8089900D02*
X6485600Y-7800400D01*
X6485600Y-7800400D02*
X6485600Y-7687900D01*
X11052249Y-7444491D02*
X11052249Y-7544491D01*
X11052249Y-7544491D02*
X11115058Y-7607300D01*
X11115058Y-7607300D02*
X11137900Y-7607300D01*
X11307890Y-6702110D02*
X11230000Y-6780000D01*
X11230000Y-6780000D02*
X11230000Y-6840000D01*
X11307890Y-6183299D02*
X11307890Y-6702110D01*
X6615600Y-6967900D02*
X6615600Y-7225341D01*
X6615600Y-7225341D02*
X7207660Y-7817401D01*
X7207660Y-7817401D02*
X7778058Y-7817401D01*
X7778058Y-7817401D02*
X9563510Y-6031949D01*
X9563510Y-6031949D02*
X11156540Y-6031949D01*
X11156540Y-6031949D02*
X11307890Y-6183299D01*
X6745600Y-7687900D02*
X6745600Y-7800400D01*
X6995152Y-7863376D02*
X6997371Y-7869716D01*
X7198165Y-7868882D02*
X7200061Y-7867690D01*
X6745600Y-7800400D02*
X6831900Y-7886700D01*
X7204400Y-7866700D02*
X7244400Y-7866700D01*
X6934400Y-7716700D02*
X6935152Y-7710024D01*
X6994400Y-7856700D02*
X6995152Y-7863376D01*
X6831900Y-7886700D02*
X6904400Y-7886700D01*
X7194651Y-7874475D02*
X7195390Y-7872361D01*
X6904400Y-7886700D02*
X6911076Y-7885948D01*
X7196582Y-7870465D02*
X7198165Y-7868882D01*
X6917416Y-7883729D02*
X6923105Y-7880155D01*
X6911076Y-7885948D02*
X6917416Y-7883729D01*
X6993648Y-7710024D02*
X6994400Y-7716700D01*
X6923105Y-7880155D02*
X6927855Y-7875405D01*
X7071383Y-7774671D02*
X7077724Y-7772452D01*
X6927855Y-7875405D02*
X6931429Y-7869716D01*
X7114400Y-7801700D02*
X7114400Y-7856700D01*
X7103105Y-7778245D02*
X7107855Y-7782995D01*
X6940945Y-7697995D02*
X6945695Y-7693245D01*
X6931429Y-7869716D02*
X6933648Y-7863376D01*
X6957724Y-7687452D02*
X6964400Y-7686700D01*
X7017724Y-7885948D02*
X7024400Y-7886700D01*
X6933648Y-7863376D02*
X6934400Y-7856700D01*
X6934400Y-7856700D02*
X6934400Y-7716700D01*
X11100000Y-6795000D02*
X11100000Y-6840000D01*
X6935152Y-7710024D02*
X6937371Y-7703683D01*
X7186625Y-7886449D02*
X7188739Y-7885710D01*
X6983105Y-7693245D02*
X6987855Y-7697995D01*
X6937371Y-7703683D02*
X6940945Y-7697995D01*
X7192218Y-7882935D02*
X7193410Y-7881039D01*
X6945695Y-7693245D02*
X6951383Y-7689671D01*
X7037416Y-7883729D02*
X7043105Y-7880155D01*
X11112500Y-6076950D02*
X11262889Y-6227339D01*
X6951383Y-7689671D02*
X6957724Y-7687452D01*
X7254651Y-7878925D02*
X7255390Y-7881039D01*
X7024400Y-7886700D02*
X7031076Y-7885948D01*
X7055152Y-7795024D02*
X7057371Y-7788683D01*
X7043105Y-7880155D02*
X7047855Y-7875405D01*
X6964400Y-7686700D02*
X6971076Y-7687452D01*
X7190635Y-7884518D02*
X7192218Y-7882935D01*
X6971076Y-7687452D02*
X6977416Y-7689671D01*
X6994400Y-7716700D02*
X6994400Y-7856700D01*
X6977416Y-7689671D02*
X6983105Y-7693245D01*
X7254149Y-7874475D02*
X7254651Y-7878925D01*
X7053648Y-7863376D02*
X7054400Y-7856700D01*
X7005695Y-7880155D02*
X7011383Y-7883729D01*
X7113648Y-7795024D02*
X7114400Y-7801700D01*
X6987855Y-7697995D02*
X6991429Y-7703683D01*
X7000945Y-7875405D02*
X7005695Y-7880155D01*
X6991429Y-7703683D02*
X6993648Y-7710024D01*
X6997371Y-7869716D02*
X7000945Y-7875405D01*
X7246625Y-7866951D02*
X7248739Y-7867690D01*
X7011383Y-7883729D02*
X7017724Y-7885948D01*
X7131383Y-7883729D02*
X7137724Y-7885948D01*
X7031076Y-7885948D02*
X7037416Y-7883729D01*
X7248739Y-7867690D02*
X7250635Y-7868882D01*
X7047855Y-7875405D02*
X7051429Y-7869716D01*
X7107855Y-7782995D02*
X7111429Y-7788683D01*
X7065695Y-7778245D02*
X7071383Y-7774671D01*
X7051429Y-7869716D02*
X7053648Y-7863376D01*
X7054400Y-7856700D02*
X7054400Y-7801700D01*
X7253410Y-7872361D02*
X7254149Y-7874475D01*
X7114400Y-7856700D02*
X7115152Y-7863376D01*
X7054400Y-7801700D02*
X7055152Y-7795024D01*
X7188739Y-7885710D02*
X7190635Y-7884518D01*
X7057371Y-7788683D02*
X7060945Y-7782995D01*
X7060945Y-7782995D02*
X7065695Y-7778245D01*
X7137724Y-7885948D02*
X7144400Y-7886700D01*
X7077724Y-7772452D02*
X7084400Y-7771700D01*
X7084400Y-7771700D02*
X7091076Y-7772452D01*
X7252218Y-7870465D02*
X7253410Y-7872361D01*
X7091076Y-7772452D02*
X7097416Y-7774671D01*
X7097416Y-7774671D02*
X7103105Y-7778245D01*
X7255390Y-7881039D02*
X7256582Y-7882935D01*
X7111429Y-7788683D02*
X7113648Y-7795024D01*
X7115152Y-7863376D02*
X7117371Y-7869716D01*
X7117371Y-7869716D02*
X7120945Y-7875405D01*
X7120945Y-7875405D02*
X7125695Y-7880155D01*
X7125695Y-7880155D02*
X7131383Y-7883729D01*
X7260061Y-7885710D02*
X7262175Y-7886449D01*
X7144400Y-7886700D02*
X7184400Y-7886700D01*
X7244400Y-7866700D02*
X7246625Y-7866951D01*
X7258165Y-7884518D02*
X7260061Y-7885710D01*
X7184400Y-7886700D02*
X7186625Y-7886449D01*
X7193410Y-7881039D02*
X7194149Y-7878925D01*
X7194149Y-7878925D02*
X7194651Y-7874475D01*
X7195390Y-7872361D02*
X7196582Y-7870465D01*
X7200061Y-7867690D02*
X7202175Y-7866951D01*
X7202175Y-7866951D02*
X7204400Y-7866700D01*
X7250635Y-7868882D02*
X7252218Y-7870465D01*
X7256582Y-7882935D02*
X7258165Y-7884518D01*
X7772400Y-7886700D02*
X9582150Y-6076950D01*
X7262175Y-7886449D02*
X7264400Y-7886700D01*
X7264400Y-7886700D02*
X7772400Y-7886700D01*
X9582150Y-6076950D02*
X11112500Y-6076950D01*
X11262889Y-6227339D02*
X11262889Y-6632111D01*
X11262889Y-6632111D02*
X11100000Y-6795000D01*
X9760200Y-7137400D02*
X9645900Y-7023100D01*
X9475100Y-7023100D02*
X9215000Y-7283200D01*
X9645900Y-7023100D02*
X9475100Y-7023100D01*
X10207249Y-7939491D02*
X9846201Y-7939491D01*
X9846201Y-7939491D02*
X9760200Y-7853490D01*
X9760200Y-7853490D02*
X9760200Y-7137400D01*
X6680600Y-7800400D02*
X6680600Y-7687900D01*
X6816693Y-7936493D02*
X6680600Y-7800400D01*
X9215000Y-7283200D02*
X9098400Y-7283200D01*
X9098400Y-7283200D02*
X8863700Y-7048500D01*
X8863700Y-7048500D02*
X8678740Y-7048500D01*
X8678740Y-7048500D02*
X7790747Y-7936493D01*
X7790747Y-7936493D02*
X6816693Y-7936493D01*
X9715199Y-7156040D02*
X9633059Y-7073900D01*
X9487942Y-7073900D02*
X9233640Y-7328201D01*
X9633059Y-7073900D02*
X9487942Y-7073900D01*
X10207249Y-7989491D02*
X9832560Y-7989491D01*
X6615600Y-7800400D02*
X6615600Y-7687900D01*
X9832560Y-7989491D02*
X9715199Y-7872130D01*
X9715199Y-7872130D02*
X9715199Y-7156040D01*
X7802733Y-7988148D02*
X6803348Y-7988148D01*
X9233640Y-7328201D02*
X9079760Y-7328201D01*
X8690540Y-7100341D02*
X7802733Y-7988148D01*
X9079760Y-7328201D02*
X8851900Y-7100341D01*
X6803348Y-7988148D02*
X6615600Y-7800400D01*
X8851900Y-7100341D02*
X8690540Y-7100341D01*
X10207249Y-8039491D02*
X9818919Y-8039491D01*
X7821373Y-8033149D02*
X6783349Y-8033149D01*
X9818919Y-8039491D02*
X9659202Y-7879775D01*
X6550600Y-7800400D02*
X6550600Y-7687900D01*
X9659202Y-7879775D02*
X9659202Y-7195925D01*
X9659202Y-7195925D02*
X9601200Y-7137922D01*
X8691722Y-7162800D02*
X7821373Y-8033149D01*
X9601200Y-7137922D02*
X9512960Y-7137922D01*
X6783349Y-8033149D02*
X6550600Y-7800400D01*
X9512960Y-7137922D02*
X9277680Y-7373202D01*
X9277680Y-7373202D02*
X9040120Y-7373202D01*
X8829717Y-7162800D02*
X8691722Y-7162800D01*
X9040120Y-7373202D02*
X8829717Y-7162800D01*
X1879600Y-14026900D02*
X2381500Y-14026900D01*
X2381500Y-14026900D02*
X2438400Y-13970000D01*
X1625600Y-14541500D02*
X1904750Y-14541500D01*
X1904750Y-14541500D02*
X1917700Y-14528550D01*
X2832100Y-13703300D02*
X2743200Y-13703300D01*
X2590800Y-13855700D02*
X2590800Y-14122400D01*
X2743200Y-13703300D02*
X2590800Y-13855700D01*
X2590800Y-14122400D02*
X2457450Y-14255750D01*
X1917700Y-14528550D02*
X1947700Y-14528550D01*
X1947700Y-14528550D02*
X2220500Y-14255750D01*
X2220500Y-14255750D02*
X2457450Y-14255750D01*
X3562600Y-14504617D02*
X3562600Y-14569622D01*
X2832100Y-13306243D02*
X2832100Y-13703300D01*
X2832100Y-13703300D02*
X2832100Y-13754100D01*
X3403600Y-13614400D02*
X3340100Y-13677900D01*
X3467100Y-13804900D02*
X3340100Y-13677900D01*
X3340100Y-13677900D02*
X3048000Y-13970000D01*
X3467100Y-14409117D02*
X3467100Y-13804900D01*
X3562600Y-14504617D02*
X3467100Y-14409117D01*
X2832100Y-13754100D02*
X3048000Y-13970000D01*
X2466903Y-12988546D02*
X2514403Y-12988546D01*
X2514403Y-12988546D02*
X2832100Y-13306243D01*
X3403600Y-13210849D02*
X3403600Y-13614400D01*
X3673403Y-12988546D02*
X3625903Y-12988546D01*
X3625903Y-12988546D02*
X3403600Y-13210849D01*
X2743200Y-13995400D02*
X2933700Y-14185900D01*
X2933700Y-14185900D02*
X3149600Y-14185900D01*
X3149600Y-14185900D02*
X3149600Y-14184400D01*
X3149600Y-14184400D02*
X3340100Y-13993900D01*
X3340100Y-13993900D02*
X3340100Y-13963900D01*
X3340100Y-13963900D02*
X3372100Y-13931900D01*
X3752600Y-14569622D02*
X3752600Y-14782603D01*
X3752600Y-14782603D02*
X3752403Y-14782800D01*
X3752403Y-14569819D02*
X3752600Y-14569622D01*
X12363200Y-14535400D02*
X12439400Y-14459200D01*
X12439400Y-14459200D02*
X12439400Y-14349476D01*
X12344400Y-14535400D02*
X12363200Y-14535400D01*
X9391400Y-14298676D02*
X9391400Y-14445000D01*
X9301000Y-14535400D02*
X9271000Y-14535400D01*
X9391400Y-14445000D02*
X9301000Y-14535400D01*
X10890000Y-14324076D02*
X10890000Y-14440400D01*
X10890000Y-14440400D02*
X10795000Y-14535400D01*
X9715250Y-8736950D02*
X9715250Y-8977800D01*
X9778100Y-8674100D02*
X9715250Y-8736950D01*
X10110100Y-8674100D02*
X9778100Y-8674100D01*
X10314749Y-8469451D02*
X10110100Y-8674100D01*
X10314749Y-8298491D02*
X10314749Y-8469451D01*
X9715250Y-8977800D02*
X9715250Y-9067800D01*
X10207249Y-8289491D02*
X10305749Y-8289491D01*
X10305749Y-8289491D02*
X10314749Y-8298491D01*
X9715250Y-9067800D02*
X9715250Y-9097800D01*
X9715250Y-9097800D02*
X9647750Y-9165300D01*
X9647750Y-9165300D02*
X9470184Y-9165300D01*
X9470184Y-9165300D02*
X9298262Y-8993378D01*
X9298262Y-8993378D02*
X9264650Y-8993378D01*
X4343260Y-9371098D02*
X4406900Y-9371098D01*
X1949200Y-10051400D02*
X2629502Y-9371098D01*
X1949200Y-11374000D02*
X1949200Y-10051400D01*
X1454150Y-11869050D02*
X1949200Y-11374000D01*
X1454150Y-14120050D02*
X1454150Y-11869050D01*
X1625600Y-14291500D02*
X1454150Y-14120050D01*
X2629502Y-9371098D02*
X4343260Y-9371098D01*
X1625600Y-14351500D02*
X1625600Y-14291500D01*
X8934450Y-9169400D02*
X9145774Y-9169400D01*
X9145774Y-9169400D02*
X9169650Y-9193276D01*
X11004749Y-7315251D02*
X11230000Y-7090000D01*
X11230000Y-7090000D02*
X11230000Y-6930000D01*
X11004749Y-7441991D02*
X11004749Y-7315251D01*
X11002249Y-7444491D02*
X11004749Y-7441991D01*
X11100000Y-6975000D02*
X11100000Y-6930000D01*
X11100000Y-7156359D02*
X11100000Y-6975000D01*
X10952249Y-7444491D02*
X10952249Y-7304110D01*
X10952249Y-7304110D02*
X11100000Y-7156359D01*
X11102249Y-7444491D02*
X11102249Y-7291392D01*
X11360000Y-6970000D02*
X11360000Y-6925000D01*
X11102249Y-7291392D02*
X11360000Y-7033641D01*
X11360000Y-7033641D02*
X11360000Y-6970000D01*
X11152249Y-7444491D02*
X11152249Y-7307751D01*
X11152249Y-7307751D02*
X11490000Y-6970000D01*
X11490000Y-6970000D02*
X11490000Y-6925000D01*
D72*
G36*
X11150800Y-8319042D02*
X11156585Y-8348126D01*
X11173060Y-8372782D01*
X11193509Y-8393231D01*
X11201400Y-8398504D01*
X11201400Y-8455972D01*
X11192438Y-8449848D01*
X11167249Y-8444747D01*
X11137249Y-8444747D01*
X11126882Y-8446698D01*
X11117249Y-8444747D01*
X11087249Y-8444747D01*
X11076882Y-8446698D01*
X11067249Y-8444747D01*
X11037249Y-8444747D01*
X11026882Y-8446698D01*
X11017249Y-8444747D01*
X10987249Y-8444747D01*
X10980116Y-8446089D01*
X10979880Y-8445991D01*
X10975624Y-8445991D01*
X10974462Y-8447153D01*
X10963717Y-8449175D01*
X10952251Y-8456553D01*
X10942438Y-8449848D01*
X10930266Y-8447383D01*
X10928874Y-8445991D01*
X10924618Y-8445991D01*
X10924215Y-8446158D01*
X10917249Y-8444747D01*
X10887249Y-8444747D01*
X10876882Y-8446698D01*
X10867249Y-8444747D01*
X10837249Y-8444747D01*
X10826882Y-8446698D01*
X10817249Y-8444747D01*
X10787249Y-8444747D01*
X10776882Y-8446698D01*
X10767249Y-8444747D01*
X10744200Y-8444747D01*
X10744200Y-8064500D01*
X11150800Y-8064500D01*
X11150800Y-8319042D01*
X11150800Y-8319042D01*
G37*
X11150800Y-8319042D02*
X11156585Y-8348126D01*
X11173060Y-8372782D01*
X11193509Y-8393231D01*
X11201400Y-8398504D01*
X11201400Y-8455972D01*
X11192438Y-8449848D01*
X11167249Y-8444747D01*
X11137249Y-8444747D01*
X11126882Y-8446698D01*
X11117249Y-8444747D01*
X11087249Y-8444747D01*
X11076882Y-8446698D01*
X11067249Y-8444747D01*
X11037249Y-8444747D01*
X11026882Y-8446698D01*
X11017249Y-8444747D01*
X10987249Y-8444747D01*
X10980116Y-8446089D01*
X10979880Y-8445991D01*
X10975624Y-8445991D01*
X10974462Y-8447153D01*
X10963717Y-8449175D01*
X10952251Y-8456553D01*
X10942438Y-8449848D01*
X10930266Y-8447383D01*
X10928874Y-8445991D01*
X10924618Y-8445991D01*
X10924215Y-8446158D01*
X10917249Y-8444747D01*
X10887249Y-8444747D01*
X10876882Y-8446698D01*
X10867249Y-8444747D01*
X10837249Y-8444747D01*
X10826882Y-8446698D01*
X10817249Y-8444747D01*
X10787249Y-8444747D01*
X10776882Y-8446698D01*
X10767249Y-8444747D01*
X10744200Y-8444747D01*
X10744200Y-8064500D01*
X11150800Y-8064500D01*
X11150800Y-8319042D01*
G36*
X10987249Y-7584235D02*
X10989157Y-7584235D01*
X10998509Y-7598231D01*
X11029604Y-7629327D01*
X11045865Y-7668680D01*
X11076360Y-7699228D01*
X11116223Y-7715781D01*
X11159387Y-7715819D01*
X11163749Y-7714017D01*
X11163749Y-7731991D01*
X11169534Y-7761075D01*
X11176000Y-7770752D01*
X11176000Y-7988300D01*
X10731500Y-7988300D01*
X10708421Y-7992643D01*
X10687223Y-8006283D01*
X10673003Y-8027095D01*
X10668000Y-8051800D01*
X10668000Y-8444899D01*
X10667249Y-8444747D01*
X10637249Y-8444747D01*
X10626882Y-8446698D01*
X10617249Y-8444747D01*
X10587249Y-8444747D01*
X10576882Y-8446698D01*
X10567249Y-8444747D01*
X10537249Y-8444747D01*
X10526882Y-8446698D01*
X10517249Y-8444747D01*
X10487249Y-8444747D01*
X10478249Y-8446441D01*
X10478249Y-8294049D01*
X10474358Y-8274491D01*
X10472464Y-8264965D01*
X10455989Y-8240309D01*
X10413800Y-8198120D01*
X10413800Y-7584235D01*
X10417249Y-7584235D01*
X10427616Y-7582284D01*
X10437249Y-7584235D01*
X10467249Y-7584235D01*
X10477616Y-7582284D01*
X10487249Y-7584235D01*
X10517249Y-7584235D01*
X10527616Y-7582284D01*
X10537249Y-7584235D01*
X10567249Y-7584235D01*
X10577616Y-7582284D01*
X10587249Y-7584235D01*
X10617249Y-7584235D01*
X10627616Y-7582284D01*
X10637249Y-7584235D01*
X10667249Y-7584235D01*
X10677616Y-7582284D01*
X10687249Y-7584235D01*
X10717249Y-7584235D01*
X10727616Y-7582284D01*
X10737249Y-7584235D01*
X10767249Y-7584235D01*
X10777616Y-7582284D01*
X10787249Y-7584235D01*
X10817249Y-7584235D01*
X10827616Y-7582284D01*
X10837249Y-7584235D01*
X10867249Y-7584235D01*
X10877616Y-7582284D01*
X10887249Y-7584235D01*
X10917249Y-7584235D01*
X10927616Y-7582284D01*
X10937249Y-7584235D01*
X10967249Y-7584235D01*
X10977616Y-7582284D01*
X10987249Y-7584235D01*
X10987249Y-7584235D01*
G37*
X10987249Y-7584235D02*
X10989157Y-7584235D01*
X10998509Y-7598231D01*
X11029604Y-7629327D01*
X11045865Y-7668680D01*
X11076360Y-7699228D01*
X11116223Y-7715781D01*
X11159387Y-7715819D01*
X11163749Y-7714017D01*
X11163749Y-7731991D01*
X11169534Y-7761075D01*
X11176000Y-7770752D01*
X11176000Y-7988300D01*
X10731500Y-7988300D01*
X10708421Y-7992643D01*
X10687223Y-8006283D01*
X10673003Y-8027095D01*
X10668000Y-8051800D01*
X10668000Y-8444899D01*
X10667249Y-8444747D01*
X10637249Y-8444747D01*
X10626882Y-8446698D01*
X10617249Y-8444747D01*
X10587249Y-8444747D01*
X10576882Y-8446698D01*
X10567249Y-8444747D01*
X10537249Y-8444747D01*
X10526882Y-8446698D01*
X10517249Y-8444747D01*
X10487249Y-8444747D01*
X10478249Y-8446441D01*
X10478249Y-8294049D01*
X10474358Y-8274491D01*
X10472464Y-8264965D01*
X10455989Y-8240309D01*
X10413800Y-8198120D01*
X10413800Y-7584235D01*
X10417249Y-7584235D01*
X10427616Y-7582284D01*
X10437249Y-7584235D01*
X10467249Y-7584235D01*
X10477616Y-7582284D01*
X10487249Y-7584235D01*
X10517249Y-7584235D01*
X10527616Y-7582284D01*
X10537249Y-7584235D01*
X10567249Y-7584235D01*
X10577616Y-7582284D01*
X10587249Y-7584235D01*
X10617249Y-7584235D01*
X10627616Y-7582284D01*
X10637249Y-7584235D01*
X10667249Y-7584235D01*
X10677616Y-7582284D01*
X10687249Y-7584235D01*
X10717249Y-7584235D01*
X10727616Y-7582284D01*
X10737249Y-7584235D01*
X10767249Y-7584235D01*
X10777616Y-7582284D01*
X10787249Y-7584235D01*
X10817249Y-7584235D01*
X10827616Y-7582284D01*
X10837249Y-7584235D01*
X10867249Y-7584235D01*
X10877616Y-7582284D01*
X10887249Y-7584235D01*
X10917249Y-7584235D01*
X10927616Y-7582284D01*
X10937249Y-7584235D01*
X10967249Y-7584235D01*
X10977616Y-7582284D01*
X10987249Y-7584235D01*
G36*
X8922839Y-6426200D02*
X8001000Y-7348039D01*
X7798612Y-7145652D01*
X7890309Y-7145652D01*
X7897108Y-7169746D01*
X7949017Y-7188220D01*
X8004045Y-7185423D01*
X8041892Y-7169746D01*
X8048691Y-7145652D01*
X7969500Y-7066460D01*
X7890309Y-7145652D01*
X7798612Y-7145652D01*
X7777970Y-7125010D01*
X7831965Y-7071015D01*
X7832577Y-7083045D01*
X7848254Y-7120892D01*
X7872348Y-7127691D01*
X7951539Y-7048500D01*
X7987460Y-7048500D01*
X8066652Y-7127691D01*
X8090746Y-7120892D01*
X8109220Y-7068983D01*
X8106423Y-7013955D01*
X8090746Y-6976108D01*
X8066652Y-6969309D01*
X7987460Y-7048500D01*
X7951539Y-7048500D01*
X7950125Y-7047086D01*
X7968086Y-7029125D01*
X7969500Y-7030539D01*
X8048691Y-6951348D01*
X8041892Y-6927254D01*
X7993093Y-6909887D01*
X8578580Y-6324400D01*
X8686800Y-6324400D01*
X8715884Y-6318615D01*
X8725933Y-6311900D01*
X8808539Y-6311900D01*
X8922839Y-6426200D01*
X8922839Y-6426200D01*
G37*
X8922839Y-6426200D02*
X8001000Y-7348039D01*
X7798612Y-7145652D01*
X7890309Y-7145652D01*
X7897108Y-7169746D01*
X7949017Y-7188220D01*
X8004045Y-7185423D01*
X8041892Y-7169746D01*
X8048691Y-7145652D01*
X7969500Y-7066460D01*
X7890309Y-7145652D01*
X7798612Y-7145652D01*
X7777970Y-7125010D01*
X7831965Y-7071015D01*
X7832577Y-7083045D01*
X7848254Y-7120892D01*
X7872348Y-7127691D01*
X7951539Y-7048500D01*
X7987460Y-7048500D01*
X8066652Y-7127691D01*
X8090746Y-7120892D01*
X8109220Y-7068983D01*
X8106423Y-7013955D01*
X8090746Y-6976108D01*
X8066652Y-6969309D01*
X7987460Y-7048500D01*
X7951539Y-7048500D01*
X7950125Y-7047086D01*
X7968086Y-7029125D01*
X7969500Y-7030539D01*
X8048691Y-6951348D01*
X8041892Y-6927254D01*
X7993093Y-6909887D01*
X8578580Y-6324400D01*
X8686800Y-6324400D01*
X8715884Y-6318615D01*
X8725933Y-6311900D01*
X8808539Y-6311900D01*
X8922839Y-6426200D01*
G36*
X15611561Y-6764020D02*
X15562433Y-6764020D01*
X15526468Y-6771174D01*
X15495979Y-6791546D01*
X15475607Y-6822035D01*
X15468453Y-6858000D01*
X15475607Y-6893965D01*
X15494005Y-6921500D01*
X15475607Y-6949035D01*
X15468453Y-6985000D01*
X15475607Y-7020965D01*
X15494005Y-7048500D01*
X15475607Y-7076035D01*
X15468453Y-7112000D01*
X15475607Y-7147965D01*
X15476516Y-7149326D01*
X15459969Y-7152617D01*
X15429635Y-7172885D01*
X15074900Y-7527621D01*
X15074900Y-7332980D01*
X15095367Y-7332980D01*
X15131332Y-7325826D01*
X15161821Y-7305454D01*
X15182193Y-7274965D01*
X15189347Y-7239000D01*
X15182193Y-7203035D01*
X15162865Y-7174109D01*
X15168114Y-7169474D01*
X15182665Y-7139110D01*
X15169746Y-7124700D01*
X15074900Y-7124700D01*
X15074900Y-7099300D01*
X15169746Y-7099300D01*
X15182665Y-7084889D01*
X15168114Y-7054526D01*
X15162865Y-7049891D01*
X15182193Y-7020965D01*
X15189347Y-6985000D01*
X15182193Y-6949035D01*
X15162865Y-6920109D01*
X15168114Y-6915474D01*
X15182665Y-6885110D01*
X15169746Y-6870700D01*
X15074900Y-6870700D01*
X15074900Y-6845300D01*
X15169746Y-6845300D01*
X15182665Y-6830889D01*
X15168114Y-6800526D01*
X15140378Y-6776034D01*
X15105380Y-6764020D01*
X15074900Y-6764020D01*
X15074900Y-6489700D01*
X15608443Y-6489700D01*
X15611561Y-6764020D01*
X15611561Y-6764020D01*
G37*
X15611561Y-6764020D02*
X15562433Y-6764020D01*
X15526468Y-6771174D01*
X15495979Y-6791546D01*
X15475607Y-6822035D01*
X15468453Y-6858000D01*
X15475607Y-6893965D01*
X15494005Y-6921500D01*
X15475607Y-6949035D01*
X15468453Y-6985000D01*
X15475607Y-7020965D01*
X15494005Y-7048500D01*
X15475607Y-7076035D01*
X15468453Y-7112000D01*
X15475607Y-7147965D01*
X15476516Y-7149326D01*
X15459969Y-7152617D01*
X15429635Y-7172885D01*
X15074900Y-7527621D01*
X15074900Y-7332980D01*
X15095367Y-7332980D01*
X15131332Y-7325826D01*
X15161821Y-7305454D01*
X15182193Y-7274965D01*
X15189347Y-7239000D01*
X15182193Y-7203035D01*
X15162865Y-7174109D01*
X15168114Y-7169474D01*
X15182665Y-7139110D01*
X15169746Y-7124700D01*
X15074900Y-7124700D01*
X15074900Y-7099300D01*
X15169746Y-7099300D01*
X15182665Y-7084889D01*
X15168114Y-7054526D01*
X15162865Y-7049891D01*
X15182193Y-7020965D01*
X15189347Y-6985000D01*
X15182193Y-6949035D01*
X15162865Y-6920109D01*
X15168114Y-6915474D01*
X15182665Y-6885110D01*
X15169746Y-6870700D01*
X15074900Y-6870700D01*
X15074900Y-6845300D01*
X15169746Y-6845300D01*
X15182665Y-6830889D01*
X15168114Y-6800526D01*
X15140378Y-6776034D01*
X15105380Y-6764020D01*
X15074900Y-6764020D01*
X15074900Y-6489700D01*
X15608443Y-6489700D01*
X15611561Y-6764020D01*
M02*
